<?xml version="1.0" encoding="UTF-8"?>
<svg xmlns="http://www.w3.org/2000/svg" width="20" height="20" viewBox="0 0 20 20" fill="none">
  <mask id="mask0_2016_19" style="mask-type:alpha" maskUnits="userSpaceOnUse" x="0" y="0" width="20" height="20">
    <rect width="20" height="20" fill="#D9D9D9"></rect>
  </mask>
  <g mask="url(#mask0_2016_19)">
    <path d="M8.98376 20C8.98376 20 15.7668 18.2684 14.5307 14.1409C13.4575 10.5569 9.04488 10.7608 6.53176 9.11882C4.71341 7.93085 3.43118 6.88613 3.77414 5.55631C4.30513 3.49579 8.07155 1.41427 11.5916 0.813755C11.5916 0.813755 8.24373 2.70256 11.2482 4.59091C14.2526 6.47925 20.605 10.0847 18.1156 14.978C15.6259 19.8712 8.98376 20 8.98376 20Z" fill="#19594E"></path>
    <path d="M12.8981 15.0941C13.0297 16.0017 12.6284 16.9363 11.9747 17.5802C11.3215 18.2241 10.4424 18.6011 9.54513 18.7901C6.88922 19.3496 3.95336 18.2278 2.34731 16.0395C0.741264 13.8511 0.551823 10.7141 1.88257 8.34799C1.6796 9.71934 1.709 11.1742 2.31278 12.4219C2.91703 13.6696 4.19413 14.6574 5.57947 14.6079C7.42162 14.5421 8.97214 12.7611 10.7984 13.0112C11.8469 13.1545 12.7465 14.0471 12.8981 15.0941Z" fill="#19594E"></path>
    <path d="M12.6611 2.50006C12.474 1.98819 12.5921 1.39188 13.0106 1.04239C13.0465 1.01253 13.0843 0.984532 13.1245 0.958402C13.8944 0.46287 15.6567 0.803024 16.4863 0C16.4863 0 15.6278 2.9186 14.0399 3.21909C13.1945 3.37914 12.8235 2.94286 12.6611 2.50006Z" fill="#19594E"></path>
    <path d="M12.9229 2.07918C12.9229 2.07918 12.8039 1.17771 13.8342 1.22063C14.8644 1.26356 15.3796 0.81329 15.3796 0.81329C15.3796 0.81329 13.0848 3.40993 12.9229 2.07918Z" fill="#19594E"></path>
  </g>
</svg>
