<svg width="74" height="55" viewBox="0 0 74 55" fill="none" xmlns="http://www.w3.org/2000/svg">
<g opacity="0.5">
<path d="M56.448 0C65.9464 0 73.6729 7.72648 73.6729 17.2249C73.6729 26.3879 66.4821 33.9033 57.4471 34.4225C57.2907 36.1115 57.4081 40.709 61.8136 47.1044C62.1466 47.5869 62.0862 48.2375 61.6725 48.6511C59.8698 50.4539 58.7556 51.5893 57.9758 52.3834C56.9552 53.4217 56.4894 53.8958 55.808 54.5145C55.5769 54.7242 55.2854 54.8297 54.9925 54.8297C54.7081 54.8297 54.4249 54.7302 54.1961 54.5322C46.5194 47.8523 37.9916 34.0503 39.2254 17.1372C39.9484 7.20739 47.1914 0 56.448 0ZM54.9807 51.9579C55.3113 51.632 55.6883 51.248 56.2442 50.6826C56.9197 49.9941 57.8466 49.0506 59.2522 47.6402C53.9056 39.4016 54.9155 33.5336 55.3576 32.6921C55.5674 32.2927 55.9977 32.0236 56.448 32.0236C64.6071 32.0236 71.2455 25.3852 71.2455 17.2249C71.2455 9.06577 64.6071 2.42734 56.448 2.42734C48.4998 2.42734 42.275 8.68771 41.6457 17.3125C40.259 36.3355 51.5648 48.6867 54.9807 51.9579Z" fill="#EEEEEE"/>
<path d="M0.11974 17.1372V17.136C0.84515 7.20739 8.0892 0 17.3435 0C26.8419 0 34.5696 7.72648 34.5696 17.2249C34.5696 26.3879 27.3776 33.9033 18.3415 34.4225C18.185 36.1103 18.3036 40.7054 22.7102 47.1044C23.0432 47.5869 22.9828 48.2375 22.5692 48.6511C20.7735 50.4468 19.6618 51.5799 18.8819 52.3727C17.8567 53.4181 17.3885 53.8946 16.7035 54.5156C16.4724 54.7242 16.1797 54.8297 15.888 54.8297C15.6035 54.8297 15.3203 54.7302 15.0916 54.531C7.41487 47.8511 -1.11286 34.0492 0.11974 17.1372ZM15.8762 51.9579C16.2093 51.6296 16.5896 51.2433 17.1504 50.672C17.8259 49.9845 18.7491 49.0435 20.149 47.6402C14.8024 39.4004 15.8109 33.5336 16.2519 32.6921C16.4617 32.2939 16.8931 32.0236 17.3435 32.0236C25.5038 32.0236 32.1422 25.3852 32.1422 17.2249C32.1422 9.06577 25.5038 2.42734 17.3435 2.42734C9.39657 2.42734 3.17055 8.68771 2.54004 17.3138V17.3125C1.15452 36.3331 12.4604 48.6867 15.8762 51.9579Z" fill="#EEEEEE"/>
</g>
</svg>
