<svg width="16" height="17" viewBox="0 0 16 17" fill="none" xmlns="http://www.w3.org/2000/svg">
<g opacity="0.5">
<path d="M4.44434 11.0503H7.111V13.6003H8.88878V11.0503H11.5554V9.35029H8.88878V6.80029H7.111V9.35029H4.44434V11.0503Z" fill="#EEEEEE"/>
<path d="M14.2222 1.7H12.4444V0H10.6667V1.7H5.33333V0H3.55556V1.7H1.77778C0.797333 1.7 0 2.46245 0 3.4V15.3C0 16.2376 0.797333 17 1.77778 17H14.2222C15.2027 17 16 16.2376 16 15.3V3.4C16 2.46245 15.2027 1.7 14.2222 1.7ZM14.224 15.3H1.77778V5.1H14.2222L14.224 15.3Z" fill="#EEEEEE"/>
</g>
</svg>
