<svg width="73" height="81" viewBox="0 0 73 81" fill="none" xmlns="http://www.w3.org/2000/svg">
<path d="M137.5 -56.7932C134.28 -52.0935 133.24 -47.3485 133.497 -42.6259C133.834 -36.4684 136.377 -30.3825 139.043 -24.545C139.375 -23.8192 139.708 -23.0975 140.039 -22.38C142.389 -17.2895 144.642 -12.4098 145.499 -7.75242C146.466 -2.49084 145.64 2.43873 141.078 7.00214L140.724 7.3557L141.078 7.70921C145.64 12.2718 146.466 17.2005 145.499 22.4614C144.643 27.1179 142.39 31.9967 140.04 37.0864C139.709 37.8043 139.376 38.5263 139.044 39.2525C136.378 45.0896 133.835 51.1754 133.499 57.3329C133.242 62.0556 134.282 66.8007 137.502 71.5007C132.802 68.2809 128.057 67.2401 123.335 67.4978C117.177 67.8337 111.091 70.3771 105.254 73.0431C104.528 73.3747 103.806 73.708 103.088 74.0394C97.9981 76.3895 93.119 78.6423 88.4623 79.4985C83.2013 80.4658 78.2724 79.6397 73.7098 75.0771L73.3563 74.7236L73.0027 75.0771C68.4402 79.6397 63.511 80.4659 58.2495 79.4988C53.5922 78.6427 48.7124 76.39 43.6217 74.0399C42.9042 73.7087 42.1825 73.3755 41.4566 73.0441C35.6189 70.3783 29.5327 67.8351 23.375 67.499C18.6522 67.2412 13.9071 68.2818 9.20745 71.5013C12.4269 66.8016 13.4675 62.0565 13.2097 57.3337C12.8736 51.176 10.3303 45.0897 7.66454 39.252C7.3331 38.5262 6.99994 37.8045 6.66872 37.087C4.31862 31.9963 2.06587 27.1164 1.20981 22.4591C0.242703 17.1976 1.06899 12.2685 5.6316 7.706L5.98517 7.35245L5.63161 6.99889C1.06932 2.4366 0.243159 -2.49197 1.21021 -7.75273C2.06616 -12.409 4.31843 -17.2878 6.66805 -22.3774C6.99944 -23.0952 7.33276 -23.8173 7.66438 -24.5435C10.3299 -30.3805 12.8727 -36.4661 13.2083 -42.6236C13.4657 -47.3461 12.4248 -52.0911 9.20496 -56.7909C13.9049 -53.5712 18.6502 -52.5305 23.373 -52.7883C29.5309 -53.1245 35.6172 -55.6679 41.4548 -58.3341C42.181 -58.6658 42.9031 -58.9991 43.621 -59.3306C48.7112 -61.6808 53.5905 -63.9336 58.2473 -64.79C63.5085 -65.7575 68.4374 -64.9316 72.9998 -60.3693L73.3533 -60.0157L73.7069 -60.3693C78.2697 -64.9321 83.1988 -65.7584 88.46 -64.7913C93.1171 -63.9352 97.9967 -61.6823 103.087 -59.3321C103.804 -59.0009 104.526 -58.6677 105.252 -58.3363C111.089 -55.6703 117.175 -53.127 123.333 -52.7909C128.055 -52.5331 132.8 -53.5737 137.5 -56.7932Z" stroke="#EEEEEE"/>
</svg>
