<svg width="74" height="81" viewBox="0 0 74 81" fill="none" xmlns="http://www.w3.org/2000/svg">
<path d="M64.4998 -56.7932C61.2803 -52.0935 60.2396 -47.3485 60.4975 -42.6259C60.8336 -36.4684 63.377 -30.3825 66.0431 -24.545C66.3746 -23.8192 66.7078 -23.0975 67.0391 -22.38C69.3893 -17.2895 71.6423 -12.4098 72.4986 -7.75242C73.4661 -2.49084 72.6401 2.43873 68.0777 7.00214L67.7242 7.3557L68.0777 7.70921C72.6403 12.2718 73.4664 17.2005 72.4991 22.4614C71.643 27.1179 69.3904 31.9967 67.0405 37.0864C66.7091 37.8043 66.3757 38.5263 66.044 39.2525C63.3782 45.0896 60.835 51.1754 60.4992 57.3329C60.2416 62.0556 61.2825 66.8007 64.5024 71.5007C59.8024 68.2809 55.0573 67.2401 50.3346 67.4978C44.177 67.8337 38.0911 70.3771 32.2538 73.0431C31.5277 73.3747 30.8058 73.708 30.0881 74.0394C24.9981 76.3895 20.119 78.6423 15.4623 79.4985C10.2013 80.4658 5.27244 79.6397 0.709827 75.0771L0.356274 74.7236L0.00272039 75.0771C-4.55983 79.6397 -9.48898 80.4659 -14.7505 79.4988C-19.4078 78.6427 -24.2876 76.39 -29.3783 74.0399C-30.0958 73.7087 -30.8175 73.3755 -31.5434 73.0441C-37.3811 70.3783 -43.4673 67.8351 -49.625 67.499C-54.3478 67.2412 -59.0929 68.2818 -63.7925 71.5013C-60.5731 66.8016 -59.5325 62.0565 -59.7903 57.3337C-60.1264 51.176 -62.6697 45.0897 -65.3355 39.252C-65.6669 38.5262 -66.0001 37.8045 -66.3313 37.087C-68.6814 31.9963 -70.9341 27.1164 -71.7902 22.4591C-72.7573 17.1976 -71.931 12.2685 -67.3684 7.706L-67.0148 7.35245L-67.3684 6.99889C-71.9307 2.4366 -72.7568 -2.49197 -71.7898 -7.75273C-70.9338 -12.409 -68.6816 -17.2878 -66.332 -22.3774C-66.0006 -23.0952 -65.6672 -23.8173 -65.3356 -24.5435C-62.6701 -30.3805 -60.1273 -36.4661 -59.7917 -42.6236C-59.5343 -47.3461 -60.5752 -52.0911 -63.795 -56.7909C-59.0951 -53.5712 -54.3498 -52.5305 -49.627 -52.7883C-43.4691 -53.1245 -37.3828 -55.6679 -31.5452 -58.3341C-30.819 -58.6658 -30.0969 -58.9991 -29.379 -59.3306C-24.2888 -61.6808 -19.4095 -63.9336 -14.7527 -64.79C-9.49146 -65.7575 -4.56255 -64.9316 -0.000219773 -60.3693L0.353334 -60.0157L0.706887 -60.3693C5.26971 -64.9321 10.1988 -65.7584 15.46 -64.7913C20.1171 -63.9352 24.9967 -61.6823 30.087 -59.3321C30.8045 -59.0009 31.5261 -58.6677 32.2519 -58.3363C38.0892 -55.6703 44.1751 -53.127 50.3325 -52.7909C55.0551 -52.5331 59.8001 -53.5737 64.4998 -56.7932Z" stroke="#EEEEEE"/>
</svg>
