<svg width="104" height="8" viewBox="0 0 104 8" fill="none" xmlns="http://www.w3.org/2000/svg">
<path d="M99.8186 3.40601H6.18164V3.9472H99.8186V3.40601Z" fill="#EEEEEE"/>
<path d="M12.8373 2.09107C12.8373 3.08612 12.0483 3.89302 11.0731 3.89302C10.1 3.89302 9.31104 3.08612 9.31104 2.09107C9.31104 1.09551 10.1 0.288086 11.0731 0.288086C12.0484 0.288086 12.8373 1.09551 12.8373 2.09107Z" fill="#EEEEEE"/>
<path d="M12.8373 5.26239C12.8373 6.25796 12.0483 7.06538 11.0731 7.06538C10.1 7.06538 9.31104 6.25796 9.31104 5.26239C9.31104 4.26735 10.1 3.46045 11.0731 3.46045C12.0484 3.46045 12.8373 4.26735 12.8373 5.26239Z" fill="#EEEEEE"/>
<path d="M9.87742 3.46067C9.87742 4.45571 9.08689 5.26261 8.11482 5.26261C7.14071 5.26261 3.45634 3.24497 0 3.46067C3.45634 3.24497 7.14071 1.6582 8.11482 1.6582C9.08702 1.6582 9.87742 2.4651 9.87742 3.46067Z" fill="#EEEEEE"/>
<path d="M13.0956 0H12.6255V7.35348H13.0956V0Z" fill="#EEEEEE"/>
<path d="M91.1624 2.09107C91.1624 3.08612 91.9519 3.89302 92.925 3.89302C93.8996 3.89302 94.6886 3.08612 94.6886 2.09107C94.6886 1.09551 93.8996 0.288086 92.925 0.288086C91.9519 0.288086 91.1624 1.09551 91.1624 2.09107Z" fill="#EEEEEE"/>
<path d="M91.1624 5.26239C91.1624 6.25796 91.9519 7.06538 92.925 7.06538C93.8996 7.06538 94.6886 6.25796 94.6886 5.26239C94.6886 4.26735 93.8996 3.46045 92.925 3.46045C91.9519 3.46045 91.1624 4.26735 91.1624 5.26239Z" fill="#EEEEEE"/>
<path d="M94.1221 3.46067C94.1221 4.45571 94.9111 5.26261 95.8862 5.26261C96.8588 5.26261 100.544 3.24497 103.999 3.46067C100.544 3.24497 96.8588 1.6582 95.8862 1.6582C94.9111 1.6582 94.1221 2.4651 94.1221 3.46067Z" fill="#EEEEEE"/>
<path d="M91.3734 0H90.9038V7.35348H91.3734V0Z" fill="#EEEEEE"/>
</svg>
