<svg width="216" height="14" viewBox="0 0 216 14" fill="none" xmlns="http://www.w3.org/2000/svg">
<path d="M207.316 6.48438H12.8388V7.51474H207.316V6.48438Z" fill="#15594E"/>
<path d="M26.6618 3.98125C26.6618 5.87567 25.0232 7.4119 22.9979 7.4119C20.9768 7.4119 19.3381 5.87567 19.3381 3.98125C19.3381 2.08583 20.9768 0.548615 22.9979 0.548615C25.0234 0.548615 26.6618 2.08583 26.6618 3.98125Z" fill="#15594E"/>
<path d="M26.6618 10.0191C26.6618 11.9145 25.0232 13.4517 22.9979 13.4517C20.9768 13.4517 19.3381 11.9145 19.3381 10.0191C19.3381 8.12463 20.9768 6.58841 22.9979 6.58841C25.0234 6.58841 26.6618 8.12463 26.6618 10.0191Z" fill="#15594E"/>
<path d="M20.5146 6.58835C20.5146 8.48278 18.8727 10.019 16.8538 10.019C14.8306 10.019 7.17842 6.1777 -0.000167847 6.58835C7.17842 6.1777 14.8306 3.15671 16.8538 3.15671C18.873 3.15671 20.5146 4.69293 20.5146 6.58835Z" fill="#15594E"/>
<path d="M27.1988 0H26.2224V14H27.1988V0Z" fill="#15594E"/>
<path d="M189.338 3.98122C189.338 5.87564 190.978 7.41186 192.999 7.41186C195.023 7.41186 196.662 5.87564 196.662 3.98122C196.662 2.0858 195.023 0.548584 192.999 0.548584C190.978 0.548584 189.338 2.0858 189.338 3.98122Z" fill="#15594E"/>
<path d="M189.338 10.019C189.338 11.9144 190.978 13.4516 192.999 13.4516C195.023 13.4516 196.662 11.9144 196.662 10.019C196.662 8.12454 195.023 6.58832 192.999 6.58832C190.978 6.58832 189.338 8.12454 189.338 10.019Z" fill="#15594E"/>
<path d="M195.485 6.58838C195.485 8.4828 197.124 10.019 199.149 10.019C201.169 10.019 208.823 6.17773 216 6.58838C208.823 6.17773 201.169 3.15674 199.149 3.15674C197.124 3.15674 195.485 4.69296 195.485 6.58838Z" fill="#15594E"/>
<path d="M189.777 0H188.801V14H189.777V0Z" fill="#15594E"/>
</svg>
