<svg width="239" height="32" viewBox="0 0 239 32" fill="none" xmlns="http://www.w3.org/2000/svg">
<path opacity="0.5" d="M223.309 0C223.304 0 223.304 0 223.298 0C223.296 0 223.293 0 223.285 0C216.871 0.0132229 211.659 5.32729 211.659 11.8619C211.659 18.4026 216.883 23.7225 223.306 23.7225H223.309C226.564 23.7225 229.205 21.0342 229.205 17.7199C229.205 14.4046 226.564 11.7173 223.309 11.7173C220.054 11.7173 217.413 14.4043 217.413 17.7199C217.413 18.8082 217.72 19.8125 218.216 20.6941C215.243 18.909 213.237 15.6251 213.237 11.8615C213.237 6.20984 217.749 1.61288 223.299 1.60673C231.089 1.61288 237.426 8.06811 237.426 15.9997C237.426 23.9337 231.082 30.3927 223.286 30.3927H15.7169C7.91873 30.3927 1.57746 23.9337 1.57746 15.9997C1.57746 8.06811 7.91389 1.61288 15.7031 1.60673C21.2539 1.61288 25.7676 6.20984 25.7676 11.8615C25.7676 15.6248 23.7586 18.909 20.7855 20.6941C21.2823 19.8125 21.5913 18.8082 21.5913 17.7199C21.5913 14.4046 18.9498 11.7173 15.6958 11.7173C12.4385 11.7173 9.79821 14.4043 9.79821 17.7199C9.79821 21.0339 12.4385 23.7225 15.6925 23.7225C15.6925 23.7225 15.6925 23.7225 15.6961 23.7225C22.1201 23.7225 27.3451 18.4023 27.3451 11.8619C27.3451 5.32729 22.1283 0.0132229 15.7172 0C15.7136 0 15.7112 0 15.7031 0C15.7006 0 15.6994 0 15.6925 0C7.03863 0.0132229 0 7.1831 0 16C0 24.8215 7.0492 32 15.7169 32H223.285C231.953 32 239 24.8215 239 16C239 7.1831 231.965 0.0132229 223.309 0Z" fill="#15594E"/>
</svg>
