<svg width="60" height="60" viewBox="0 0 60 60" fill="none" xmlns="http://www.w3.org/2000/svg">
<path d="M7.08224 48.7154C5.92751 49.3521 4.68802 50.3507 3.57684 51.6938C3.02356 52.3668 2.50048 53.1255 2.05461 53.9842C1.83226 54.4151 1.63081 54.8729 1.46593 55.3613L1.39626 55.5775L1.30512 55.9129C1.24996 56.1372 1.20352 56.3615 1.17159 56.583C1.11179 57.0213 1.08102 57.4389 1.03516 57.8939L1.04503 57.895C1.49902 57.9347 1.90831 57.9813 2.34547 58.0072C2.56725 58.0147 2.79541 58.0083 3.02589 57.9865C3.142 57.9733 3.25579 57.9646 3.37306 57.9474L3.54723 57.9209L3.65579 57.9019C4.18642 57.7978 4.67931 57.631 5.14144 57.44C6.06452 57.0501 6.85698 56.5376 7.55017 55.9934C8.93247 54.8948 9.91187 53.6466 10.5679 52.5227C11.2239 51.3964 11.5438 50.3852 11.6913 49.6915C11.8364 48.9909 11.8335 48.5998 11.8387 48.6004C11.826 48.5797 11.383 50.1453 9.78125 51.9756C8.98995 52.8822 7.92172 53.8571 6.60502 54.6871C5.94899 55.0978 5.22794 55.4746 4.46857 55.7444C4.08831 55.8778 3.69701 55.9865 3.31094 56.0481L3.2494 56.0561L3.25172 56.0544C3.25288 56.0532 3.25114 56.0532 3.25114 56.0521L3.25056 56.0492C3.25056 56.0475 3.2523 56.0463 3.2523 56.0463C3.2523 56.0463 3.25114 56.0469 3.2494 56.0469L3.2465 56.0458L3.24476 56.0446L3.27669 55.9307C3.39628 55.5384 3.54432 55.1502 3.71211 54.7723C4.04941 54.013 4.45522 53.3021 4.88251 52.6463C5.74347 51.3383 6.7043 50.265 7.62506 49.5005C8.54118 48.7298 9.42827 48.2852 10.0884 48.0907C10.7467 47.8957 11.1531 47.9067 11.1496 47.8975C11.1496 47.9078 10.7694 47.7738 10.0367 47.7991C9.30984 47.8204 8.23929 48.0677 7.08224 48.7154Z" fill="#15594E"/>
<path d="M11.7695 47.0579C11.7695 47.985 13.2151 47.985 13.2151 47.0579C13.2151 46.1297 11.7695 46.1297 11.7695 47.0579Z" fill="#15594E"/>
<path d="M8.48608 52.1333C8.48608 50.8349 6.45703 50.8349 6.45703 52.1333C6.45703 53.4311 8.48608 53.4311 8.48608 52.1333Z" fill="#15594E"/>
<path d="M16.7427 41.4137C16.6846 41.4241 16.6022 41.4368 16.5789 41.4431C16.5058 41.4592 16.4355 41.4787 16.3636 41.4977C16.2219 41.5357 16.0837 41.5834 15.9496 41.6358C15.682 41.7434 15.4306 41.8837 15.2175 42.0586C15.0039 42.2335 14.8373 42.4481 14.738 42.6603C14.5365 43.101 14.6027 43.4669 14.6573 43.6803C14.72 43.9 14.7821 44.0047 14.7804 44.0064C14.7821 44.007 14.7961 43.8828 14.8547 43.6803C14.9098 43.4812 15.0248 43.204 15.2564 43.0124C15.4823 42.8208 15.8178 42.7092 16.2434 42.6471C16.3502 42.6327 16.4617 42.6212 16.5778 42.6114L16.7537 42.5994C16.7978 42.5959 16.7827 42.5999 16.7908 42.6017L16.7955 42.608C16.8054 42.6241 16.7926 42.635 16.792 42.6356C16.792 42.6356 16.8054 42.6264 16.8176 42.6419C16.8297 42.6195 16.8001 42.7202 16.7862 42.7685L16.7334 42.9428C16.6997 43.0555 16.6654 43.1625 16.6266 43.2609C16.4808 43.667 16.3032 43.9593 16.0547 44.1543C15.8074 44.3487 15.5101 44.439 15.3069 44.4891C15.0974 44.5357 14.972 44.5483 14.9725 44.5501C14.9737 44.5483 15.0794 44.6134 15.2953 44.6824C15.5101 44.7491 15.855 44.8337 16.3113 44.7267C16.5366 44.6703 16.7798 44.5558 16.9958 44.3861C17.2158 44.2141 17.4097 43.9967 17.5694 43.7562C17.6512 43.6343 17.7226 43.51 17.7911 43.3794C17.8242 43.3167 17.8562 43.2506 17.8887 43.1861C17.9218 43.1096 17.938 43.0832 17.9961 42.9336C18.1807 42.4366 18.3647 41.8935 18.5494 41.3424L18.5627 41.2998C18.0054 41.3165 17.4736 41.3182 16.9406 41.3867L16.7427 41.4137Z" fill="#15594E"/>
<path d="M12.1776 41.7487C12.1561 41.7941 12.1236 41.858 12.1166 41.8769C12.0922 41.9339 12.0696 41.9931 12.0493 42.0507C12.008 42.168 11.9697 42.2871 11.9418 42.4062C11.8861 42.6443 11.8582 42.8883 11.8768 43.1218C11.8971 43.3548 11.9627 43.5768 12.0655 43.7517C12.2757 44.1049 12.5648 44.243 12.7436 44.308C12.9265 44.3747 13.0321 44.3822 13.0316 44.3839C13.0327 44.3834 12.9514 44.3109 12.8376 44.1717C12.7262 44.0359 12.5874 43.8184 12.5683 43.5653C12.5445 43.3145 12.6315 43.028 12.7987 42.7024C12.8394 42.6202 12.8876 42.5368 12.9369 42.4539L13.0165 42.3256C13.0339 42.2917 13.0304 42.3067 13.035 42.3021L13.0414 42.3015C13.0583 42.3032 13.06 42.3176 13.0594 42.3182C13.0594 42.3182 13.0594 42.3049 13.0768 42.3038C13.067 42.2819 13.1239 42.3533 13.1511 42.3866L13.2481 42.5069C13.3085 42.5868 13.3683 42.6622 13.4194 42.7381C13.6324 43.0395 13.7503 43.3076 13.7631 43.5751C13.7793 43.842 13.6963 44.0905 13.6301 44.258C13.5599 44.4254 13.5088 44.5191 13.5099 44.5197C13.5094 44.5185 13.6069 44.4766 13.7631 44.3621C13.914 44.2459 14.1451 44.0497 14.2919 43.6798C14.3645 43.4963 14.4028 43.2737 14.3912 43.0384C14.3802 42.8025 14.3216 42.5609 14.2321 42.3302C14.1851 42.2152 14.134 42.1024 14.0766 41.9926C14.0475 41.9362 14.0185 41.8838 13.9883 41.8309C13.95 41.7688 13.9395 41.7446 13.8629 41.6307C13.6057 41.258 13.3131 40.8645 13.0176 40.4618L12.9956 40.433C12.7302 40.8271 12.4702 41.1947 12.2571 41.5991L12.1776 41.7487Z" fill="#15594E"/>
<path d="M15.3619 45.4844C15.2406 45.6316 15.1965 45.7242 15.1953 45.7225C15.1959 45.7242 15.2888 45.6736 15.4612 45.6098C15.629 45.5454 15.8809 45.4706 16.1497 45.4873C16.4191 45.5011 16.6839 45.6144 16.977 45.8186C17.0514 45.868 17.1274 45.9215 17.2035 45.9831L17.3219 46.0751C17.355 46.101 17.4241 46.1522 17.4049 46.1436C17.4032 46.1597 17.3898 46.1597 17.3898 46.1597C17.3904 46.1597 17.4049 46.162 17.4055 46.1798L17.4049 46.1867C17.4008 46.1907 17.413 46.1873 17.3817 46.204L17.2505 46.2759C17.1628 46.3248 17.0775 46.3673 16.9939 46.407C16.6641 46.5652 16.3715 46.644 16.1201 46.6193C15.867 46.5997 15.654 46.4668 15.5198 46.3604C15.3852 46.2523 15.3172 46.1764 15.3166 46.1781C15.3184 46.1775 15.3225 46.2753 15.3805 46.4519C15.4432 46.6193 15.5692 46.8965 15.9198 47.0961C16.0894 47.1945 16.31 47.2595 16.5439 47.2784C16.7773 47.2968 17.0229 47.275 17.2638 47.2203C17.3846 47.1945 17.5048 47.1622 17.6244 47.1203C17.6824 47.1007 17.7434 47.08 17.8009 47.0576C17.8206 47.0507 17.8856 47.0225 17.9321 47L18.0842 46.9299C18.4969 46.7268 18.8743 46.4818 19.279 46.2344L19.2505 46.2137C18.8586 45.9313 18.4731 45.6512 18.1068 45.4056C17.9953 45.332 17.9686 45.3193 17.9106 45.2854C17.8572 45.256 17.8038 45.2284 17.7509 45.1997C17.6424 45.145 17.5309 45.0956 17.4165 45.0513C17.1884 44.9667 16.9474 44.9075 16.7117 44.8954C16.4754 44.8833 16.2484 44.9184 16.0644 44.9868C15.6876 45.1226 15.4833 45.3412 15.3619 45.4844Z" fill="#15594E"/>
<path d="M5.08626 36.9554L4.93416 37.1067L4.81514 37.2355C4.39598 37.6951 4.03371 38.1789 3.73647 38.6707C3.13385 39.6543 2.80061 40.6666 2.7054 41.5265C2.60438 42.3893 2.7263 43.0784 2.85228 43.5231C2.97884 43.9683 3.10308 44.1891 3.09844 44.1909C3.1025 44.1909 3.09147 43.9372 3.14198 43.496C3.18842 43.0594 3.3086 42.4399 3.60874 41.7537C3.90193 41.0675 4.37682 40.3226 5.02298 39.5893C5.34577 39.2217 5.71036 38.8565 6.10572 38.4975C6.13823 38.4676 6.13823 38.4699 6.13939 38.4711L6.14636 38.4716C6.15042 38.4716 6.15565 38.4728 6.16029 38.4739C6.16668 38.4762 6.17074 38.4797 6.17307 38.4837C6.17771 38.4912 6.17597 38.5004 6.17481 38.5044L6.17365 38.5067C6.17365 38.5067 6.17655 38.501 6.18352 38.4998C6.187 38.4993 6.19164 38.4998 6.19687 38.5027C6.20151 38.4849 6.21661 38.6868 6.22299 38.8001C6.25376 39.3258 6.2346 39.8268 6.16262 40.2933C6.01864 41.2269 5.63257 42.0074 5.14432 42.5907C4.65955 43.1774 4.11499 43.5656 3.72834 43.817C3.33472 44.0666 3.09727 44.1886 3.09902 44.1909C3.09844 44.1874 3.36491 44.1834 3.83923 44.0925C4.3089 43.9976 5.01311 43.8147 5.78177 43.3028C6.54985 42.8041 7.34115 41.8901 7.73012 40.6908C7.93157 40.096 8.04188 39.4489 8.06104 38.7823C8.06452 38.6011 8.06975 38.5021 8.05233 38.1812C8.03491 37.8844 8.00066 37.5835 7.95189 37.2936C7.90487 37.0049 7.84275 36.719 7.77018 36.4561L7.53331 35.6905L7.36669 35.1665C6.91037 35.4892 6.48599 35.7676 6.04534 36.1058C5.82531 36.2801 5.60702 36.4653 5.39512 36.6603C5.28946 36.7581 5.18786 36.8542 5.08626 36.9554Z" fill="#15594E"/>
<path d="M5.45536 41.4589C5.25855 40.5531 3.84431 40.8552 4.03764 41.7598C4.23387 42.6656 5.64868 42.3658 5.45536 41.4589Z" fill="#15594E"/>
<path d="M2.88281 33.8398C2.88281 34.7674 4.33188 34.7674 4.33188 33.8398C4.33188 32.9156 2.88281 32.9156 2.88281 33.8398Z" fill="#15594E"/>
<path d="M8.84936 31.5176C8.84936 30.2198 6.82031 30.2198 6.82031 31.5176C6.82089 32.8159 8.84936 32.8159 8.84936 31.5176Z" fill="#15594E"/>
<path d="M6.21106 27.4186C6.21222 27.4094 5.04588 27.506 4.49203 27.6653C3.6032 27.9754 2.66502 28.3843 1.95732 28.9728C1.70245 29.2075 1.47603 29.4623 1.28968 29.7343C0.811877 30.4194 0.591265 31.1902 0.561077 31.8833C0.526243 32.5781 0.635388 33.2109 0.850775 33.7561C1.06558 34.298 1.39998 34.7305 1.76051 35.025C2.50536 35.6227 3.25893 35.679 3.70305 35.6675C4.16401 35.644 4.38695 35.568 4.38811 35.5738C4.38811 35.568 4.14834 35.6186 3.68738 35.5859C3.24325 35.5467 2.5222 35.3903 1.92539 34.7616C1.32683 34.1519 1.00114 33.0504 1.21653 31.8407C1.32509 31.2454 1.59215 30.6437 2.05079 30.1445C2.12858 30.0559 2.22031 29.9753 2.3103 29.896C2.3132 29.9046 3.86793 28.6041 6.01077 28.7577C6.05024 28.7594 7.54286 28.5799 8.56638 29.678C9.33213 30.4976 11.1528 31.8436 11.039 36.6856C10.9414 36.7443 10.8451 36.8076 10.7504 36.8778C10.6738 36.9341 10.5948 36.9974 10.52 37.0618C10.4607 37.117 10.4079 37.1654 10.3562 37.216C10.3528 37.086 10.3458 36.9554 10.3342 36.826C10.2697 36.1956 10.0613 35.648 9.78381 35.1614C9.50688 34.6788 9.14636 34.2646 8.72313 33.9782C8.30629 33.6819 7.7803 33.5617 7.44706 33.6072C7.11441 33.644 6.98204 33.7372 6.97972 33.728C6.97623 33.7349 7.16201 33.7136 7.41049 33.7832C7.65955 33.8511 7.84591 34.0788 8.08626 34.3371C8.68075 34.9681 9.07843 36.1104 9.11501 37.8297L8.97103 39.7538C8.95129 39.8458 8.93677 39.9355 8.92574 40.0195C8.83924 40.7667 8.66043 41.9671 8.65578 41.9643C8.65927 41.9643 9.23634 40.7667 9.67815 40.142C9.97945 39.7198 10.3777 39.1981 10.8491 38.6563C10.6703 39.5455 10.351 40.4043 9.93185 41.2165C9.66712 41.7284 9.49759 42.3577 9.19396 42.8794C10.5832 41.1992 11.4494 39.3776 11.886 37.5876C11.9708 37.5191 12.0637 37.4484 12.1594 37.3828C12.3766 37.2321 12.6042 37.0923 12.8317 36.9744C13.2904 36.7374 13.7391 36.585 14.1177 36.5533C14.4974 36.5148 14.8248 36.6166 15.0257 36.7299C15.2312 36.8432 15.3287 36.9353 15.331 36.9324C15.327 36.9336 15.3293 36.8185 15.2265 36.6195C15.1307 36.4314 14.8567 36.1202 14.2686 35.9902C13.6915 35.8579 12.9554 35.9264 12.2657 36.1357C12.2221 36.1507 12.1827 36.1651 12.142 36.1789C12.174 35.9114 12.1978 35.6428 12.2111 35.3794C12.5525 28.7415 7.23748 27.422 6.21106 27.4186Z" fill="#15594E"/>
<path d="M3.09345 21.0857C3.58866 19.2698 3.8174 17.1445 3.56602 14.9673C3.53874 14.7125 3.50564 14.4617 3.46501 14.2132C3.58518 14.391 3.70187 14.5848 3.80695 14.8045C4.08504 15.378 4.29056 16.0855 4.3968 16.904C4.60812 18.5376 4.44092 20.6049 3.79534 22.8418C3.63627 23.4072 3.42727 23.9422 3.19447 24.5686C2.96863 25.1835 2.75034 25.8271 2.55876 26.5156C2.3991 27.1173 2.24758 27.7437 2.19242 28.4575C2.76079 28.0951 3.3576 27.7949 3.98112 27.5763C4.01653 27.3192 4.05775 27.0638 4.10884 26.813C4.23773 26.1659 4.39912 25.5343 4.57155 24.9194C4.74455 24.3149 4.92743 23.654 5.04006 23.0437C5.50741 20.5813 5.44354 18.4041 5.01683 16.7039C4.80087 15.852 4.48911 15.1278 4.11871 14.5653C3.88185 14.2017 3.62582 13.9118 3.37502 13.6766C3.06965 12.005 2.5814 10.4652 2.2052 9.06116C1.96717 8.18168 1.77616 7.34477 1.66354 6.55387C1.54859 5.76239 1.51259 5.01808 1.54452 4.33589C1.60316 2.97324 1.90156 1.88094 2.13437 1.1418C2.3724 0.401521 2.54831 0.000605718 2.54424 3.05176e-05C2.54772 0.00118092 2.31434 0.368159 1.97762 1.08026C1.65134 1.79236 1.2136 2.86856 1.01273 4.2893C0.915778 4.99795 0.880364 5.78655 0.939581 6.62692C0.992993 7.46786 1.13639 8.35482 1.33146 9.26881C1.57819 10.4307 1.89692 11.6335 2.15295 12.8834C2.13901 12.8776 2.12276 12.8724 2.10882 12.8667C2.11579 12.8897 2.12043 12.9133 2.12682 12.9369C2.14192 12.9449 2.15411 12.9512 2.16746 12.9622C2.30737 13.6524 2.42929 14.3593 2.50825 15.0818C2.74279 17.1399 2.59591 19.1162 2.21797 20.8804C1.84583 22.6503 1.3181 24.2355 1.01331 25.6137C0.696328 26.9919 0.6046 28.1423 0.618533 28.9286C0.631305 29.7143 0.706778 30.1434 0.702714 30.1434C0.721292 30.1526 0.630725 28.3764 1.52943 25.7529C1.95207 24.4409 2.60404 22.9074 3.09345 21.0857Z" fill="#15594E"/>
<path d="M6.03338 20.1606C6.18085 20.4413 6.28825 20.8233 6.31089 21.2794C6.33527 21.7378 6.28128 22.2728 6.16169 22.8669C5.93121 24.0611 5.4087 25.468 4.9669 27.2298C4.96342 27.2442 4.9611 27.2592 4.95703 27.2741C5.15558 27.2252 5.36052 27.1821 5.5701 27.1551C5.57416 27.1545 5.57707 27.1522 5.58113 27.1522C5.59739 27.1499 5.61364 27.151 5.6299 27.1499C5.82961 27.1263 6.0299 27.1125 6.23774 27.1125C6.24355 27.1125 6.24761 27.1148 6.25342 27.1159C6.47229 25.5163 6.77069 24.0881 6.81133 22.8825C6.83746 22.244 6.80378 21.6711 6.68999 21.1851C6.57969 20.699 6.38404 20.309 6.17852 20.0444C5.96894 19.7781 5.7611 19.6263 5.62177 19.5348C5.48069 19.4433 5.40174 19.41 5.40232 19.4088C5.40116 19.41 5.47489 19.46 5.59739 19.5762C5.71756 19.6901 5.88766 19.8788 6.03338 20.1606Z" fill="#15594E"/>
<path d="M5.77349 32.09C6.06842 32.3368 6.39004 32.5175 6.72328 32.6578C6.3198 32.4438 6.02023 32.0406 6.02023 31.4475C6.02023 30.9729 6.21239 30.6202 6.49512 30.3884C6.40398 30.2532 6.32851 30.0927 6.26987 29.9109C6.19672 29.6699 6.1584 29.4007 6.13692 29.1199C5.45651 28.9957 4.57812 29.2563 4.57812 29.2563C4.77609 30.0386 5.20339 31.6177 5.77349 32.09Z" fill="#15594E"/>
<path d="M2.51524 30.3281C2.70044 30.6381 2.98782 30.8884 3.32861 31.0264C3.50045 31.0984 3.68275 31.1375 3.87085 31.1547C4.06243 31.1743 4.41889 31.1674 4.74865 31.5183L4.1112 29.2984C4.06069 29.3058 2.83513 29.8385 2.45312 30.2245C2.47228 30.2608 2.49202 30.2953 2.51524 30.3281Z" fill="#15594E"/>
<path d="M11.0256 24.3598C11.0268 24.3667 11.0332 24.354 11.0274 24.3903L11.0117 24.5421C11.0007 24.6428 10.9879 24.7389 10.9728 24.8315C10.9113 25.1997 10.8045 25.4856 10.628 25.6777C10.4573 25.8716 10.2094 25.9653 10.0323 26.0114C9.85524 26.0551 9.74436 26.0643 9.74552 26.0654C9.74668 26.0643 9.83725 26.123 10.0277 26.1793C10.2146 26.2311 10.5339 26.2978 10.927 26.135C11.1168 26.0533 11.309 25.9136 11.4663 25.7324C11.6248 25.5534 11.7542 25.3377 11.8553 25.1082C11.9069 24.9931 11.9499 24.8741 11.9865 24.7515C12.0079 24.6917 12.0248 24.629 12.0399 24.5686C12.0463 24.5462 12.059 24.4766 12.0689 24.4254L12.0979 24.2562C12.1711 23.7954 12.1839 23.3358 12.2123 22.8526L12.1757 22.8658C11.6857 23.0137 11.2045 23.1586 10.7621 23.3076C10.628 23.3554 10.6047 23.3686 10.5368 23.3956C10.4793 23.4204 10.4224 23.4457 10.3638 23.4756C10.2489 23.5291 10.1362 23.5912 10.0282 23.6568C9.81518 23.7903 9.61663 23.9536 9.46279 24.1383C9.30546 24.3247 9.20037 24.5312 9.14638 24.7251C9.0384 25.1162 9.10923 25.4177 9.16032 25.6035C9.21953 25.7945 9.2712 25.8877 9.26946 25.8888C9.2712 25.8888 9.28572 25.7807 9.3339 25.5995C9.37977 25.4246 9.46685 25.1709 9.64334 24.9615C9.82157 24.7492 10.0834 24.602 10.4422 24.4846C10.5299 24.4558 10.6251 24.4282 10.7255 24.3995L10.8782 24.3604C10.924 24.3494 11.01 24.3264 10.9902 24.3362C11.003 24.3477 10.9949 24.3586 10.9949 24.3586C10.9955 24.358 11.0053 24.3477 11.0198 24.3569L11.0256 24.3598Z" fill="#15594E"/>
<path d="M9.55416 27.7397C9.43515 27.6379 9.37477 27.5671 9.37477 27.5688C9.37651 27.5683 9.37999 27.658 9.43224 27.8208C9.48856 27.975 9.60061 28.2287 9.90714 28.4185C10.0604 28.5105 10.2514 28.5744 10.4569 28.5951C10.6595 28.6164 10.8749 28.6003 11.0874 28.5571C11.1931 28.5353 11.2987 28.5054 11.4038 28.472C11.4549 28.4553 11.5048 28.4369 11.5582 28.4145C11.5751 28.4087 11.6302 28.384 11.6726 28.3667L11.8061 28.3046C12.1655 28.1263 12.4947 27.9088 12.8465 27.6896L12.8215 27.6701C12.4755 27.4049 12.1382 27.1443 11.8143 26.9125C11.7156 26.8423 11.6941 26.8314 11.643 26.7991C11.5954 26.7721 11.5495 26.7456 11.5002 26.7175C11.4067 26.6657 11.3086 26.6191 11.2082 26.5765C11.0073 26.4948 10.7977 26.4367 10.5905 26.4218C10.3826 26.4062 10.1864 26.4339 10.0221 26.4937C9.69582 26.6122 9.51701 26.806 9.41076 26.9349C9.3051 27.0672 9.26737 27.1512 9.26562 27.1506C9.26621 27.1518 9.35039 27.1092 9.49901 27.0517C9.64589 26.9982 9.86708 26.9315 10.1022 26.951C10.3373 26.9717 10.5713 27.0776 10.8296 27.2691C10.8929 27.3157 10.9603 27.3692 11.027 27.4233L11.1321 27.5096C11.1635 27.5343 11.2221 27.585 11.2064 27.5763C11.2047 27.5907 11.1925 27.5913 11.1925 27.5913C11.1931 27.5907 11.2053 27.5936 11.2064 27.6074V27.6131C11.2018 27.6172 11.2128 27.6143 11.1855 27.6287L11.0706 27.6948C10.9934 27.7357 10.9214 27.7725 10.8476 27.8082C10.5591 27.9474 10.3048 28.0135 10.0842 27.9876C9.8607 27.9652 9.67143 27.8398 9.55416 27.7397Z" fill="#15594E"/>
<path d="M7.8902 22.1187C7.66262 22.4644 7.43853 22.786 7.25101 23.1375L7.18366 23.2675C7.16508 23.3066 7.13896 23.3636 7.13141 23.3797C7.10877 23.4291 7.08903 23.4815 7.07045 23.5321C7.03388 23.6345 6.99904 23.7386 6.9735 23.8428C6.92241 24.0487 6.89745 24.2616 6.90906 24.464C6.91951 24.6648 6.9706 24.8575 7.05304 25.0071C7.22024 25.3166 7.46059 25.4316 7.60631 25.4874C7.7619 25.5444 7.84666 25.5501 7.84666 25.5519C7.84782 25.5507 7.78338 25.4886 7.69049 25.3689C7.59876 25.2504 7.48671 25.0652 7.4751 24.8443C7.45943 24.6257 7.5378 24.376 7.68294 24.0936C7.71952 24.0217 7.76132 23.9509 7.8037 23.8761L7.8722 23.764C7.88788 23.7375 7.88381 23.7484 7.88788 23.7444L7.89368 23.7438C7.90704 23.7444 7.9082 23.757 7.90762 23.7576C7.90762 23.7576 7.9082 23.7461 7.92271 23.7444C7.91516 23.7283 7.95871 23.787 7.98309 23.8163L8.0603 23.921C8.11255 23.9906 8.15784 24.0556 8.19964 24.1212C8.37322 24.3801 8.46495 24.613 8.47366 24.846C8.48237 25.0779 8.40748 25.2959 8.34826 25.4397C8.2873 25.5847 8.2426 25.6675 8.24376 25.6681C8.24318 25.6669 8.32271 25.6272 8.45566 25.5283C8.58397 25.4265 8.78135 25.2527 8.9114 24.9335C8.97584 24.7724 9.01242 24.5791 9.00661 24.3737C9.00139 24.1678 8.9561 23.9607 8.88585 23.7611C8.8516 23.661 8.80806 23.5626 8.76336 23.4694C8.7413 23.4205 8.71749 23.3745 8.69079 23.3262C8.66234 23.275 8.65421 23.2543 8.59035 23.1559C8.38309 22.832 8.14739 22.4915 7.90704 22.1475L7.8902 22.1187Z" fill="#15594E"/>
<path d="M8.9686 26.6585C8.9686 25.7314 7.51953 25.7314 7.51953 26.6585C7.52011 27.5861 8.9686 27.5861 8.9686 26.6585Z" fill="#15594E"/>
<path d="M0.935817 52.1746C1.03219 51.3038 1.29634 50.296 1.85078 49.3274C2.10041 48.8839 2.41508 48.4513 2.77909 48.0418C3.06472 47.718 3.38577 47.4102 3.73584 47.118C3.91524 46.9685 4.1016 46.823 4.29608 46.6843C4.82613 46.3093 5.37882 45.9918 5.9379 45.7404C6.49001 45.4885 7.06186 45.3067 7.625 45.1652C8.74605 44.8851 9.80151 44.7816 10.6863 44.8126C11.571 44.8425 12.2828 45.018 12.7554 45.2015C13.2309 45.3803 13.4706 45.546 13.4735 45.5397C13.4683 45.5454 13.2889 45.3159 12.8529 45.0139C12.4245 44.7091 11.7185 44.3502 10.7739 44.1442C9.83576 43.9343 8.67116 43.8653 7.4038 44.047C6.77274 44.1391 6.10161 44.2886 5.43513 44.5475C4.76924 44.8028 4.11785 45.1497 3.5042 45.5874C3.45369 45.6214 3.40899 45.6582 3.36197 45.6956C2.98809 45.9711 2.64207 46.2731 2.32741 46.5986C1.67312 47.2791 1.15701 48.043 0.821448 48.8241C0.290238 50.0239 0.183415 51.2158 0.253663 52.1637C0.325652 53.1185 0.55323 53.8496 0.726236 54.3379C0.905048 54.8257 1.03974 55.0788 1.03567 55.08C1.03916 55.08 0.986326 54.7981 0.934076 54.2914C0.884728 53.7863 0.835381 53.0489 0.935817 52.1746Z" fill="#15594E"/>
<path d="M3.05353 45.3234C2.83641 44.7182 2.57167 44.1246 2.28488 43.531C2.14148 43.2325 1.99286 42.9449 1.84597 42.6608C1.76818 42.5118 1.70664 42.3967 1.65033 42.2725C1.58995 42.1488 1.53944 42.0229 1.49067 41.8963C1.30083 41.3896 1.19227 40.8656 1.15105 40.3565C1.07209 39.3413 1.27529 38.4014 1.64104 37.7066C2.00214 37.0071 2.52639 36.5648 2.92929 36.3318C3.3351 36.096 3.60622 36.0298 3.60216 36.0247C3.60332 36.031 3.32872 36.0074 2.84511 36.1363C2.36906 36.2639 1.66484 36.601 1.07558 37.3338C0.48631 38.0545 0.0462475 39.1342 0.00386683 40.3761C-0.0181943 40.9938 0.0526336 41.6507 0.255248 42.307C0.305757 42.4698 0.363232 42.6326 0.431737 42.7965C0.496179 42.9576 0.578038 43.1221 0.641319 43.2561L1.05932 44.1149C1.33915 44.6935 1.60969 45.2532 1.83901 45.7887C1.92319 45.9831 1.99576 46.1741 2.06717 46.3622C2.38125 46.0378 2.72494 45.7358 3.09824 45.4591C3.08198 45.4131 3.06921 45.3682 3.05353 45.3234Z" fill="#15594E"/>
<path d="M2.87844 48.3788L2.96959 48.7176C3.03113 48.9431 3.06654 49.1709 3.08512 49.3952C3.12576 49.8439 3.08396 50.2735 2.99746 50.656C2.82039 51.4251 2.43373 51.9876 2.1034 52.3109C1.77248 52.6399 1.52052 52.7618 1.52748 52.7664C1.52342 52.7595 1.79686 52.7256 2.23286 52.48C2.6648 52.2373 3.25464 51.7294 3.63955 50.8746C3.83055 50.4547 3.97569 49.9554 4.01691 49.4004C4.03781 49.1249 4.03549 48.8344 4.00124 48.5353C3.96466 48.2477 3.92693 47.9894 3.87874 47.6955C3.86597 47.6184 3.84971 47.5361 3.8323 47.455C3.48512 47.7467 3.16408 48.0544 2.87844 48.3788Z" fill="#15594E"/>
<path d="M22.6918 53.8886L22.5432 54.0434L22.419 54.1653C21.9621 54.5892 21.4819 54.9591 20.9931 55.2674C20.0184 55.8863 19.0041 56.2395 18.1397 56.3528C17.2717 56.4713 16.5745 56.366 16.124 56.251C15.6729 56.1342 15.4465 56.0169 15.4453 56.0215C15.4447 56.0169 15.7013 56.0226 16.142 55.9657C16.5838 55.907 17.2061 55.7747 17.8906 55.4624C18.5739 55.1564 19.3141 54.6692 20.0387 54.0094C20.4021 53.6839 20.7626 53.3146 21.1162 52.9114C21.1458 52.878 21.1429 52.8786 21.1417 52.8774V52.8705C21.1412 52.8665 21.14 52.8631 21.1394 52.8596C21.1371 52.8539 21.1336 52.8498 21.1295 52.8475C21.122 52.8429 21.1127 52.8447 21.1081 52.8464L21.1057 52.8475C21.1057 52.8475 21.1116 52.8447 21.1127 52.8378C21.1127 52.8343 21.1121 52.8297 21.1092 52.8251C21.1266 52.8199 20.9258 52.8067 20.8097 52.8027C20.2785 52.7837 19.7734 52.8159 19.306 52.8982C18.3702 53.0609 17.5893 53.4613 17.0151 53.9577C16.434 54.4518 16.0549 55.0034 15.8099 55.3916C15.5667 55.7845 15.4488 56.0232 15.4465 56.0215C15.4494 56.0215 15.4482 55.7603 15.5272 55.2864C15.6148 54.817 15.7815 54.1147 16.2836 53.3416C16.769 52.5691 17.6706 51.765 18.8712 51.3497C19.4657 51.1398 20.1159 51.0161 20.7876 50.9799C20.9705 50.9724 21.0703 50.9655 21.392 50.9753C21.6938 50.9868 21.9946 51.0161 22.2907 51.0558C22.5833 51.0955 22.873 51.1507 23.1389 51.2174L23.9168 51.4354L24.4486 51.5861C24.1334 52.048 23.8611 52.4754 23.5302 52.9194C23.3618 53.1415 23.1778 53.3623 22.9879 53.5769C22.8898 53.6833 22.7923 53.7886 22.6918 53.8886Z" fill="#15594E"/>
<path d="M18.1439 53.6224C19.0601 53.798 18.7895 55.2072 17.8734 55.0352C16.9544 54.8608 17.2249 53.4498 18.1439 53.6224Z" fill="#15594E"/>
<path d="M25.88 56.0026C24.9482 56.0233 24.9139 54.5858 25.848 54.5657C26.7833 54.5455 26.8152 55.9824 25.88 56.0026Z" fill="#15594E"/>
<path d="M28.0894 50.0389C29.3974 50.0072 29.445 52.0195 28.137 52.0477C26.8285 52.0765 26.7843 50.0671 28.0894 50.0389Z" fill="#15594E"/>
<path d="M32.2797 52.556C32.289 52.5548 32.217 53.7133 32.069 54.2689C31.7787 55.1582 31.3845 56.0963 30.8092 56.8113C30.5781 57.0696 30.3261 57.2997 30.0562 57.4901C29.3764 57.979 28.6054 58.2142 27.9058 58.2625C27.2057 58.3091 26.5659 58.2154 26.0114 58.0164C25.4611 57.8156 25.0175 57.4924 24.7122 57.1398C24.0933 56.4173 24.0207 55.6713 24.0219 55.2284C24.0329 54.7722 24.1078 54.5491 24.1014 54.5485C24.1078 54.5479 24.059 54.7866 24.1049 55.2433C24.1542 55.6828 24.3273 56.3943 24.974 56.9718C25.6016 57.5522 26.7186 57.8484 27.9337 57.6074C28.5316 57.4872 29.1314 57.2094 29.6254 56.7434C29.7125 56.6618 29.7897 56.5715 29.8698 56.48C29.8611 56.4777 31.1349 54.908 30.9334 52.7826C30.9311 52.747 31.0786 51.2624 29.9499 50.2701C29.107 49.5304 27.7078 47.7571 22.8294 47.9762C22.7725 48.0746 22.7104 48.1718 22.6448 48.2667C22.5867 48.3467 22.5275 48.4237 22.4613 48.5002C22.4097 48.5595 22.3597 48.6136 22.3092 48.6653C22.4404 48.6659 22.5722 48.6699 22.7034 48.6786C23.3409 48.7286 23.8971 48.9236 24.3934 49.1853C24.8863 49.4522 25.3136 49.8002 25.612 50.2138C25.9197 50.6176 26.0527 51.1393 26.0132 51.4677C25.9842 51.799 25.8936 51.9313 25.9017 51.9342C25.8953 51.9376 25.9139 51.7559 25.8379 51.5108C25.7636 51.2652 25.5273 51.0829 25.2643 50.8505C24.6146 50.2776 23.4518 49.9072 21.7176 49.9101L19.7815 50.0982C19.6921 50.1166 19.6021 50.1327 19.5168 50.1459C18.7655 50.2506 17.5597 50.4542 17.562 50.4588C17.562 50.4554 18.7568 49.8571 19.3763 49.4022C19.7925 49.0973 20.3127 48.6878 20.8457 48.2092C19.9557 48.4082 19.097 48.7436 18.2854 49.1767C17.778 49.4511 17.1469 49.6334 16.625 49.9457C18.2883 48.5313 20.106 47.6328 21.8999 47.1606C21.9673 47.0726 22.037 46.9788 22.1008 46.8822C22.2506 46.6665 22.3841 46.4347 22.4985 46.2063C22.7238 45.7473 22.8706 45.2981 22.8944 44.9225C22.9252 44.5446 22.812 44.2225 22.6936 44.0258C22.5751 43.8244 22.4799 43.729 22.4828 43.7267C22.4822 43.7313 22.5972 43.7261 22.8004 43.8239C22.9955 43.9147 23.3113 44.1793 23.4558 44.7597C23.6045 45.3286 23.5516 46.0602 23.356 46.7488C23.3438 46.7919 23.3281 46.8322 23.3159 46.8719C23.5859 46.835 23.8547 46.8051 24.12 46.7861C30.8045 46.3001 32.2536 51.5379 32.2797 52.556Z" fill="#15594E"/>
<path d="M38.7356 55.5061C40.5551 54.9723 42.6898 54.6991 44.8907 54.9004C45.1479 54.9217 45.4016 54.9493 45.6553 54.981C45.4712 54.8682 45.2733 54.7566 45.0515 54.6577C44.4675 54.3966 43.747 54.2056 42.9191 54.1182C41.2703 53.9473 39.189 54.1584 36.9463 54.8475C36.3797 55.0207 35.8456 55.2392 35.2221 55.4837C34.6073 55.7212 33.9629 55.9536 33.2737 56.1567C32.67 56.331 32.0424 56.492 31.3242 56.5656C31.6766 55.9945 31.964 55.3957 32.1736 54.7727C32.429 54.7296 32.6856 54.683 32.937 54.6295C33.589 54.4846 34.2224 54.3103 34.8389 54.1262C35.4444 53.9416 36.104 53.7431 36.7159 53.6183C39.189 53.1012 41.3859 53.1162 43.1107 53.4993C43.9711 53.6942 44.709 53.9882 45.2866 54.3431C45.6582 54.5697 45.9531 54.817 46.1952 55.0615C47.8904 55.3249 49.4527 55.7747 50.8733 56.117C51.7685 56.3338 52.6162 56.5047 53.415 56.5996C54.2162 56.6962 54.9674 56.7123 55.6536 56.6663C57.0266 56.5789 58.1216 56.2591 58.8612 56.0117C59.602 55.7581 59.9997 55.574 60.0003 55.5774C59.9985 55.5746 59.6345 55.8144 58.9233 56.1636C58.2156 56.5058 57.141 56.9631 55.7123 57.1938C55.0005 57.3082 54.2063 57.3571 53.3575 57.3203C52.5088 57.2858 51.6089 57.1616 50.6864 56.9896C49.5096 56.7704 48.2893 56.4834 47.0242 56.2568C47.03 56.2706 47.0358 56.2838 47.0422 56.2976C47.0184 56.2913 46.9946 56.2867 46.9679 56.2815C46.9598 56.2688 46.9534 56.2568 46.9441 56.2441C46.2428 56.1204 45.5293 56.0152 44.7995 55.9536C42.7182 55.7661 40.7316 55.9559 38.9615 56.3695C37.1855 56.7773 35.5983 57.3381 34.216 57.6712C32.8337 58.0186 31.676 58.1336 30.883 58.1377C30.0905 58.1417 29.6569 58.0767 29.6563 58.0813C29.647 58.0629 31.4392 58.1106 34.0616 57.165C35.3788 56.7146 36.9098 56.0319 38.7356 55.5061Z" fill="#15594E"/>
<path d="M39.6037 52.5721C39.3175 52.4318 38.9297 52.3357 38.4699 52.3207C38.0072 52.3069 37.469 52.3748 36.8733 52.5066C35.6751 52.7614 34.2678 53.3102 32.5041 53.79C32.4884 53.7934 32.4715 53.7969 32.457 53.8003C32.5052 53.5996 32.5412 53.3959 32.5633 53.19C32.5639 53.1859 32.5656 53.1831 32.5662 53.179C32.5673 53.1595 32.5662 53.144 32.5673 53.1278C32.5865 52.9323 32.5958 52.7309 32.5917 52.5244C32.5917 52.5186 32.5894 52.5146 32.5882 52.5094C34.1946 52.2569 35.6292 51.9301 36.8437 51.8628C37.4847 51.8203 38.0652 51.841 38.5575 51.9434C39.0498 52.0417 39.4469 52.2281 39.7186 52.426C39.9921 52.6279 40.1494 52.8304 40.2446 52.9668C40.3393 53.1043 40.3752 53.1819 40.3764 53.1819C40.3752 53.1825 40.3236 53.1106 40.204 52.9921C40.0838 52.8747 39.8911 52.7102 39.6037 52.5721Z" fill="#15594E"/>
<path d="M27.5816 53.0962C27.3262 52.8086 27.1369 52.4939 26.9883 52.1666C27.213 52.5624 27.6269 52.8506 28.226 52.8379C28.7021 52.8276 29.0533 52.6291 29.2809 52.3438C29.4191 52.4307 29.5822 52.502 29.7668 52.5538C30.0112 52.6239 30.2841 52.6562 30.5668 52.6682C30.7068 53.343 30.4647 54.2197 30.4647 54.2197C29.6705 54.0397 28.0699 53.6519 27.5816 53.0962Z" fill="#15594E"/>
<path d="M29.4285 56.2905C29.1144 56.1133 28.8566 55.8348 28.7097 55.4989C28.6331 55.3303 28.5901 55.1497 28.5652 54.9639C28.542 54.7741 28.5408 54.4209 28.1797 54.1016L30.4352 54.6849C30.4288 54.7326 29.9161 55.962 29.5364 56.3491C29.5005 56.3313 29.465 56.3117 29.4285 56.2905Z" fill="#15594E"/>
<path d="M35.2544 47.7129C35.2481 47.7123 35.2602 47.7077 35.2243 47.7123L35.0716 47.7307C34.97 47.7462 34.8736 47.7612 34.7801 47.7784C34.4109 47.8469 34.1247 47.9596 33.9348 48.1385C33.7433 48.3123 33.6544 48.5596 33.6144 48.7362C33.572 48.9128 33.565 49.0227 33.5633 49.0222C33.565 49.021 33.5064 48.9318 33.4425 48.7449C33.3862 48.5608 33.3119 48.2455 33.4704 47.8521C33.5453 47.6622 33.6823 47.4684 33.8617 47.3084C34.0382 47.1474 34.2524 47.0122 34.4817 46.9092C34.5967 46.8557 34.7157 46.8108 34.8382 46.7683C34.898 46.7487 34.9607 46.7309 35.0216 46.7148C35.0431 46.7079 35.1134 46.6935 35.1645 46.6826L35.3351 46.648C35.7978 46.5675 36.2582 46.5445 36.7447 46.5031L36.7349 46.5416C36.5967 47.0306 36.4608 47.5109 36.3209 47.9504C36.2791 48.0839 36.2658 48.1109 36.2373 48.1759C36.2135 48.2363 36.1891 48.2927 36.1636 48.352C36.109 48.4659 36.0515 48.578 35.9848 48.6856C35.8547 48.9025 35.6974 49.1033 35.5122 49.2597C35.3305 49.4174 35.1227 49.5272 34.9311 49.5859C34.5363 49.7021 34.2332 49.6388 34.0428 49.5922C33.8518 49.5376 33.7566 49.4881 33.7554 49.4898C33.7549 49.4881 33.8646 49.4714 34.0422 49.4197C34.2211 49.3708 34.4742 49.2781 34.682 49.0992C34.8893 48.9175 35.0321 48.6546 35.1424 48.2956C35.172 48.2059 35.1975 48.1132 35.2219 48.0131L35.2585 47.8607C35.2684 47.8152 35.2928 47.7267 35.2806 47.7491C35.269 47.7341 35.2579 47.7451 35.2579 47.7451C35.2585 47.7439 35.269 47.7313 35.2597 47.718L35.2544 47.7129Z" fill="#15594E"/>
<path d="M31.8837 49.2507C31.9859 49.3675 32.0602 49.425 32.059 49.4256C32.059 49.4238 31.9667 49.4221 31.8042 49.3738C31.6474 49.3243 31.3873 49.2185 31.1899 48.9159C31.0924 48.7692 31.0256 48.5788 30.9984 48.3774C30.9722 48.1738 30.9838 47.9598 31.0239 47.7521C31.0442 47.6469 31.0698 47.541 31.1011 47.4369C31.1168 47.3863 31.1336 47.3328 31.1551 47.2821C31.1603 47.2655 31.1841 47.2074 31.2004 47.1677L31.2608 47.0336C31.432 46.6735 31.6445 46.3416 31.8547 45.9861L31.8773 46.0102C32.1531 46.3479 32.4225 46.6793 32.6634 46.9922C32.7377 47.0889 32.7482 47.1101 32.7812 47.1619C32.8097 47.2068 32.8376 47.2517 32.8672 47.3C32.9206 47.3943 32.9717 47.4875 33.0158 47.5865C33.1046 47.7838 33.1656 47.9937 33.1853 48.1962C33.2056 48.4016 33.1818 48.6001 33.1284 48.7617C33.0158 49.0902 32.8213 49.2691 32.6942 49.3773C32.563 49.4848 32.4788 49.5239 32.4799 49.5251C32.4776 49.5251 32.5217 49.4434 32.574 49.2915C32.6274 49.1454 32.6872 48.9245 32.6616 48.6915C32.639 48.4586 32.5246 48.2319 32.3249 47.9771C32.2773 47.9149 32.2216 47.8493 32.1653 47.7843L32.0753 47.6825C32.0503 47.6549 32.0004 47.5951 32.0097 47.6106C31.9928 47.6123 31.9928 47.6273 31.9928 47.6273C31.9934 47.6267 31.9905 47.6112 31.976 47.6112L31.9702 47.6123C31.9661 47.6192 31.969 47.6054 31.9551 47.6354L31.8942 47.751C31.8524 47.8252 31.8164 47.9006 31.7838 47.9713C31.6515 48.263 31.5876 48.5167 31.619 48.7353C31.6497 48.9544 31.7798 49.1362 31.8837 49.2507Z" fill="#15594E"/>
<path d="M37.5826 50.7764C37.2418 51.0093 36.9225 51.2371 36.5719 51.431L36.4418 51.5018C36.4029 51.5213 36.3466 51.5484 36.3298 51.5553C36.281 51.5771 36.2282 51.5978 36.1782 51.6197C36.0755 51.6582 35.9722 51.6916 35.8677 51.7204C35.6616 51.7773 35.4473 51.8067 35.243 51.7998C35.0375 51.7946 34.8447 51.748 34.692 51.6692C34.3768 51.5098 34.2554 51.2745 34.1962 51.1307C34.1353 50.9783 34.1277 50.8937 34.126 50.8937C34.1266 50.8931 34.1887 50.9553 34.3135 51.0444C34.4343 51.1324 34.6247 51.2383 34.847 51.2464C35.0676 51.2573 35.3179 51.1739 35.5989 51.0232C35.6703 50.9835 35.7411 50.9426 35.8154 50.8989L35.9274 50.8287C35.9536 50.8126 35.9431 50.8166 35.9472 50.8126V50.8069C35.946 50.7936 35.9333 50.7925 35.9327 50.793C35.9327 50.793 35.9443 50.7919 35.9454 50.7781C35.9623 50.7856 35.9019 50.7407 35.8694 50.7194L35.7626 50.6458C35.6941 50.5957 35.625 50.552 35.56 50.5094C35.2952 50.3455 35.0589 50.2575 34.8232 50.2563C34.5893 50.2535 34.3716 50.3317 34.2282 50.3927C34.083 50.4577 34 50.5037 34 50.5025C34.0012 50.5031 34.036 50.4232 34.1353 50.2891C34.2357 50.1585 34.4029 49.9601 34.7257 49.8237C34.8836 49.7564 35.081 49.7162 35.2859 49.7167C35.492 49.7173 35.7051 49.7564 35.9083 49.8237C36.007 49.8559 36.1063 49.8945 36.2044 49.9394C36.252 49.9601 36.3013 49.9831 36.3478 50.0055C36.4029 50.0354 36.4244 50.0435 36.5248 50.1027C36.8529 50.3029 37.2018 50.529 37.5565 50.7603L37.5826 50.7764Z" fill="#15594E"/>
<path d="M32.9863 49.81C33.9181 49.7876 33.9529 51.2239 33.0182 51.2475C32.0829 51.2676 32.0516 49.8301 32.9863 49.81Z" fill="#15594E"/>
<path d="M7.44411 58.3447C8.32017 58.228 9.33267 57.9461 10.2946 57.3727C10.7365 57.115 11.1655 56.7957 11.5701 56.4241C11.8906 56.1342 12.1937 55.8093 12.4775 55.4555C12.6267 55.2743 12.7701 55.0857 12.9048 54.8901C13.2717 54.3569 13.5765 53.8012 13.818 53.2416C14.059 52.6871 14.2302 52.117 14.3609 51.5562C14.6192 50.4392 14.6993 49.3871 14.6465 48.5128C14.5977 47.6362 14.4044 46.9345 14.2111 46.4697C14.0183 46.0027 13.8459 45.768 13.8517 45.7645C13.8465 45.7691 14.0805 45.9428 14.3945 46.3656C14.7115 46.7867 15.0889 47.4763 15.3194 48.4076C15.5516 49.3365 15.6445 50.4864 15.4912 51.7506C15.4123 52.3788 15.2758 53.0443 15.0297 53.7138C14.787 54.377 14.4543 55.0333 14.0276 55.6511C13.994 55.6994 13.9568 55.7471 13.9208 55.7943C13.6508 56.1711 13.3542 56.5208 13.0337 56.8394C12.362 57.5032 11.6032 58.0336 10.8253 58.385C9.62527 58.9349 8.42584 59.0689 7.46908 59.0206C6.50477 58.9729 5.76282 58.7635 5.26702 58.6001C4.77123 58.4333 4.51288 58.3085 4.51172 58.3108C4.51172 58.3085 4.79677 58.3516 5.31115 58.3954C5.82378 58.4299 6.56573 58.4627 7.44411 58.3447Z" fill="#15594E"/>
<path d="M14.3003 56.0923C14.9168 56.292 15.5212 56.5416 16.1261 56.8149C16.4298 56.9506 16.723 57.0899 17.0132 57.2285C17.1648 57.3038 17.2814 57.3608 17.4086 57.4172C17.5346 57.4707 17.6629 57.5207 17.7912 57.5644C18.3061 57.7416 18.8397 57.8377 19.3511 57.8642C20.3764 57.9228 21.3192 57.6979 22.0118 57.3205C22.7091 56.9466 23.1433 56.4174 23.3698 56.013C23.5979 55.6051 23.6589 55.3353 23.6641 55.3382C23.6571 55.337 23.6844 55.6091 23.5654 56.0918C23.4487 56.5669 23.1259 57.2722 22.4002 57.8728C21.6861 58.4734 20.608 58.933 19.3598 59.0043C18.7375 59.0406 18.071 58.9836 17.4074 58.7978C17.2391 58.7524 17.0742 58.6977 16.9105 58.6362C16.7439 58.5735 16.5761 58.4987 16.4402 58.436L15.5653 58.0431C14.9755 57.779 14.4054 57.5219 13.8602 57.3067C13.6628 57.2273 13.4701 57.1589 13.2773 57.0927C13.5984 56.7746 13.8945 56.4243 14.165 56.0481C14.2115 56.063 14.2562 56.0774 14.3003 56.0923Z" fill="#15594E"/>
<path d="M11.2296 56.3345L10.8859 56.2488C10.6548 56.1936 10.4261 56.1631 10.2003 56.1493C9.74743 56.1217 9.31434 56.1694 8.93175 56.2672C8.16019 56.4593 7.60169 56.8551 7.28297 57.1898C6.95844 57.5275 6.84174 57.7783 6.83594 57.7737C6.84348 57.7771 6.87135 57.5027 7.10938 57.0656C7.34451 56.6325 7.84378 56.036 8.69372 55.6356C9.11579 55.4337 9.61506 55.2819 10.1718 55.2272C10.4522 55.2002 10.7448 55.195 11.0467 55.2232C11.3382 55.256 11.5988 55.2848 11.8961 55.3262C11.9739 55.3371 12.0575 55.3544 12.1399 55.367C11.8531 55.7196 11.5501 56.0417 11.2296 56.3345Z" fill="#15594E"/>
</svg>
