<svg width="256" height="256" viewBox="0 0 256 256" fill="none" xmlns="http://www.w3.org/2000/svg">
<circle cx="128" cy="128" r="128" fill="#F8F8F8"/>
<path d="M48.757 149.513C47.8004 149.755 47.0059 150.203 46.3736 150.858C45.7738 151.532 45.2905 152.287 44.9238 153.122C44.5637 153.983 44.1622 155.116 43.7192 156.52C43.2249 158.048 42.775 159.261 42.3697 160.161C41.9709 161.087 41.3973 161.92 40.6488 162.659C39.9327 163.417 38.9929 163.943 37.8294 164.237C36.5108 164.57 35.2463 164.518 34.0358 164.081C32.8318 163.67 31.7726 162.906 30.858 161.79C29.9758 160.692 29.3322 159.342 28.9274 157.739C28.6532 156.653 28.5114 155.492 28.502 154.257C28.4991 153.048 28.6294 152.093 28.8929 151.394C28.9893 151.122 29.2022 150.931 29.5318 150.82L35.368 149.099L35.4068 149.089C35.5102 149.063 35.5782 149.115 35.6109 149.244C35.6694 149.367 35.6502 149.454 35.5533 149.506C33.6228 150.901 32.1095 152.315 31.0134 153.747C29.9239 155.205 29.5946 156.787 30.0255 158.493C30.3062 159.605 30.8386 160.461 31.6226 161.06C32.4325 161.653 33.5485 161.77 34.9705 161.411C36.1081 161.124 37.0382 160.614 37.7609 159.881C38.49 159.175 39.0443 158.375 39.4238 157.481C39.8098 156.614 40.2565 155.442 40.7639 153.966C41.252 152.523 41.6794 151.383 42.0461 150.548C42.4386 149.706 42.9736 148.939 43.651 148.245C44.3543 147.545 45.2489 147.058 46.3348 146.783C47.6793 146.444 48.9116 146.531 50.0317 147.046C51.1518 147.561 52.0818 148.357 52.8217 149.436C53.594 150.533 54.1466 151.742 54.4796 153.06C54.7016 153.939 54.8331 154.841 54.8741 155.766C54.941 156.684 54.9202 157.473 54.8118 158.133C54.7547 158.56 54.558 158.816 54.2219 158.901L48.9769 160.349C48.8993 160.369 48.828 160.304 48.763 160.156C48.7045 160.033 48.7107 159.949 48.7818 159.904C50.2283 158.988 51.4741 157.931 52.519 156.732C53.5962 155.552 53.9162 154.096 53.4787 152.364C53.1849 151.201 52.6137 150.355 51.7652 149.826C50.9232 149.324 49.9205 149.22 48.757 149.513Z" fill="#E3E3E3"/>
<path d="M37.1877 178.961C36.6212 177.813 36.2518 176.612 36.0794 175.359L29.049 178.829C28.3316 179.183 27.8468 179.526 27.5947 179.859C27.3425 180.192 27.2688 180.614 27.3734 181.128C27.4542 181.653 27.7365 182.406 28.2204 183.386C28.244 183.434 28.184 183.493 28.0406 183.564C27.8971 183.635 27.8135 183.646 27.7899 183.599C27.3651 182.738 27.0466 182.062 26.8345 181.572L25.4895 178.757L24.4446 176.73C24.2436 176.383 23.9897 175.899 23.6829 175.277C23.6475 175.205 23.7015 175.134 23.845 175.063C23.9885 174.992 24.0779 174.993 24.1133 175.065C24.4084 175.662 24.6984 176.069 24.9835 176.285C25.2447 176.513 25.5663 176.593 25.9483 176.523C26.3421 176.477 26.8977 176.278 27.6151 175.923L44.2943 167.692C45.0835 167.302 45.6102 166.923 45.8744 166.555C46.1505 166.211 46.1823 165.823 45.9699 165.393C45.7693 164.986 45.3186 164.495 44.618 163.919L44.5826 163.847C44.5354 163.751 44.5478 163.656 44.6199 163.561C44.7158 163.454 44.7995 163.413 44.871 163.437L49.4675 167.057C49.515 167.093 49.5624 167.158 49.6096 167.254C49.7394 167.517 49.6302 167.868 49.2821 168.308C48.9579 168.736 48.425 169.162 47.6834 169.588C50.3378 170.567 52.1311 172.002 53.0635 173.891C53.5591 174.895 53.7564 175.958 53.6552 177.078C53.5539 178.199 53.1251 179.258 52.3686 180.256C51.6239 181.277 50.582 182.119 49.2428 182.78C47.3537 183.712 45.5987 184.073 43.9779 183.861C42.3689 183.674 40.9824 183.124 39.8184 182.212C38.6783 181.288 37.8014 180.204 37.1877 178.961ZM50.2432 172.696C49.6413 171.476 48.5548 170.57 46.9837 169.977L46.912 170.013L38.3392 174.244C38.0007 175.125 37.8175 175.958 37.7895 176.745C37.7734 177.556 37.9896 178.416 38.438 179.325C39.0281 180.52 40.0084 181.211 41.3789 181.397C42.7734 181.571 44.4988 181.151 46.5553 180.136C48.4445 179.204 49.6907 178.053 50.2941 176.685C50.8975 175.317 50.8805 173.987 50.2432 172.696Z" fill="#E3E3E3"/>
<path d="M54.5715 199.123C54.604 199.165 54.594 199.24 54.5417 199.347C54.5057 199.476 54.4502 199.535 54.3755 199.525C53.0558 199.293 51.9267 198.914 50.9882 198.39C50.0708 197.85 49.2636 197.124 48.5667 196.214C47.5779 194.922 47.0047 193.581 46.8471 192.19C46.7056 190.821 46.9062 189.526 47.4489 188.304C48.0078 187.104 48.8273 186.091 49.9072 185.264C51.1565 184.308 52.535 183.74 54.0426 183.559C55.5503 183.379 57.0058 183.592 58.4091 184.197C59.8498 184.806 61.0727 185.768 62.0776 187.081C63.0501 188.351 63.4968 189.571 63.4176 190.74C63.3384 191.909 62.6953 192.955 61.4884 193.879C60.8743 194.349 60.47 194.457 60.2755 194.203L54.3113 186.477C54.1045 186.602 53.8106 186.81 53.4294 187.102C51.566 188.528 50.4079 190.086 49.9552 191.776C49.5398 193.471 49.9399 195.112 51.1556 196.7C51.6094 197.293 52.0539 197.742 52.4889 198.047C52.9451 198.336 53.6125 198.682 54.4911 199.084L54.5715 199.123ZM60.5671 186.423C59.9674 185.64 59.166 185.229 58.1629 185.191C57.1972 185.158 56.1201 185.462 54.9317 186.103L58.9171 191.112C61.0869 189.384 61.6369 187.821 60.5671 186.423Z" fill="#E3E3E3"/>
<path d="M61.6493 209.704C60.3679 208.537 59.5253 207.265 59.1213 205.886C58.755 204.507 58.7591 203.176 59.1335 201.893C59.5259 200.592 60.171 199.448 61.069 198.462C62.2003 197.22 63.5232 196.441 65.0375 196.125C66.5697 195.79 68.0827 195.851 69.5765 196.31C71.1079 196.768 72.4157 197.49 73.5 198.478C74.4265 199.322 75.0937 200.272 75.5016 201.329C75.9095 202.386 75.8261 203.23 75.2514 203.861C74.9461 204.196 74.5486 204.375 74.0589 204.398C73.5871 204.401 73.1245 204.196 72.6711 203.783C71.922 203.1 71.784 202.163 72.257 200.971C72.5088 200.298 72.6161 199.765 72.5788 199.37C72.5595 198.956 72.3133 198.533 71.8402 198.102C70.9137 197.258 69.7883 197.008 68.4641 197.353C67.1776 197.696 65.8969 198.568 64.6218 199.967C63.1313 201.603 62.2936 203.275 62.1089 204.983C61.9618 206.689 62.6965 208.278 64.313 209.75C64.865 210.253 65.4207 210.633 65.9801 210.89C66.5395 211.147 67.2101 211.361 67.992 211.533L68.0216 211.56C68.0808 211.613 68.1031 211.688 68.0887 211.783C68.0939 211.896 68.0589 211.954 67.9835 211.958C66.6615 211.944 65.502 211.771 64.505 211.44C63.508 211.109 62.5561 210.531 61.6493 209.704Z" fill="#E3E3E3"/>
<path d="M84.6147 201.243C84.0365 200.86 83.6836 200.403 83.5561 199.871C83.4508 199.353 83.5894 198.806 83.972 198.228C84.3399 197.672 84.7752 197.352 85.2779 197.269C85.8175 197.178 86.3764 197.324 86.9546 197.707C87.5105 198.075 87.8412 198.518 87.9465 199.035C88.0665 199.53 87.9426 200.056 87.5747 200.612C87.1921 201.19 86.7421 201.531 86.2247 201.637C85.7296 201.757 85.1929 201.626 84.6147 201.243ZM70.4867 215.924C70.42 215.88 70.4308 215.791 70.519 215.658C70.6073 215.524 70.6849 215.48 70.7516 215.524C71.5077 216.024 72.111 216.2 72.5617 216.05C73.0123 215.901 73.5393 215.37 74.1427 214.458L78.1602 208.387C78.6605 207.631 78.9433 207.035 79.0083 206.598C79.0881 206.139 78.939 205.785 78.5609 205.535C78.2274 205.314 77.7054 205.161 76.9951 205.074L76.9617 205.052C76.8728 204.993 76.8429 204.894 76.872 204.753C76.9011 204.612 76.9637 204.542 77.0598 204.541L83.3423 205.485L83.4645 205.518C83.5534 205.577 83.6056 205.691 83.6209 205.861C83.6733 206.024 83.6774 206.139 83.6332 206.205L83.1697 206.906C82.5071 207.81 81.7564 208.896 80.9176 210.164L76.878 216.269C76.2747 217.18 75.9923 217.873 76.0309 218.346C76.0917 218.834 76.5002 219.328 77.2563 219.828C77.323 219.873 77.3122 219.961 77.2239 220.095C77.1356 220.228 77.0581 220.273 76.9914 220.229C76.4355 219.861 75.998 219.555 75.6792 219.312L73.7665 217.999L71.8097 216.752C71.4836 216.568 71.0426 216.292 70.4867 215.924Z" fill="#E3E3E3"/>
<path d="M96.7927 227.383C96.8896 227.427 96.9224 227.516 96.891 227.648C96.8707 227.756 96.801 227.812 96.6818 227.816L92.1198 227.879C92.0006 227.883 91.8804 227.857 91.7592 227.801C91.3957 227.634 91.1388 227.267 90.9887 226.699C90.8738 226.118 90.9292 225.454 91.1549 224.707L88.9487 225.103C88.1779 225.248 87.5113 225.294 86.9487 225.241C86.4103 225.199 85.8503 225.045 85.2687 224.778C84.275 224.322 83.6173 223.741 83.2955 223.036C83.009 222.318 83.0438 221.571 83.3997 220.795C83.7001 220.141 84.1145 219.686 84.6429 219.429C85.1955 219.184 85.7941 219.063 86.4385 219.065C87.1183 219.054 88.0803 219.1 89.3247 219.202L93.4517 219.511L94.4529 217.33C95.1426 215.828 95.4856 214.665 95.4821 213.842C95.5138 213.005 95.2025 212.437 94.5482 212.137C93.7484 211.769 93.0277 211.805 92.3861 212.244C91.7798 212.67 91.2734 213.23 90.867 213.924C90.1542 215.093 89.2526 215.427 88.162 214.927C87.6288 214.682 87.2845 214.377 87.1292 214.013C86.9981 213.659 87.0159 213.3 87.1828 212.937C87.4943 212.258 88.1945 211.788 89.2835 211.525C90.4079 211.248 91.6286 211.178 92.9457 211.313C94.2981 211.435 95.4105 211.696 96.283 212.097C97.3251 212.575 97.999 213.28 98.3045 214.213C98.6343 215.156 98.4988 216.283 97.8981 217.591L94.8945 224.135C94.5497 224.886 94.4094 225.511 94.4738 226.01C94.5382 226.509 94.8006 226.865 95.2611 227.076C95.6246 227.243 96.1109 227.334 96.7199 227.349L96.7927 227.383ZM91.3492 224.092L91.5161 223.728L93.168 220.129L90.5696 220.037C89.8283 219.99 89.1737 220.042 88.606 220.192C88.0736 220.329 87.6684 220.701 87.3902 221.307C87.1233 221.888 87.0881 222.444 87.2848 222.975C87.5168 223.492 87.8994 223.873 88.4326 224.118C88.8688 224.318 89.396 224.384 90.0143 224.315L91.3492 224.092Z" fill="#E3E3E3"/>
<path d="M99.0052 229.861C98.9282 229.839 98.9116 229.751 98.9552 229.597C98.9988 229.443 99.0591 229.377 99.1361 229.399C99.9827 229.639 100.611 229.623 101.021 229.351C101.437 229.053 101.791 228.391 102.082 227.365L107.653 207.699C107.908 206.801 107.999 206.134 107.929 205.698C107.891 205.244 107.654 204.955 107.218 204.832C106.833 204.723 106.277 204.731 105.548 204.858L105.509 204.847C105.407 204.818 105.348 204.732 105.333 204.589C105.318 204.446 105.343 204.356 105.409 204.319L111.555 203.317L111.72 203.322C111.823 203.351 111.924 203.435 112.023 203.574C112.148 203.72 112.199 203.832 112.178 203.909L105.276 228.27C104.978 229.322 104.92 230.067 105.1 230.507C105.28 230.946 105.807 231.289 106.679 231.536C106.756 231.558 106.773 231.646 106.729 231.8C106.686 231.954 106.625 232.02 106.548 231.998C105.933 231.823 105.436 231.669 105.058 231.534L102.799 230.852L100.556 230.259C100.163 230.175 99.6466 230.043 99.0052 229.861Z" fill="#E3E3E3"/>
<path d="M127.287 234.934C126.621 234.913 126.094 234.696 125.707 234.283C125.32 233.87 125.138 233.33 125.159 232.664C125.18 232.024 125.397 231.525 125.809 231.164C126.22 230.804 126.76 230.635 127.426 230.657C128.119 230.679 128.646 230.883 129.007 231.268C129.368 231.654 129.538 232.166 129.517 232.806C129.495 233.499 129.29 234.039 128.904 234.427C128.519 234.788 127.98 234.957 127.287 234.934Z" fill="#E3E3E3"/>
<path d="M179.352 231.496C179.421 231.448 179.487 231.483 179.551 231.603C179.64 231.716 179.664 231.792 179.62 231.833C178.563 232.485 177.562 232.954 176.618 233.238C174.728 233.807 172.561 233.776 170.116 233.148C167.704 232.537 165.427 231.356 163.285 229.606L162.979 229.698C160.604 230.412 158.32 230.501 156.125 229.964C153.948 229.394 152.065 228.317 150.475 226.735C148.903 225.12 147.779 223.188 147.102 220.941C146.311 218.311 146.299 215.864 147.066 213.6C147.825 211.311 149.097 209.383 150.881 207.816C152.69 206.241 154.68 205.127 156.851 204.474C159.277 203.744 161.582 203.677 163.766 204.273C165.943 204.843 167.797 205.914 169.328 207.486C170.885 209.051 171.978 210.88 172.608 212.974C173.154 214.787 173.29 216.626 173.015 218.49C172.733 220.33 172.092 222.04 171.092 223.622C170.085 225.178 168.801 226.512 167.242 227.621C168.87 229.331 170.697 230.592 172.723 231.402C174.783 232.231 176.553 232.422 178.034 231.976C178.468 231.846 178.907 231.686 179.352 231.496ZM150.786 218.329C151.516 220.755 152.573 222.832 153.956 224.56C155.365 226.28 156.94 227.491 158.683 228.192C160.443 228.859 162.217 228.924 164.005 228.387C165.537 227.926 166.78 227.106 167.734 225.928C168.706 224.716 169.295 223.202 169.501 221.386C169.732 219.562 169.513 217.539 168.844 215.318C168.137 212.968 167.108 210.981 165.755 209.355C164.428 207.721 162.879 206.6 161.109 205.991C159.364 205.374 157.521 205.358 155.58 205.942C153.103 206.687 151.444 208.161 150.603 210.364C149.78 212.533 149.841 215.188 150.786 218.329Z" fill="#E3E3E3"/>
<path d="M192.748 211.162C192.817 211.12 192.908 211.143 193.023 211.229C193.137 211.316 193.174 211.402 193.133 211.489L189.954 216.358L189.838 216.475C189.61 216.613 189.252 216.486 188.766 216.094C188.266 215.68 187.743 215.046 187.195 214.193C186.716 217.007 185.587 218.953 183.807 220.029C182.575 220.774 181.389 220.978 180.249 220.639C179.095 220.277 178.118 219.434 177.317 218.111L174.233 213.011C173.294 211.46 172.471 210.898 171.764 211.326C171.536 211.464 171.272 211.748 170.971 212.179L170.937 212.2C170.846 212.255 170.743 212.239 170.628 212.153C170.513 212.066 170.477 211.98 170.517 211.893L173.643 207.244L173.759 207.127C173.85 207.072 173.98 207.055 174.15 207.078C174.319 207.1 174.424 207.145 174.466 207.214L179.165 214.983C179.938 216.261 180.746 217.081 181.589 217.444C182.441 217.77 183.346 217.644 184.304 217.064C184.874 216.719 185.373 216.23 185.801 215.597C186.251 214.951 186.571 214.243 186.761 213.474L183.2 207.587C182.717 206.789 182.274 206.262 181.87 206.007C181.476 205.716 181.096 205.681 180.731 205.902C180.526 206.026 180.262 206.31 179.938 206.755L179.904 206.776C179.813 206.831 179.71 206.815 179.595 206.729C179.467 206.62 179.441 206.526 179.519 206.448L182.61 201.82C182.642 201.77 182.692 201.724 182.76 201.682C182.852 201.627 182.982 201.611 183.151 201.633C183.321 201.655 183.426 201.701 183.467 201.769L189.078 211.044C189.561 211.843 189.979 212.354 190.332 212.576C190.684 212.799 191.043 212.8 191.409 212.579C191.682 212.414 192.113 211.966 192.7 211.237L192.748 211.162Z" fill="#E3E3E3"/>
<path d="M206.276 198.801C206.355 198.729 206.449 198.734 206.558 198.814C206.65 198.875 206.674 198.961 206.631 199.072L204.906 203.296C204.863 203.407 204.792 203.508 204.693 203.597C204.398 203.867 203.959 203.96 203.378 203.876C202.798 203.755 202.209 203.444 201.609 202.944L201.111 205.129C200.943 205.896 200.725 206.527 200.456 207.024C200.207 207.504 199.847 207.959 199.373 208.39C198.565 209.126 197.774 209.504 196.999 209.525C196.226 209.508 195.552 209.184 194.977 208.553C194.492 208.021 194.235 207.461 194.206 206.875C194.196 206.27 194.318 205.672 194.572 205.08C194.828 204.45 195.246 203.582 195.826 202.477L197.725 198.799L196.109 197.025C194.995 195.803 194.059 195.032 193.3 194.714C192.542 194.358 191.898 194.422 191.365 194.907C190.715 195.5 190.466 196.177 190.619 196.939C190.775 197.664 191.092 198.349 191.571 198.994C192.369 200.107 192.324 201.068 191.437 201.876C191.003 202.271 190.588 202.469 190.192 202.469C189.815 202.451 189.492 202.295 189.223 201.999C188.72 201.447 188.56 200.619 188.744 199.513C188.929 198.371 189.342 197.219 189.981 196.06C190.622 194.863 191.297 193.941 192.007 193.294C192.854 192.522 193.767 192.178 194.745 192.261C195.742 192.326 196.726 192.891 197.696 193.956L202.544 199.278C203.101 199.89 203.622 200.263 204.106 200.399C204.591 200.535 205.02 200.432 205.395 200.091C205.69 199.821 205.964 199.409 206.217 198.855L206.276 198.801ZM201.119 202.525L200.85 202.229L198.183 199.302L197.082 201.657C196.749 202.321 196.541 202.944 196.457 203.525C196.375 204.069 196.559 204.587 197.008 205.08C197.439 205.553 197.937 205.803 198.502 205.829C199.068 205.818 199.569 205.615 200.002 205.219C200.357 204.896 200.624 204.437 200.803 203.841L201.119 202.525Z" fill="#E3E3E3"/>
<path d="M209.424 197.733C209.374 197.795 209.286 197.776 209.162 197.676C209.037 197.576 209 197.494 209.05 197.432C209.602 196.747 209.832 196.162 209.742 195.679C209.631 195.179 209.16 194.594 208.329 193.925L192.406 181.11C191.679 180.525 191.101 180.179 190.672 180.074C190.24 179.931 189.881 180.036 189.597 180.389C189.346 180.701 189.136 181.217 188.968 181.937L188.943 181.968C188.876 182.051 188.774 182.072 188.636 182.03C188.499 181.987 188.426 181.929 188.418 181.854L189.898 175.805L189.967 175.655C190.034 175.572 190.151 175.512 190.317 175.475C190.501 175.417 190.624 175.414 190.686 175.464L210.411 191.339C211.263 192.025 211.926 192.37 212.401 192.376C212.875 192.381 213.397 192.031 213.966 191.325C214.016 191.262 214.103 191.281 214.228 191.382C214.352 191.482 214.39 191.563 214.339 191.626C213.938 192.124 213.602 192.521 213.33 192.816L211.819 194.629L210.396 196.462C210.166 196.79 209.842 197.214 209.424 197.733Z" fill="#E3E3E3"/>
<path d="M202.437 173.052C202.076 173.644 201.631 174.013 201.104 174.16C200.591 174.284 200.039 174.166 199.447 173.805C198.878 173.458 198.542 173.035 198.441 172.535C198.331 171.999 198.456 171.436 198.817 170.844C199.164 170.275 199.594 169.928 200.107 169.804C200.598 169.665 201.128 169.77 201.697 170.117C202.289 170.478 202.647 170.915 202.771 171.428C202.909 171.919 202.798 172.46 202.437 173.052ZM217.628 186.63C217.586 186.698 217.497 186.691 217.361 186.607C217.224 186.524 217.177 186.448 217.218 186.38C217.69 185.606 217.844 184.997 217.678 184.552C217.512 184.107 216.962 183.6 216.029 183.03L209.814 179.239C209.04 178.767 208.433 178.506 207.995 178.457C207.533 178.394 207.184 178.557 206.948 178.944C206.74 179.285 206.606 179.812 206.546 180.525L206.525 180.559C206.469 180.65 206.371 180.684 206.229 180.66C206.088 180.636 206.015 180.576 206.011 180.48L206.723 174.167L206.751 174.044C206.807 173.953 206.919 173.897 207.089 173.875C207.249 173.817 207.363 173.808 207.432 173.85L208.149 174.287C209.077 174.916 210.19 175.626 211.488 176.418L217.737 180.23C218.67 180.8 219.373 181.056 219.844 181C220.329 180.922 220.808 180.495 221.28 179.721C221.322 179.653 221.411 179.66 221.548 179.744C221.684 179.827 221.732 179.903 221.69 179.971C221.343 180.54 221.054 180.989 220.823 181.316L219.58 183.276L218.406 185.277C218.235 185.61 217.975 186.061 217.628 186.63Z" fill="#E3E3E3"/>
<path d="M226.27 163.525C226.302 163.451 226.377 163.411 226.496 163.404C226.626 163.373 226.699 163.404 226.717 163.499C227.185 164.774 227.441 165.899 227.486 166.876C227.506 167.843 227.322 168.779 226.932 169.686C226.48 170.74 225.851 171.529 225.045 172.053C224.225 172.543 223.227 172.535 222.051 172.03L213.745 168.462C212.936 168.115 212.339 168.018 211.954 168.172C211.579 168.301 211.234 168.733 210.918 169.468C210.908 169.493 210.868 169.519 210.798 169.547C210.714 169.54 210.635 169.521 210.561 169.489C210.488 169.458 210.432 169.419 210.393 169.373C210.341 169.293 210.32 169.24 210.33 169.216C211.222 166.871 210.85 164.999 209.216 163.6C209.139 163.509 209.132 163.39 209.195 163.243C209.269 163.072 209.355 163.007 209.453 163.049L212.356 164.296C212.827 163.134 213.404 161.452 214.088 159.25C214.11 159.201 214.229 159.194 214.446 159.229C214.649 159.229 214.861 159.277 215.081 159.372C215.302 159.466 215.501 159.61 215.679 159.803C215.868 159.971 215.93 160.099 215.863 160.186C214.955 161.422 214.08 162.918 213.239 164.675L222.133 168.495C223.088 168.906 223.899 168.978 224.564 168.712C225.216 168.412 225.726 167.833 226.094 166.975C226.536 165.946 226.597 164.826 226.275 163.614L226.27 163.525Z" fill="#E3E3E3"/>
<path d="M218.725 140.565C218.737 140.513 218.821 140.506 218.977 140.543C219.132 140.581 219.204 140.625 219.192 140.677C219.005 141.455 219.155 142.204 219.64 142.924C220.132 143.617 220.958 144.35 222.117 145.121L232.909 152.437C235.175 153.967 236.918 155.331 238.139 156.529C239.361 157.726 240.164 158.837 240.549 159.862C240.96 160.893 241.038 161.94 240.784 163.003C240.61 163.729 240.32 164.25 239.916 164.564C239.531 164.911 239.041 165.012 238.444 164.869C237.926 164.745 237.564 164.48 237.36 164.075C237.175 163.701 237.138 163.281 237.25 162.815C237.325 162.503 237.426 162.253 237.553 162.065C237.713 161.856 237.899 161.654 238.11 161.458C238.328 161.236 238.497 161.043 238.619 160.88C238.746 160.691 238.844 160.454 238.912 160.169C239.055 159.573 238.939 158.969 238.565 158.358C238.222 157.728 237.559 157.007 236.574 156.195C235.596 155.357 234.175 154.304 232.313 153.035L218.393 156.198C217.141 156.502 216.293 156.778 215.849 157.028C215.412 157.253 215.137 157.598 215.025 158.065C215.007 158.143 214.919 158.163 214.764 158.126C214.608 158.088 214.54 158.031 214.558 157.953C214.72 157.279 214.857 156.763 214.97 156.406L215.373 154.899L215.967 152.244C216.035 151.849 216.149 151.314 216.311 150.64C216.329 150.562 216.416 150.542 216.572 150.579C216.728 150.617 216.796 150.674 216.777 150.752C216.61 151.452 216.55 151.986 216.599 152.355C216.628 152.691 216.798 152.896 217.11 152.97C217.343 153.026 217.592 153.017 217.856 152.944L228.796 150.547L221.874 146.132C221.256 145.738 220.713 145.484 220.247 145.372C218.872 145.043 217.977 145.747 217.56 147.484C217.548 147.536 217.464 147.544 217.308 147.506C217.153 147.469 217.081 147.424 217.094 147.373C217.261 146.672 217.402 146.144 217.515 145.787L218.113 143.462L218.437 141.936C218.48 141.645 218.576 141.188 218.725 140.565Z" fill="#E3E3E3"/>
<path d="M228 99L229.796 104.528H235.608L230.906 107.944L232.702 113.472L228 110.056L223.298 113.472L225.094 107.944L220.392 104.528H226.204L228 99Z" fill="#D9D9D9"/>
<path d="M85.5306 58.1119C85.5843 58.0852 85.6512 58.1525 85.7313 58.3137C85.8114 58.4749 85.8245 58.5689 85.7708 58.5956L78.5967 62.1582C78.0055 62.4517 76.3768 61.9374 73.7106 60.6153C71.031 59.2664 67.5952 57.2378 63.4032 54.5297C63.2016 54.6633 62.8993 54.8301 62.4963 55.0303C61.4484 55.5507 60.7028 55.9042 60.2595 56.0908L64.6827 64.998C65.0964 65.8309 65.4638 66.4021 65.7849 66.7116C66.1061 67.0211 66.4881 67.1496 66.931 67.0971C67.4007 67.0313 68.0655 66.7849 68.9253 66.3579C68.9791 66.3312 69.046 66.3985 69.126 66.5597C69.2061 66.7209 69.2193 66.8149 69.1655 66.8416C68.2788 67.2819 67.5736 67.6154 67.0497 67.842L63.9666 69.3228L61.0444 70.8242C60.5203 71.1179 59.8015 71.4916 58.888 71.9453C58.8074 71.9853 58.727 71.9247 58.647 71.7635C58.5669 71.6023 58.5672 71.5017 58.6478 71.4617C59.5076 71.0347 60.0923 70.6606 60.4017 70.3395C60.738 70.005 60.88 69.6163 60.8275 69.1734C60.7886 68.6903 60.569 68.0457 60.1687 67.2396L50.9019 48.5788C50.5016 47.7728 50.1409 47.215 49.8198 46.9055C49.4986 46.5961 49.1032 46.4743 48.6334 46.5401C48.1503 46.579 47.4923 46.8053 46.6593 47.2189C46.6056 47.2456 46.5387 47.1783 46.4586 47.0171C46.3786 46.8559 46.3654 46.7619 46.4192 46.7353L48.5753 45.7148C49.838 45.1547 50.832 44.6946 51.5575 44.3343C52.4711 43.8807 53.4049 43.3667 54.3591 42.7924C54.695 42.5921 55.1116 42.3517 55.6088 42.0713C56.1328 41.7776 56.7173 41.4706 57.3621 41.1504C59.8072 39.9361 61.9284 39.4522 63.7255 39.6986C65.5093 39.9182 66.8015 40.834 67.6021 42.4462C68.3359 43.924 68.6 45.4676 68.3944 47.077C68.1754 48.6596 67.5743 50.1472 66.5911 51.5398C70.3418 53.6967 73.3963 55.3284 75.7546 56.435C78.1129 57.5416 80.0631 58.2311 81.6052 58.5037C83.1474 58.7762 84.4558 58.6456 85.5306 58.1119ZM59.6991 54.9623C60.3974 54.7495 61.2032 54.4163 62.1168 53.9626C63.6752 53.1888 64.5768 52.2051 64.8216 51.0117C65.0799 49.7781 64.7286 48.194 63.7679 46.2594C62.6738 44.0561 61.5975 42.6981 60.539 42.1854C59.4805 41.6727 58.3467 41.7165 57.1376 42.317C56.0628 42.8507 55.3971 43.4325 55.1405 44.0624C54.8838 44.6922 54.989 45.4774 55.456 46.4178L59.6991 54.9623Z" fill="#E3E3E3"/>
<path d="M106.576 50.8771C106.634 50.8634 106.706 50.9081 106.792 51.0112C106.907 51.1075 106.943 51.1917 106.898 51.2638C106.064 52.5688 105.147 53.5852 104.147 54.3129C103.146 55.0406 101.989 55.5586 100.675 55.867C98.8347 56.2987 97.1539 56.2925 95.6322 55.8484C94.1036 55.375 92.8381 54.578 91.8356 53.4574C90.8263 52.3075 90.1435 50.9732 89.7871 49.4545C89.3897 47.7605 89.4465 46.0985 89.9578 44.4687C90.469 42.8388 91.3734 41.4402 92.6711 40.2729C93.9911 39.0696 95.6004 38.2452 97.4988 37.7998C99.3096 37.3749 100.808 37.4549 101.992 38.0397C103.177 38.6245 103.972 39.7785 104.376 41.5017C104.589 42.4071 104.534 42.8975 104.213 42.9729L93.5774 45.5145C93.5961 45.7258 93.6603 46.0651 93.77 46.5324C94.373 49.1026 95.43 50.9809 96.9409 52.1671C98.481 53.3465 100.361 53.6758 102.581 53.155C103.369 52.9699 104.02 52.7247 104.534 52.4193C105.048 52.1138 105.703 51.6212 106.499 50.9415L106.576 50.8771ZM96.0396 39.0666C95.0758 39.2927 94.372 39.9047 93.9281 40.9025C93.4775 41.871 93.3212 43.1094 93.4594 44.6177L99.7913 43.0397C99.4126 41.557 98.9263 40.4693 98.3324 39.7766C97.7385 39.084 96.9742 38.8473 96.0396 39.0666Z" fill="#E3E3E3"/>
<path d="M117.6 37.3889C117.653 38.2573 117.998 38.9878 118.635 39.5804C119.302 40.1712 120.24 40.7756 121.449 41.3937C122.627 41.9836 123.497 42.4569 124.06 42.8136C124.651 43.1385 125.191 43.6317 125.682 44.2933C126.171 44.9249 126.445 45.7198 126.503 46.6781C126.565 47.6962 126.368 48.6699 125.913 49.599C125.459 50.5282 124.739 51.3081 123.756 51.9386C122.77 52.5393 121.574 52.8822 120.166 52.9674C118.519 53.067 116.938 52.757 115.421 52.0373C115.231 51.8685 115.13 51.6943 115.119 51.5146L114.76 47.0732C114.755 46.9833 114.827 46.9339 114.977 46.9248C115.155 46.884 115.26 46.8926 115.294 46.9507C115.864 48.419 116.734 49.6436 117.906 50.6247C119.077 51.6057 120.232 52.0618 121.37 51.9929C121.998 51.9548 122.481 51.7303 122.817 51.3192C123.182 50.9064 123.343 50.3257 123.297 49.577C123.23 48.4691 122.863 47.6197 122.196 47.0289C121.528 46.4081 120.558 45.7906 119.289 45.1761C118.206 44.6706 117.385 44.2545 116.824 43.9278C116.263 43.601 115.753 43.121 115.294 42.4875C114.835 41.8541 114.577 41.0583 114.519 40.1C114.412 38.3333 114.963 37.0076 116.171 36.1229C117.378 35.2083 118.895 34.6958 120.722 34.5852C121.411 34.5435 122.027 34.5513 122.572 34.6085C123.146 34.6639 123.786 34.8055 124.491 35.0334C124.766 35.1069 124.91 35.2634 124.925 35.503C124.97 36.2516 124.991 36.8365 124.986 37.2575L125.077 39.5061C125.082 39.5959 124.995 39.6463 124.816 39.6572C124.636 39.668 124.543 39.6286 124.538 39.5387C124.504 38.9698 124.227 38.3704 123.708 37.7406C123.187 37.0809 122.523 36.535 121.715 36.103C120.938 35.6692 120.145 35.4767 119.336 35.5257C118.108 35.6 117.53 36.221 117.6 37.3889Z" fill="#E3E3E3"/>
<path d="M148.528 50.3054C148.648 50.3172 148.731 50.3857 148.779 50.511C148.857 50.6393 148.848 50.7288 148.753 50.7797C147.539 51.7755 146.384 52.4906 145.286 52.925C144.191 53.3296 143.061 53.4745 141.897 53.3598C140.583 53.2303 139.494 52.8065 138.631 52.0884C137.767 51.3702 137.409 50.2647 137.556 48.7719L138.535 38.8301C138.627 37.9046 138.526 37.2465 138.233 36.8559C137.939 36.4653 137.36 36.2273 136.494 36.142C136.464 36.139 136.424 36.0898 136.373 35.9944C136.352 35.9019 136.346 35.8108 136.355 35.7213C136.367 35.6018 136.39 35.5137 136.426 35.457C136.465 35.3704 136.514 35.33 136.574 35.3359C138.102 35.4262 139.359 35.2184 140.343 34.7125C141.357 34.2096 142.178 33.3711 142.807 32.197C142.878 32.0835 143.003 32.0355 143.182 32.0532C143.391 32.0738 143.49 32.1438 143.478 32.2632L143.125 35.8458C144.86 35.9866 146.814 36.0435 148.987 36.0165C149.046 36.0224 149.094 36.1477 149.131 36.3924C149.2 36.6102 149.221 36.8535 149.194 37.1222C149.165 37.4207 149.076 37.7134 148.927 38.0002C148.811 38.2601 148.695 38.3692 148.578 38.3276C146.679 37.7184 144.82 37.3091 143.002 37.0998L141.956 47.7134C141.844 48.8479 142.045 49.7118 142.559 50.3051C143.104 50.9013 143.853 51.2465 144.809 51.3406C146.003 51.4583 147.211 51.1252 148.434 50.3414L148.528 50.3054Z" fill="#E3E3E3"/>
<path d="M175.434 59.766C175.549 59.7995 175.581 59.9027 175.531 60.0756C175.481 60.2484 175.398 60.318 175.283 60.2845C174.534 60.0664 173.933 59.8759 173.481 59.7129L170.987 58.94L168.382 58.2283C167.942 58.1313 167.347 57.9738 166.598 57.7557C166.541 57.7389 166.537 57.6441 166.587 57.4713C166.638 57.2985 166.692 57.2205 166.749 57.2373C167.642 57.4973 168.306 57.4718 168.74 57.1608C169.212 56.8294 169.615 56.0876 169.951 54.9354L171.762 48.7138C172.215 47.1584 172.262 45.9224 171.904 45.0058C171.546 44.0891 170.763 43.4547 169.553 43.1024C168.862 42.9011 168.1 42.8354 167.267 42.9054C166.463 42.9838 165.716 43.1881 165.026 43.5184L162.346 52.7212C162.011 53.8734 161.939 54.7116 162.13 55.2359C162.358 55.7398 162.918 56.1218 163.811 56.3818C163.927 56.4153 163.959 56.5185 163.909 56.6913C163.858 56.8641 163.776 56.9338 163.66 56.9002C162.911 56.6822 162.311 56.4916 161.858 56.3286L159.365 55.5557L156.76 54.8441C156.32 54.7471 155.725 54.5895 154.976 54.3715C154.918 54.3547 154.915 54.2599 154.965 54.0871C155.015 53.9143 155.069 53.8362 155.127 53.853C156.02 54.113 156.684 54.0875 157.118 53.7765C157.589 53.4451 157.993 52.7033 158.328 51.5512L164.719 29.6027C165.013 28.5946 165.122 27.8452 165.046 27.3544C164.999 26.872 164.745 26.5637 164.284 26.4295C163.881 26.3121 163.287 26.3112 162.504 26.4267L162.461 26.4142C162.374 26.389 162.309 26.2918 162.264 26.1226C162.257 25.933 162.286 25.8322 162.352 25.8202L169.528 24.6758L169.757 24.6955C169.901 24.7374 170.024 24.8514 170.126 25.0373C170.265 25.2029 170.318 25.3433 170.285 25.4585L165.303 42.5679C168.036 40.8015 170.569 40.258 172.902 40.9373C174.457 41.3902 175.534 42.2507 176.134 43.5189C176.77 44.7666 176.854 46.197 176.384 47.81L173.969 56.1054C173.633 57.2576 173.561 58.0958 173.752 58.6201C173.98 59.124 174.541 59.506 175.434 59.766Z" fill="#E3E3E3"/>
<path d="M189.333 67.787C187.696 66.9036 186.457 65.7574 185.615 64.3485C184.814 62.9275 184.425 61.4052 184.449 59.7818C184.488 58.132 184.913 56.5547 185.725 55.0499C186.651 53.3338 187.87 52.1169 189.383 51.3991C190.909 50.6549 192.503 50.3558 194.163 50.5017C195.837 50.6211 197.387 51.0656 198.812 51.835C200.449 52.7185 201.668 53.8707 202.469 55.2917C203.27 56.7128 203.646 58.2279 203.596 59.8371C203.586 61.4341 203.196 62.9454 202.427 64.3711C201.572 65.9551 200.414 67.1538 198.952 67.9671C197.504 68.754 195.922 69.1274 194.205 69.0871C192.515 69.0611 190.891 68.6277 189.333 67.787ZM190.97 67.5966C192 68.1523 193.049 68.0711 194.119 67.3528C195.229 66.6224 196.297 65.3068 197.323 63.406C198.32 61.558 198.938 59.8457 199.175 58.2693C199.412 56.6928 199.326 55.3679 198.917 54.2947C198.521 53.1951 197.888 52.4102 197.017 51.9399C194.905 50.8 192.83 52.1177 190.793 55.8929C189.838 57.6618 189.215 59.3537 188.922 60.9687C188.645 62.5574 188.682 63.9411 189.034 65.1199C189.401 66.2723 190.046 67.0979 190.97 67.5966Z" fill="#E3E3E3"/>
<path d="M28 99L29.7961 104.528H35.6085L30.9062 107.944L32.7023 113.472L28 110.056L23.2977 113.472L25.0938 107.944L20.3915 104.528H26.2039L28 99Z" fill="#D9D9D9"/>
<path d="M83.466 129.77L81.63 131.066C81.906 131.654 82.29 132.2 82.782 132.704C83.274 133.208 83.85 133.61 84.51 133.91C85.182 134.198 85.902 134.342 86.67 134.342C87.246 134.342 87.792 134.252 88.308 134.072C88.836 133.904 89.31 133.658 89.73 133.334C90.15 132.998 90.48 132.59 90.72 132.11C90.96 131.63 91.08 131.084 91.08 130.472C91.08 129.932 90.99 129.458 90.81 129.05C90.642 128.63 90.402 128.27 90.09 127.97C89.79 127.658 89.448 127.394 89.064 127.178C88.692 126.962 88.302 126.782 87.894 126.638C87.258 126.422 86.73 126.212 86.31 126.008C85.89 125.792 85.578 125.57 85.374 125.342C85.17 125.102 85.068 124.826 85.068 124.514C85.068 124.202 85.194 123.932 85.446 123.704C85.698 123.464 86.076 123.344 86.58 123.344C86.964 123.344 87.306 123.422 87.606 123.578C87.906 123.722 88.17 123.92 88.398 124.172C88.638 124.412 88.842 124.682 89.01 124.982L91.026 123.866C90.81 123.422 90.504 122.996 90.108 122.588C89.724 122.168 89.238 121.826 88.65 121.562C88.074 121.286 87.384 121.148 86.58 121.148C85.8 121.148 85.092 121.292 84.456 121.58C83.832 121.856 83.334 122.258 82.962 122.786C82.602 123.302 82.422 123.92 82.422 124.64C82.422 125.24 82.536 125.756 82.764 126.188C82.992 126.608 83.28 126.968 83.628 127.268C83.976 127.556 84.342 127.796 84.726 127.988C85.122 128.168 85.47 128.312 85.77 128.42C86.334 128.636 86.808 128.84 87.192 129.032C87.588 129.212 87.882 129.422 88.074 129.662C88.278 129.902 88.38 130.22 88.38 130.616C88.38 131.072 88.218 131.432 87.894 131.696C87.57 131.96 87.15 132.092 86.634 132.092C86.19 132.092 85.776 131.996 85.392 131.804C85.008 131.612 84.654 131.342 84.33 130.994C84.018 130.646 83.73 130.238 83.466 129.77ZM92.8545 122.516C92.8545 122.888 92.9925 123.2 93.2685 123.452C93.5445 123.704 93.8745 123.83 94.2585 123.83C94.6425 123.83 94.9665 123.704 95.2305 123.452C95.5065 123.2 95.6445 122.888 95.6445 122.516C95.6445 122.132 95.5065 121.82 95.2305 121.58C94.9665 121.328 94.6425 121.202 94.2585 121.202C93.8745 121.202 93.5445 121.328 93.2685 121.58C92.9925 121.82 92.8545 122.132 92.8545 122.516ZM93.1065 125.72V134H95.3745V125.72H93.1065ZM103.195 128.96V134H105.607V128.708C105.607 127.712 105.367 126.938 104.887 126.386C104.407 125.822 103.675 125.54 102.691 125.54C102.103 125.54 101.599 125.666 101.179 125.918C100.771 126.158 100.441 126.512 100.189 126.98V125.72H97.8493V134H100.189V128.96C100.189 128.612 100.255 128.312 100.387 128.06C100.519 127.808 100.711 127.616 100.963 127.484C101.215 127.34 101.503 127.268 101.827 127.268C102.307 127.268 102.655 127.412 102.871 127.7C103.087 127.988 103.195 128.408 103.195 128.96ZM109.668 129.86C109.668 129.392 109.776 128.978 109.992 128.618C110.208 128.258 110.496 127.976 110.856 127.772C111.228 127.556 111.636 127.448 112.08 127.448C112.416 127.448 112.752 127.502 113.088 127.61C113.424 127.718 113.73 127.874 114.006 128.078C114.294 128.27 114.51 128.498 114.654 128.762V126.368C114.366 126.116 113.988 125.918 113.52 125.774C113.064 125.618 112.53 125.54 111.918 125.54C111.042 125.54 110.25 125.72 109.542 126.08C108.846 126.44 108.294 126.944 107.886 127.592C107.49 128.24 107.292 128.996 107.292 129.86C107.292 130.712 107.49 131.468 107.886 132.128C108.294 132.776 108.846 133.28 109.542 133.64C110.25 134 111.042 134.18 111.918 134.18C112.53 134.18 113.064 134.108 113.52 133.964C113.988 133.808 114.366 133.598 114.654 133.334V130.94C114.51 131.204 114.3 131.438 114.024 131.642C113.76 131.834 113.46 131.99 113.124 132.11C112.788 132.218 112.44 132.272 112.08 132.272C111.636 132.272 111.228 132.17 110.856 131.966C110.496 131.762 110.208 131.48 109.992 131.12C109.776 130.76 109.668 130.34 109.668 129.86ZM120.617 134.18C121.613 134.18 122.465 133.988 123.173 133.604C123.893 133.208 124.469 132.62 124.901 131.84L122.867 131.21C122.627 131.606 122.321 131.906 121.949 132.11C121.589 132.302 121.151 132.398 120.635 132.398C120.179 132.398 119.789 132.296 119.465 132.092C119.141 131.888 118.895 131.594 118.727 131.21C118.571 130.826 118.493 130.358 118.493 129.806C118.505 129.23 118.589 128.75 118.745 128.366C118.913 127.97 119.147 127.676 119.447 127.484C119.759 127.28 120.143 127.178 120.599 127.178C120.971 127.178 121.295 127.262 121.571 127.43C121.847 127.598 122.057 127.826 122.201 128.114C122.357 128.402 122.435 128.75 122.435 129.158C122.435 129.242 122.411 129.35 122.363 129.482C122.327 129.602 122.285 129.698 122.237 129.77L122.867 128.942H117.485V130.382H124.901C124.913 130.31 124.919 130.214 124.919 130.094C124.931 129.974 124.937 129.86 124.937 129.752C124.937 128.864 124.769 128.108 124.433 127.484C124.097 126.848 123.605 126.368 122.957 126.044C122.321 125.708 121.547 125.54 120.635 125.54C119.723 125.54 118.931 125.72 118.259 126.08C117.587 126.428 117.065 126.926 116.693 127.574C116.333 128.21 116.153 128.972 116.153 129.86C116.153 130.736 116.333 131.498 116.693 132.146C117.065 132.782 117.587 133.28 118.259 133.64C118.931 134 119.717 134.18 120.617 134.18ZM125.633 130.742H129.395V128.708H125.633V130.742ZM129.84 134H139.974V131.642H134.7L137.976 128.546C138.504 128.066 138.93 127.532 139.254 126.944C139.578 126.356 139.74 125.726 139.74 125.054C139.74 124.598 139.644 124.142 139.452 123.686C139.272 123.23 138.99 122.816 138.606 122.444C138.234 122.06 137.76 121.754 137.184 121.526C136.62 121.286 135.96 121.166 135.204 121.166C134.184 121.166 133.32 121.382 132.612 121.814C131.916 122.234 131.388 122.804 131.028 123.524C130.668 124.244 130.488 125.054 130.488 125.954H133.008C133.008 125.45 133.092 125.006 133.26 124.622C133.44 124.238 133.686 123.944 133.998 123.74C134.322 123.524 134.706 123.416 135.15 123.416C135.462 123.416 135.738 123.47 135.978 123.578C136.218 123.674 136.422 123.806 136.59 123.974C136.758 124.142 136.884 124.334 136.968 124.55C137.052 124.766 137.094 124.988 137.094 125.216C137.094 125.54 137.034 125.852 136.914 126.152C136.794 126.452 136.62 126.752 136.392 127.052C136.164 127.352 135.888 127.676 135.564 128.024L129.84 134ZM144.023 127.7C144.023 127.064 144.083 126.488 144.203 125.972C144.323 125.444 144.497 124.994 144.725 124.622C144.953 124.238 145.223 123.944 145.535 123.74C145.847 123.536 146.195 123.434 146.579 123.434C146.975 123.434 147.329 123.536 147.641 123.74C147.953 123.944 148.223 124.238 148.451 124.622C148.679 124.994 148.853 125.444 148.973 125.972C149.093 126.488 149.153 127.064 149.153 127.7C149.153 128.336 149.093 128.918 148.973 129.446C148.853 129.962 148.679 130.412 148.451 130.796C148.223 131.168 147.953 131.456 147.641 131.66C147.329 131.864 146.975 131.966 146.579 131.966C146.195 131.966 145.847 131.864 145.535 131.66C145.223 131.456 144.953 131.168 144.725 130.796C144.497 130.412 144.323 129.962 144.203 129.446C144.083 128.918 144.023 128.336 144.023 127.7ZM141.521 127.7C141.521 129.032 141.731 130.184 142.151 131.156C142.583 132.128 143.177 132.884 143.933 133.424C144.701 133.952 145.583 134.216 146.579 134.216C147.611 134.216 148.505 133.952 149.261 133.424C150.017 132.884 150.605 132.128 151.025 131.156C151.445 130.184 151.655 129.032 151.655 127.7C151.655 126.368 151.445 125.216 151.025 124.244C150.605 123.272 150.017 122.522 149.261 121.994C148.505 121.454 147.611 121.184 146.579 121.184C145.583 121.184 144.701 121.454 143.933 121.994C143.177 122.522 142.583 123.272 142.151 124.244C141.731 125.216 141.521 126.368 141.521 127.7ZM152.727 134H162.861V131.642H157.587L160.863 128.546C161.391 128.066 161.817 127.532 162.141 126.944C162.465 126.356 162.627 125.726 162.627 125.054C162.627 124.598 162.531 124.142 162.339 123.686C162.159 123.23 161.877 122.816 161.493 122.444C161.121 122.06 160.647 121.754 160.071 121.526C159.507 121.286 158.847 121.166 158.091 121.166C157.071 121.166 156.207 121.382 155.499 121.814C154.803 122.234 154.275 122.804 153.915 123.524C153.555 124.244 153.375 125.054 153.375 125.954H155.895C155.895 125.45 155.979 125.006 156.147 124.622C156.327 124.238 156.573 123.944 156.885 123.74C157.209 123.524 157.593 123.416 158.037 123.416C158.349 123.416 158.625 123.47 158.865 123.578C159.105 123.674 159.309 123.806 159.477 123.974C159.645 124.142 159.771 124.334 159.855 124.55C159.939 124.766 159.981 124.988 159.981 125.216C159.981 125.54 159.921 125.852 159.801 126.152C159.681 126.452 159.507 126.752 159.279 127.052C159.051 127.352 158.775 127.676 158.451 128.024L152.727 134ZM164.048 134H174.182V131.642H168.908L172.184 128.546C172.712 128.066 173.138 127.532 173.462 126.944C173.786 126.356 173.948 125.726 173.948 125.054C173.948 124.598 173.852 124.142 173.66 123.686C173.48 123.23 173.198 122.816 172.814 122.444C172.442 122.06 171.968 121.754 171.392 121.526C170.828 121.286 170.168 121.166 169.412 121.166C168.392 121.166 167.528 121.382 166.82 121.814C166.124 122.234 165.596 122.804 165.236 123.524C164.876 124.244 164.696 125.054 164.696 125.954H167.216C167.216 125.45 167.3 125.006 167.468 124.622C167.648 124.238 167.894 123.944 168.206 123.74C168.53 123.524 168.914 123.416 169.358 123.416C169.67 123.416 169.946 123.47 170.186 123.578C170.426 123.674 170.63 123.806 170.798 123.974C170.966 124.142 171.092 124.334 171.176 124.55C171.26 124.766 171.302 124.988 171.302 125.216C171.302 125.54 171.242 125.852 171.122 126.152C171.002 126.452 170.828 126.752 170.6 127.052C170.372 127.352 170.096 127.676 169.772 128.024L164.048 134Z" fill="#E3E3E3"/>
</svg>
