<svg width="60" height="60" viewBox="0 0 60 60" fill="none" xmlns="http://www.w3.org/2000/svg">
<path d="M49.5126 53.0309C50.1594 54.1669 51.1748 55.3851 52.5396 56.4794C53.2244 57.0238 53.9952 57.5373 54.8684 57.976C55.3062 58.1951 55.7715 58.3937 56.2684 58.5552L56.4884 58.6213L56.8284 58.7132C57.0561 58.7674 57.2844 58.8131 57.5097 58.8444C57.9557 58.9032 58.3794 58.934 58.8423 58.9785L58.8435 58.9688C58.8833 58.5221 58.9307 58.1192 58.9571 57.689C58.9652 57.4711 58.9582 57.2463 58.9366 57.0198C58.9231 56.9051 58.9137 56.7938 58.8968 56.678L58.8693 56.5068L58.85 56.3996C58.744 55.8775 58.5749 55.3925 58.38 54.9378C57.9832 54.03 57.4629 53.25 56.9092 52.5682C55.7925 51.208 54.5243 50.2443 53.3812 49.5996C52.2359 48.9537 51.2093 48.6393 50.5035 48.4938C49.7912 48.3506 49.3933 48.354 49.3944 48.3489C49.3757 48.3614 50.9647 48.7945 52.8247 50.3732C53.7465 51.1509 54.7373 52.2025 55.5801 53.4977C55.998 54.143 56.3807 54.8522 56.6552 55.5991C56.7904 55.9728 56.901 56.3579 56.9642 56.7379L56.9736 56.8001L56.9724 56.7972C56.9713 56.7961 56.9707 56.7978 56.9701 56.7978L56.9666 56.7984C56.9654 56.7984 56.9642 56.7972 56.9642 56.7972C56.9642 56.7972 56.9648 56.7984 56.9648 56.8001L56.9636 56.803L56.9625 56.8047L56.8466 56.7727C56.448 56.6546 56.053 56.5091 55.669 56.3442C54.8977 56.0121 54.1749 55.6133 53.5082 55.1928C52.1785 54.3461 51.0905 53.4001 50.311 52.4946C49.5279 51.5937 49.0755 50.7207 48.8806 50.0714C48.6798 49.4233 48.6904 49.0227 48.681 49.025C48.6921 49.025 48.5552 49.401 48.5815 50.1211C48.6026 50.8394 48.8548 51.8927 49.5126 53.0309Z" fill="#15594E"/>
<path d="M47.8321 48.4218C48.7744 48.4218 48.7744 46.9965 47.8321 46.9965C46.8893 46.9965 46.8893 48.4218 47.8321 48.4218Z" fill="#15594E"/>
<path d="M52.9894 51.6511C51.6702 51.6511 51.6702 53.6472 52.9894 53.6472C54.3086 53.6472 54.308 51.6511 52.9894 51.6511Z" fill="#15594E"/>
<path d="M42.0924 43.5267C42.103 43.586 42.1159 43.667 42.1246 43.6904C42.141 43.7601 42.158 43.832 42.1779 43.9027C42.2159 44.0419 42.2651 44.1783 42.3178 44.3101C42.4272 44.5738 42.5694 44.8214 42.7491 45.0308C42.9253 45.2408 43.1424 45.4052 43.3613 45.5028C43.8061 45.7013 44.1783 45.6351 44.3955 45.5826C44.619 45.521 44.725 45.46 44.7267 45.4617C44.7273 45.46 44.6009 45.4434 44.3955 45.3886C44.193 45.3338 43.9109 45.2209 43.7195 44.9938C43.5222 44.7718 43.4081 44.4414 43.3449 44.0225C43.3303 43.917 43.3186 43.808 43.3092 43.6933L43.2963 43.5181C43.2928 43.4776 43.2975 43.4919 43.2987 43.4844L43.3051 43.4799C43.3209 43.4702 43.3326 43.4822 43.3338 43.4833C43.3332 43.4839 43.3244 43.4702 43.3396 43.4582C43.3174 43.4462 43.4192 43.4753 43.4713 43.489L43.6457 43.5404C43.7604 43.5735 43.8693 43.6077 43.9723 43.6425C44.382 43.7886 44.6793 43.9632 44.8771 44.208C45.0773 44.4511 45.1663 44.7432 45.2172 44.9435C45.2646 45.1495 45.278 45.2734 45.2798 45.2728C45.278 45.2717 45.3436 45.1672 45.4144 44.9527C45.4823 44.7438 45.5718 44.4043 45.4595 43.9552C45.4021 43.7344 45.2856 43.4947 45.113 43.279C44.9386 43.065 44.7179 42.8744 44.4733 42.7169C44.351 42.6365 44.2234 42.5629 44.0929 42.499C44.0267 42.4659 43.9612 42.4328 43.8939 42.4031C43.8166 42.3706 43.7897 42.354 43.637 42.2975C43.1319 42.1161 42.5794 41.9346 42.0205 41.7526L41.9766 41.7395C41.9959 42.2878 41.9976 42.8088 42.0649 43.3355L42.0924 43.5267Z" fill="#15594E"/>
<path d="M42.4332 48.0173C42.4789 48.0384 42.5438 48.0681 42.5637 48.0749C42.624 48.1017 42.682 48.1234 42.7434 48.1439C42.8616 48.1844 42.9828 48.2221 43.1016 48.2495C43.3439 48.3043 43.5915 48.3322 43.8285 48.3105C44.0655 48.294 44.2909 48.229 44.4699 48.128C44.8311 47.9214 44.968 47.6367 45.0347 47.461C45.1026 47.2807 45.1096 47.1774 45.1114 47.178C45.1108 47.1763 45.0371 47.2567 44.8966 47.3685C44.7579 47.4764 44.5373 47.615 44.2797 47.6339C44.0251 47.6572 43.7343 47.5711 43.403 47.4073C43.3199 47.3663 43.238 47.32 43.1508 47.2715L43.0203 47.1934C42.9892 47.1763 43.0015 47.1803 42.9974 47.1751L42.9968 47.1683C42.9974 47.1523 43.0126 47.15 43.0126 47.15C43.0132 47.1512 42.9998 47.15 42.998 47.1335C42.9781 47.1432 43.0483 47.0873 43.0823 47.0604L43.2052 46.9651C43.2865 46.9058 43.3656 46.847 43.4405 46.7968C43.7471 46.5874 44.0193 46.4705 44.2909 46.4585C44.5624 46.4425 44.8147 46.5235 44.985 46.5891C45.1547 46.6588 45.2507 46.709 45.2507 46.7073C45.2489 46.7078 45.2074 46.612 45.0903 46.4585C44.9721 46.3101 44.7725 46.0825 44.3974 45.9381C44.2136 45.8662 43.9848 45.8292 43.7454 45.8406C43.5054 45.8514 43.2596 45.9085 43.0261 45.9975C42.909 46.0431 42.7943 46.0939 42.6826 46.1487C42.6275 46.1783 42.5714 46.208 42.5181 46.2371C42.4549 46.2719 42.4303 46.285 42.315 46.3604C41.9358 46.6131 41.536 46.9012 41.1269 47.1917L41.0977 47.2133C41.498 47.4718 41.872 47.7308 42.2822 47.9402L42.4332 48.0173Z" fill="#15594E"/>
<path d="M46.2312 44.8864C46.381 45.0056 46.4747 45.049 46.4741 45.0501C46.4758 45.0501 46.4267 44.9548 46.3599 44.7882C46.2944 44.6233 46.2183 44.3751 46.2347 44.1097C46.2493 43.8461 46.3646 43.5853 46.5712 43.2972C46.6216 43.2241 46.6795 43.1488 46.738 43.0746L46.8317 42.9582C46.858 42.9234 46.9124 42.8578 46.9013 42.876C46.9206 42.8777 46.9206 42.8909 46.9206 42.8909C46.9206 42.8903 46.923 42.876 46.9382 42.8755L46.9452 42.876C46.9493 42.8806 46.9458 42.8686 46.9628 42.8989L47.0359 43.0278C47.0857 43.114 47.129 43.1979 47.1705 43.2778C47.3297 43.6053 47.4123 43.8935 47.3847 44.14C47.3648 44.3893 47.2302 44.5965 47.1214 44.7294C47.0113 44.8635 46.9347 44.9297 46.9364 44.9303C46.9353 44.928 47.0353 44.9246 47.2144 44.8675C47.3847 44.8059 47.6668 44.6821 47.8688 44.3374C47.9688 44.1702 48.0367 43.9534 48.0537 43.7234C48.073 43.494 48.0508 43.2527 47.9952 43.0153C47.9688 42.896 47.9361 42.7779 47.8957 42.6609C47.8734 42.6033 47.8524 42.5434 47.8295 42.4869C47.8225 42.4675 47.7944 42.4036 47.771 42.3579L47.6996 42.2067C47.493 41.8027 47.2443 41.4312 46.9926 41.0335L46.971 41.0614C46.6842 41.4472 46.3992 41.8261 46.1498 42.1861C46.0749 42.2957 46.0644 42.3197 46.0275 42.3796C45.9977 42.4304 45.9696 42.4846 45.9421 42.5365C45.8847 42.6438 45.835 42.7528 45.7893 42.8652C45.7039 43.0895 45.6436 43.3268 45.6313 43.5585C45.619 43.7908 45.6547 44.0144 45.7244 44.1953C45.8642 44.5657 46.086 44.7665 46.2312 44.8864Z" fill="#15594E"/>
<path d="M37.5622 54.9963L37.7184 55.1435L37.8466 55.2616C38.3166 55.6747 38.8088 56.0313 39.308 56.324C40.3047 56.9168 41.3342 57.2449 42.2074 57.3379C43.0847 57.4372 43.7853 57.3173 44.2371 57.1935C44.6889 57.0686 44.9148 56.9442 44.916 56.951C44.9166 56.9448 44.6579 56.9579 44.2125 56.9082C43.7666 56.8626 43.1362 56.7445 42.4392 56.4495C41.741 56.1614 40.9842 55.6935 40.2392 55.0585C39.8658 54.7407 39.4947 54.3824 39.1295 53.9927C39.0991 53.9607 39.1014 53.9607 39.1026 53.9596V53.9527C39.1032 53.947 39.1043 53.9419 39.1049 53.9396C39.1073 53.9333 39.1108 53.9293 39.1143 53.9276C39.1225 53.923 39.1313 53.9248 39.1359 53.9259L39.1383 53.9265C39.1383 53.9265 39.1324 53.9236 39.1313 53.9168C39.1307 53.9133 39.1313 53.9088 39.1342 53.9036C39.1166 53.8991 39.3221 53.8848 39.4391 53.878C39.9705 53.8472 40.4803 53.8666 40.9538 53.9373C41.9031 54.0794 42.6967 54.4594 43.289 54.9392C43.8848 55.4162 44.2804 55.952 44.5356 56.3325C44.7896 56.72 44.9137 56.9533 44.916 56.951C44.9125 56.9516 44.9084 56.6903 44.8153 56.2219C44.7194 55.7608 44.5327 55.0682 44.0129 54.3093C43.5061 53.5562 42.5767 52.7779 41.3576 52.3922C40.7536 52.1965 40.0958 52.0881 39.4192 52.0698C39.2343 52.0664 39.1336 52.0619 38.8099 52.0784C38.5056 52.0955 38.203 52.1292 37.9057 52.1777C37.6119 52.2239 37.3216 52.285 37.0542 52.3563L36.2758 52.5891L35.7461 52.7522C36.0709 53.2019 36.3577 53.6189 36.6989 54.0526C36.8762 54.2694 37.0641 54.4839 37.2619 54.6922C37.3608 54.796 37.4621 54.8959 37.5622 54.9963Z" fill="#15594E"/>
<path d="M42.1429 54.6307C41.2206 54.8242 41.5284 56.2164 42.4479 56.0257C43.3696 55.8328 43.0624 54.44 42.1429 54.6307Z" fill="#15594E"/>
<path d="M34.3981 57.1612C35.338 57.1612 35.338 55.7359 34.3981 55.7359C33.4558 55.7359 33.4558 57.1612 34.3981 57.1612Z" fill="#15594E"/>
<path d="M32.0341 51.2945C30.7178 51.2945 30.7178 53.2905 32.0341 53.2905C33.3533 53.2911 33.3533 51.2945 32.0341 51.2945Z" fill="#15594E"/>
<path d="M27.868 53.8872C27.8569 53.8861 27.9558 55.0318 28.1203 55.5784C28.4328 56.4536 28.8495 57.3757 29.4465 58.0723C29.6853 58.3228 29.944 58.5459 30.2237 58.7291C30.9173 59.1992 31.7021 59.416 32.4056 59.4457C33.112 59.4799 33.7546 59.3727 34.3089 59.1604C34.8596 58.9499 35.2997 58.6195 35.5988 58.2652C36.2063 57.5332 36.2631 56.7914 36.2519 56.3538C36.2309 55.9008 36.1501 55.6811 36.1565 55.6805C36.1501 55.68 36.2016 55.9162 36.1688 56.3698C36.1285 56.8068 35.9698 57.5166 35.3307 58.1037C34.7109 58.6925 33.5925 59.0132 32.3623 58.801C31.7571 58.6943 31.1461 58.4318 30.6381 57.9805C30.5485 57.9017 30.4684 57.8139 30.3853 57.7249C30.394 57.722 29.0725 56.1923 29.2311 54.0841C29.2329 54.0453 29.0479 52.5767 30.164 51.5702C30.9969 50.817 32.3652 49.0255 37.2867 49.1373C37.3487 49.2326 37.4108 49.3284 37.4822 49.4209C37.5395 49.4962 37.6045 49.5743 37.6694 49.6479C37.7256 49.7061 37.7742 49.7552 37.8286 49.8088C37.694 49.8123 37.5606 49.8191 37.4289 49.8305C36.788 49.8939 36.2344 50.0993 35.7393 50.372C35.2488 50.6447 34.8257 50.9996 34.5342 51.4156C34.2334 51.8258 34.111 52.3427 34.1573 52.6708C34.1942 52.9977 34.2884 53.1278 34.2819 53.1307C34.2866 53.1341 34.2679 52.9515 34.3352 52.7067C34.4048 52.4614 34.639 52.2782 34.8988 52.0415C35.5403 51.4572 36.7014 51.0647 38.452 51.0299L40.4073 51.1719C40.498 51.189 40.5893 51.2062 40.6754 51.2164C41.435 51.3014 42.6547 51.4777 42.6518 51.4817C42.6518 51.4789 41.4345 50.9112 40.8 50.4735C40.371 50.1791 39.8402 49.7872 39.2912 49.3239C40.1931 49.4996 41.0663 49.814 41.8939 50.2254C42.4113 50.4867 43.0515 50.6538 43.5818 50.95C41.8757 49.5863 40.0222 48.7339 38.2056 48.3043C38.133 48.221 38.0633 48.1297 37.9943 48.035C37.8415 47.8216 37.7022 47.595 37.5817 47.3737C37.3411 46.9223 37.1831 46.4813 37.1509 46.1082C37.1111 45.735 37.2182 45.4132 37.3329 45.2152C37.4453 45.0132 37.5389 44.9168 37.536 44.9145C37.5372 44.9191 37.4201 44.9162 37.2211 45.0178C37.0268 45.1125 36.712 45.3812 36.5785 45.9604C36.4445 46.5275 36.5136 47.2521 36.7295 47.9311C36.7418 47.9733 36.7564 48.0133 36.7699 48.0521C36.4983 48.0213 36.2279 47.9973 35.957 47.9847C29.2118 47.6481 27.8727 52.8762 27.868 53.8872Z" fill="#15594E"/>
<path d="M21.43 56.9551C19.5841 56.4655 17.4274 56.2424 15.2133 56.49C14.9517 56.5163 14.6966 56.5494 14.4443 56.5887C14.6275 56.4701 14.8212 56.356 15.0454 56.2527C15.6283 55.9788 16.3499 55.7763 17.1822 55.6724C18.8402 55.4642 20.9407 55.6279 23.218 56.2641C23.7898 56.421 24.3353 56.6264 24.9697 56.8552C25.5948 57.0771 26.2491 57.2923 26.9485 57.4805C27.5607 57.6374 28.1968 57.7864 28.9226 57.8411C28.5544 57.2826 28.2519 56.6943 28.0271 56.0809C27.7684 56.0461 27.5092 56.0056 27.2546 55.956C26.5944 55.8288 25.9518 55.6696 25.3267 55.5001C24.7122 55.3306 24.0403 55.1503 23.4205 55.0397C20.9179 54.5798 18.705 54.6425 16.9762 55.0625C16.1135 55.2742 15.3766 55.5811 14.8019 55.9463C14.4326 56.1791 14.1406 56.4313 13.9018 56.6778C12.1992 56.9784 10.6348 57.4583 9.2103 57.8286C8.31309 58.0625 7.46329 58.2502 6.65972 58.3615C5.85439 58.4745 5.09765 58.5098 4.40704 58.4785C3.01879 58.422 1.90855 58.1281 1.15707 57.8988C0.405588 57.6626 0.00117053 57.4914 0 57.4948C0.00175579 57.4914 0.373984 57.7213 1.09854 58.0528C1.82193 58.374 2.91286 58.8043 4.35729 59.0022C5.07716 59.0975 5.8819 59.1323 6.73639 59.0741C7.59087 59.0216 8.49218 58.8807 9.41807 58.6884C10.5991 58.4459 11.8223 58.1321 13.0924 57.8805C13.0871 57.8942 13.0812 57.9096 13.0754 57.9239C13.0994 57.917 13.1263 57.9119 13.1497 57.9033C13.1573 57.8908 13.1643 57.8788 13.1725 57.8662C13.8772 57.7282 14.593 57.6083 15.3275 57.5307C17.4216 57.2997 19.4278 57.4446 21.2211 57.8166C23.0202 58.1823 24.632 58.7016 26.0355 59.0017C27.4342 59.3138 28.6036 59.4033 29.4025 59.3897C30.2043 59.3771 30.6368 59.3029 30.6374 59.3069C30.6468 59.2887 28.8418 59.3777 26.1771 58.4933C24.8404 58.0785 23.2818 57.436 21.43 56.9551Z" fill="#15594E"/>
<path d="M20.4927 54.0624C20.78 53.9181 21.1657 53.8125 21.6322 53.7902C22.0981 53.7669 22.6388 53.8193 23.2428 53.9375C24.459 54.1634 25.8865 54.678 27.678 55.1128C27.6926 55.1162 27.7078 55.1191 27.723 55.1225C27.6727 54.9274 27.6323 54.726 27.6019 54.5194C27.6013 54.5154 27.5989 54.5132 27.5984 54.5092C27.5966 54.4932 27.5978 54.4766 27.596 54.4612C27.572 54.265 27.5586 54.0653 27.5586 53.8633C27.5586 53.8576 27.5603 53.8536 27.5615 53.8484C25.9386 53.6322 24.4836 53.3395 23.258 53.299C22.6119 53.2733 22.0266 53.3064 21.5327 53.4182C21.0381 53.5261 20.6448 53.7189 20.3756 53.9215C20.1023 54.1275 19.9484 54.3323 19.8547 54.4692C19.7652 54.6084 19.7277 54.686 19.7266 54.6855C19.7277 54.686 19.7816 54.6141 19.8992 54.4938C20.0174 54.3745 20.2059 54.2068 20.4927 54.0624Z" fill="#15594E"/>
<path d="M32.6126 54.3186C32.8637 54.0287 33.0504 53.712 33.1897 53.3839C32.972 53.7811 32.5641 54.0761 31.9601 54.0761C31.4766 54.0761 31.1185 53.8866 30.8832 53.6087C30.7456 53.6983 30.5859 53.7725 30.398 53.8273C30.1534 53.902 29.8795 53.9397 29.5968 53.9608C29.4704 54.6302 29.7343 55.4941 29.7343 55.4941C30.5279 55.2995 32.1333 54.8795 32.6126 54.3186Z" fill="#15594E"/>
<path d="M30.8273 57.5259C31.1398 57.3439 31.3938 57.0603 31.5343 56.7253C31.608 56.5564 31.6467 56.3767 31.6648 56.1918C31.6876 56.0035 31.6806 55.6531 32.0341 55.3284L29.7773 55.9555C29.785 56.0052 30.3287 57.2104 30.7196 57.587C30.7565 57.5681 30.791 57.5487 30.8273 57.5259Z" fill="#15594E"/>
<path d="M24.7592 49.1481C24.7662 49.1476 24.7533 49.143 24.7902 49.147L24.9465 49.1647C25.0483 49.1755 25.1437 49.1881 25.2379 49.2029C25.6119 49.2634 25.9057 49.3689 26.0983 49.5424C26.2978 49.7107 26.3909 49.9543 26.4371 50.1284C26.4816 50.3024 26.491 50.4114 26.4927 50.4102C26.491 50.4091 26.5513 50.3195 26.6086 50.1329C26.6636 49.9492 26.7286 49.6331 26.5635 49.2486C26.4804 49.0614 26.3382 48.872 26.1568 48.7179C25.973 48.5587 25.7541 48.4321 25.52 48.3345C25.4036 48.2843 25.2842 48.2415 25.1583 48.2061C25.0975 48.185 25.0337 48.1685 24.9716 48.1536C24.9511 48.1468 24.8786 48.1348 24.8277 48.1245L24.6538 48.0966C24.1885 48.0247 23.7215 48.0116 23.2305 47.9848L23.241 48.0201C23.3908 48.5023 23.5383 48.9753 23.6911 49.4106C23.7379 49.5424 23.7514 49.5658 23.7789 49.6297C23.804 49.689 23.8327 49.7444 23.8602 49.8026C23.9152 49.9155 23.9784 50.0262 24.0446 50.1324C24.1804 50.3418 24.3466 50.5375 24.5338 50.6887C24.7229 50.8433 24.9353 50.946 25.1296 51.0002C25.5294 51.1063 25.8337 51.0367 26.0251 50.9871C26.2165 50.9289 26.3113 50.8775 26.3125 50.8798C26.3131 50.8781 26.2024 50.8638 26.0193 50.8165C25.8402 50.7714 25.5826 50.6858 25.3696 50.5124C25.1542 50.3372 25.0044 50.0793 24.8856 49.7261C24.8563 49.6405 24.8282 49.547 24.8019 49.4477L24.7592 49.2976C24.7475 49.2525 24.7241 49.1675 24.7346 49.1869C24.7463 49.1744 24.7574 49.1818 24.7574 49.1818C24.7568 49.1812 24.7463 49.171 24.7551 49.155L24.7592 49.1481Z" fill="#15594E"/>
<path d="M28.1956 50.6006C28.092 50.7153 28.0212 50.7769 28.0223 50.7774C28.0217 50.7757 28.1125 50.7717 28.2781 50.7192C28.4344 50.665 28.6925 50.5549 28.8868 50.253C28.9822 50.103 29.0442 49.9147 29.0653 49.7121C29.0863 49.5101 29.0705 49.3012 29.0266 49.0924C29.005 48.988 28.9763 48.8841 28.94 48.7814C28.923 48.7312 28.9049 48.6815 28.885 48.629C28.8792 48.6125 28.8516 48.5554 28.8335 48.5166L28.7703 48.3854C28.5889 48.0316 28.3706 47.7069 28.1482 47.3588L28.1283 47.3862C27.8555 47.7269 27.591 48.059 27.3551 48.3774C27.2855 48.4744 27.2755 48.4949 27.2398 48.5452C27.2123 48.5931 27.1854 48.6382 27.1591 48.6867C27.1046 48.7785 27.0572 48.875 27.0157 48.9743C26.9302 49.1717 26.8705 49.3783 26.8559 49.582C26.8401 49.7857 26.8682 49.9797 26.9291 50.1412C27.0496 50.4619 27.2469 50.6382 27.3797 50.7426C27.5149 50.8465 27.5974 50.8836 27.5968 50.8853C27.598 50.8842 27.5553 50.802 27.4991 50.6559C27.4423 50.5115 27.3744 50.2936 27.3973 50.0619C27.4154 49.8302 27.5254 49.6002 27.718 49.3457C27.7672 49.283 27.8192 49.2168 27.8772 49.1489L27.9626 49.0484C27.9901 49.0176 28.0393 48.96 28.0305 48.976C28.0452 48.9777 28.0452 48.9891 28.0452 48.9891C28.0452 48.9891 28.0469 48.976 28.0615 48.9754L28.0674 48.976C28.0715 48.98 28.0686 48.9691 28.0832 48.9959L28.1499 49.1089C28.1915 49.1843 28.2295 49.2556 28.2664 49.3281C28.4063 49.6117 28.4736 49.8622 28.4472 50.0796C28.4244 50.2993 28.2974 50.4853 28.1956 50.6006Z" fill="#15594E"/>
<path d="M22.4844 52.2362C22.8355 52.4599 23.1598 52.6813 23.5168 52.8639L23.6496 52.9313C23.69 52.9495 23.7468 52.9752 23.7638 52.982C23.8164 53.0049 23.8668 53.0243 23.9183 53.0425C24.0224 53.0785 24.1272 53.1099 24.2337 53.1378C24.4456 53.188 24.6586 53.2126 24.8652 53.2017C25.0724 53.1915 25.265 53.1412 25.4201 53.0596C25.7314 52.8953 25.8485 52.6585 25.9076 52.5147C25.9632 52.3623 25.969 52.279 25.9708 52.279C25.9702 52.2779 25.9093 52.3412 25.7876 52.4325C25.667 52.5227 25.4757 52.6305 25.2515 52.6442C25.0297 52.6596 24.7757 52.5826 24.4883 52.4394C24.4152 52.404 24.3438 52.3629 24.2677 52.3207L24.1535 52.2528C24.1266 52.2374 24.1372 52.2408 24.1331 52.2374V52.2317C24.1342 52.2185 24.1465 52.2174 24.1471 52.2174C24.1471 52.2174 24.1354 52.2168 24.1342 52.2031C24.1173 52.2105 24.177 52.1672 24.2091 52.1432L24.3157 52.0679C24.3836 52.0165 24.452 51.9709 24.517 51.9309C24.7798 51.7603 25.0162 51.6673 25.2533 51.6616C25.4891 51.653 25.7103 51.7267 25.8561 51.7837C26.0042 51.8448 26.0878 51.8893 26.0878 51.8876C26.0873 51.8881 26.0498 51.81 25.9462 51.6776C25.8426 51.5503 25.6694 51.3586 25.341 51.2313C25.1807 51.168 24.9805 51.1321 24.7722 51.1372C24.5662 51.1423 24.3525 51.1863 24.1495 51.257C24.0476 51.2913 23.951 51.3335 23.8539 51.3774C23.8041 51.3991 23.7573 51.4225 23.7111 51.4493C23.6561 51.4767 23.635 51.4853 23.5349 51.5463C23.2089 51.7523 22.8625 51.984 22.5101 52.2202L22.4844 52.2362Z" fill="#15594E"/>
<path d="M27.0951 51.1765C26.1558 51.1765 26.1558 52.6024 27.0951 52.6024C28.038 52.6024 28.038 51.1765 27.0951 51.1765Z" fill="#15594E"/>
<path d="M53.0316 59.0777C52.1461 58.9836 51.1224 58.7234 50.1374 58.1774C49.6868 57.9315 49.2473 57.6222 48.8305 57.2645C48.501 56.9832 48.1885 56.6671 47.893 56.323C47.7396 56.1467 47.5915 55.963 47.4505 55.7719C47.0689 55.2509 46.7458 54.7066 46.4907 54.1566C46.2349 53.6134 46.0505 53.0508 45.906 52.4968C45.621 51.3945 45.5162 50.3555 45.5478 49.4848C45.5806 48.6147 45.7567 47.9146 45.9434 47.4496C46.1249 46.9817 46.294 46.7455 46.287 46.7427C46.2928 46.7472 46.0623 46.9247 45.7526 47.3509C45.4454 47.7748 45.0808 48.4698 44.8683 49.3975C44.6547 50.3213 44.5874 51.467 44.7694 52.7142C44.863 53.335 45.0152 53.9951 45.2786 54.6513C45.5384 55.3057 45.8908 55.947 46.335 56.5507C46.3695 56.6009 46.4076 56.6443 46.445 56.6905C46.7254 57.0585 47.0326 57.3991 47.3627 57.7084C48.0545 58.3525 48.8311 58.8586 49.6259 59.1907C50.848 59.7128 52.0559 59.8178 53.0199 59.7493C53.9908 59.678 54.7335 59.4543 55.2298 59.2843C55.7261 59.108 55.9836 58.9767 55.9848 58.9796C55.9842 58.9767 55.698 59.0281 55.183 59.0794C54.6697 59.1279 53.9206 59.1764 53.0316 59.0777Z" fill="#15594E"/>
<path d="M46.0721 56.9952C45.4553 57.2086 44.8513 57.4694 44.2479 57.7513C43.9447 57.8928 43.6521 58.0389 43.3653 58.1833C43.2114 58.2597 43.0949 58.3202 42.9685 58.3761C42.8426 58.4349 42.7145 58.4846 42.5857 58.5331C42.0707 58.7197 41.5381 58.8269 41.0236 58.8663C39.9883 58.945 39.0332 58.7453 38.3297 58.3841C37.6162 58.0298 37.1662 57.5145 36.9291 57.1185C36.6903 56.7196 36.623 56.4531 36.6172 56.456C36.6242 56.4548 36.6031 56.7253 36.7337 57.2006C36.8618 57.6691 37.203 58.3624 37.9504 58.9422C38.6808 59.522 39.7782 59.9545 41.04 59.9961C41.668 60.0178 42.3352 59.9476 43.0036 59.7491C43.1686 59.7 43.3343 59.6424 43.5005 59.575C43.6643 59.5117 43.8317 59.4312 43.9704 59.369L44.8431 58.9576C45.4283 58.6831 45.9978 58.4161 46.5415 58.1907C46.7387 58.1079 46.9336 58.0366 47.125 57.9664C46.7973 57.6577 46.4882 57.3193 46.2073 56.9518C46.1611 56.9673 46.1154 56.9798 46.0721 56.9952Z" fill="#15594E"/>
<path d="M49.1743 57.1662L49.519 57.0766C49.7508 57.0162 49.9796 56.9814 50.2073 56.9631C50.6632 56.9232 51.101 56.9642 51.489 57.0498C52.2709 57.2238 52.8422 57.6044 53.1711 57.9291C53.5053 58.2549 53.6293 58.5025 53.634 58.4956C53.627 58.4996 53.5931 58.2309 53.3426 57.8024C53.0956 57.3773 52.5794 56.7971 51.7138 56.4176C51.2836 56.2288 50.7768 56.0873 50.212 56.0462C49.9316 56.0262 49.6367 56.0279 49.3329 56.0622C49.0403 56.0981 48.7781 56.1352 48.479 56.1826C48.4012 56.1945 48.3175 56.2111 48.2344 56.2254C48.5323 56.57 48.8448 56.8849 49.1743 57.1662Z" fill="#15594E"/>
<path d="M54.7734 37.6769L54.9279 37.823L55.052 37.9457C55.4827 38.3953 55.8585 38.8671 56.1722 39.3481C56.8013 40.3073 57.1601 41.3046 57.2754 42.1547C57.3959 43.0083 57.2883 43.6941 57.1718 44.1375C57.0536 44.5814 56.9342 44.8039 56.9383 44.805C56.9336 44.8056 56.9394 44.5528 56.8821 44.1169C56.8224 43.685 56.6878 43.0734 56.3706 42.3995C56.0598 41.7251 55.5641 40.9965 54.8939 40.2833C54.5638 39.9261 54.1881 39.5729 53.7778 39.226C53.7445 39.1947 53.7445 39.1969 53.7433 39.1981L53.7369 39.1986C53.7328 39.1998 53.7287 39.2004 53.7258 39.2009C53.7199 39.2032 53.7158 39.2066 53.7135 39.2101C53.7088 39.2203 53.7105 39.2295 53.7117 39.234L53.7129 39.2363C53.7129 39.2363 53.71 39.2312 53.7029 39.23C53.6994 39.2295 53.6947 39.2306 53.6901 39.2334C53.6848 39.2135 53.6731 39.4143 53.6678 39.5284C53.6479 40.0488 53.6813 40.548 53.7644 41.0056C53.93 41.9288 54.3368 42.6968 54.8413 43.2622C55.3428 43.8334 55.9041 44.2065 56.2992 44.4473C56.6989 44.6869 56.9412 44.8022 56.9389 44.805C56.9394 44.8022 56.6731 44.8033 56.1915 44.7229C55.7151 44.6396 55.0005 44.473 54.215 43.9817C53.4325 43.5041 52.6126 42.6169 52.1906 41.4358C51.977 40.851 51.8512 40.212 51.8143 39.5501C51.8067 39.371 51.7996 39.2728 51.8096 38.9544C51.8219 38.6595 51.8512 38.3611 51.8915 38.0723C51.9319 37.7842 51.9887 37.5001 52.056 37.2376L52.2772 36.4725L52.43 35.9493C52.8999 36.2597 53.3342 36.5273 53.786 36.8536C54.0114 37.0185 54.2355 37.2005 54.4532 37.3865C54.5621 37.4824 54.6692 37.5782 54.7734 37.6769Z" fill="#15594E"/>
<path d="M54.503 42.1497C54.681 41.2456 56.1137 41.5138 55.9381 42.4163C55.7631 43.3205 54.328 43.0522 54.503 42.1497Z" fill="#15594E"/>
<path d="M56.9214 34.5374C56.9425 35.457 55.4816 35.4883 55.4612 34.571C55.4407 33.6509 56.9009 33.6195 56.9214 34.5374Z" fill="#15594E"/>
<path d="M50.8597 32.3651C50.8281 31.0812 52.873 31.0344 52.9011 32.3212C52.9304 33.6091 50.8884 33.6525 50.8597 32.3651Z" fill="#15594E"/>
<path d="M53.418 28.2431C53.4168 28.234 54.5944 28.3025 55.1592 28.4508C56.0628 28.7361 57.0162 29.1218 57.7431 29.6901C58.0059 29.9172 58.24 30.1648 58.4331 30.4307C58.93 31.1 59.1688 31.8577 59.218 32.5463C59.2654 33.235 59.17 33.8649 58.9675 34.407C58.7632 34.9518 58.4349 35.3878 58.0767 35.6879C57.3422 36.2967 56.5837 36.3686 56.136 36.3668C55.6707 36.356 55.4442 36.2824 55.4436 36.2887C55.443 36.2824 55.6859 36.3275 56.15 36.2853C56.5966 36.2362 57.3199 36.0662 57.907 35.4294C58.4969 34.8121 58.7977 33.7137 58.5537 32.5178C58.4308 31.9301 58.1487 31.3396 57.6752 30.8535C57.5927 30.7679 57.5008 30.6891 57.4077 30.6127C57.4054 30.6212 55.81 29.3654 53.6498 29.5663C53.6129 29.5691 52.1041 29.4236 51.098 30.5345C50.3442 31.3636 48.5416 32.7375 48.7675 37.5365C48.8641 37.5953 48.963 37.654 49.0595 37.7208C49.1409 37.7756 49.2193 37.8366 49.2966 37.9011C49.3574 37.9524 49.4113 37.9987 49.4645 38.0506C49.4651 37.9216 49.4692 37.7915 49.478 37.6632C49.5289 37.0338 49.7267 36.4889 49.996 36C50.2646 35.5156 50.6181 35.0951 51.0383 34.8012C51.4492 34.4988 51.9794 34.3682 52.3136 34.4035C52.6495 34.4349 52.7847 34.5211 52.7871 34.5148C52.7906 34.5194 52.6062 34.5045 52.3569 34.5787C52.107 34.6494 51.9221 34.8817 51.685 35.1401C51.1027 35.782 50.7293 36.9232 50.7322 38.632L50.9207 40.5365C50.94 40.6244 50.9564 40.714 50.9687 40.7973C51.0746 41.5367 51.2818 42.7229 51.287 42.7201C51.2835 42.7201 50.6754 41.5453 50.2131 40.9354C49.9029 40.5234 49.4868 40.0145 49.0004 39.4901C49.2029 40.3654 49.5441 41.2098 49.9842 42.0086C50.2628 42.5078 50.4484 43.1286 50.7656 43.6399C49.3282 42.0063 48.414 40.2182 47.9347 38.4528C47.8451 38.3867 47.7497 38.3182 47.6543 38.2531C47.4325 38.1082 47.1972 37.977 46.9649 37.8646C46.4978 37.6404 46.0419 37.4983 45.6597 37.4749C45.2764 37.4446 44.9516 37.5559 44.7485 37.6729C44.5442 37.7893 44.4477 37.88 44.4453 37.8771C44.45 37.8783 44.4441 37.7647 44.5436 37.5673C44.6361 37.3762 44.9053 37.0641 45.4953 36.9203C46.0741 36.7765 46.8174 36.8284 47.5174 37.0213C47.5613 37.0327 47.6016 37.0458 47.6426 37.0584C47.6052 36.7936 47.5747 36.5306 47.5554 36.2699C47.0591 29.6947 52.3827 28.2688 53.418 28.2431Z" fill="#15594E"/>
<path d="M56.417 21.8923C55.8751 20.1025 55.5965 17.9999 55.8013 15.8346C55.823 15.5824 55.8511 15.3325 55.885 15.0855C55.7691 15.2663 55.6556 15.458 55.5549 15.6794C55.2898 16.254 55.0961 16.9632 55.0071 17.7774C54.8327 19.3989 55.0475 21.4456 55.7486 23.6531C55.9248 24.2077 56.1466 24.7354 56.3954 25.3494C56.6365 25.9542 56.8735 26.5881 57.0789 27.2665C57.2563 27.8604 57.4202 28.4778 57.4945 29.1842C56.9139 28.8378 56.3052 28.5548 55.672 28.3488C55.6281 28.0972 55.5807 27.845 55.5268 27.598C55.3788 26.9567 55.202 26.3336 55.0147 25.7271C54.8274 25.1314 54.6255 24.4827 54.4985 23.8773C53.973 21.4456 53.9882 19.2854 54.3774 17.5891C54.5758 16.7424 54.8743 16.0166 55.2348 15.4483C55.4654 15.0832 55.717 14.7928 55.9652 14.5543C56.2327 12.8871 56.6903 11.35 57.038 9.94924C57.258 9.07171 57.4319 8.23754 57.5278 7.44902C57.6256 6.66335 57.6426 5.92504 57.5957 5.24892C57.5068 3.89839 57.182 2.82173 56.9297 2.09369C56.6722 1.36393 56.4861 0.970814 56.4896 0.970243C56.4861 0.971955 56.7295 1.3297 57.0848 2.02921C57.4324 2.72816 57.8971 3.78599 58.1312 5.18844C58.2477 5.88852 58.298 6.67248 58.26 7.50779C58.2249 8.34309 58.0996 9.22576 57.9235 10.1358C57.7011 11.2906 57.409 12.4905 57.179 13.7384C57.1925 13.7321 57.2059 13.7264 57.22 13.7207C57.2136 13.7435 57.2089 13.7675 57.2042 13.7909C57.1913 13.7988 57.1796 13.8057 57.1661 13.8142C57.0403 14.5052 56.9332 15.2087 56.8729 15.9271C56.6816 17.972 56.8741 19.9296 57.2943 21.6709C57.7093 23.418 58.2787 24.9791 58.6176 26.3393C58.9711 27.6961 59.0882 28.8378 59.0917 29.6155C59.0963 30.3983 59.0296 30.8217 59.0343 30.8222C59.0156 30.8325 59.0647 29.0712 58.1032 26.4882C57.6455 25.1919 56.9514 23.6885 56.417 21.8923Z" fill="#15594E"/>
<path d="M53.4369 21.0414C53.293 21.3227 53.1958 21.7016 53.1818 22.1569C53.1665 22.6122 53.235 23.1388 53.3696 23.7259C53.6283 24.9076 54.1861 26.2918 54.6742 28.0269C54.6777 28.0411 54.6812 28.056 54.6847 28.0714C54.481 28.0257 54.2733 27.9904 54.0643 27.9681C54.0602 27.967 54.0579 27.9653 54.0538 27.9653C54.0345 27.9641 54.0181 27.9653 54.0017 27.9635C53.8027 27.9424 53.5985 27.9327 53.3884 27.9373C53.3825 27.9373 53.3778 27.9396 53.3731 27.9401C53.1168 26.3614 52.7844 24.9487 52.7159 23.7539C52.6726 23.124 52.6966 22.5523 52.7978 22.0679C52.8979 21.5829 53.087 21.1955 53.2883 20.9279C53.4937 20.6592 53.6991 20.5017 53.8378 20.4104C53.9777 20.3174 54.0573 20.2797 54.0561 20.2786C54.0567 20.2792 53.9842 20.3334 53.863 20.4509C53.743 20.569 53.5762 20.7556 53.4369 21.0414Z" fill="#15594E"/>
<path d="M53.9681 32.865C53.6789 33.1172 53.3565 33.3038 53.0234 33.4471C53.4255 33.2268 53.7187 32.8216 53.7053 32.2322C53.6947 31.7608 53.4934 31.415 53.2037 31.1942C53.2921 31.0556 53.3646 30.8981 53.4167 30.716C53.4881 30.4758 53.5209 30.2047 53.5332 29.9291C54.2191 29.791 55.1099 30.0296 55.1099 30.0296C54.9273 30.8073 54.5346 32.384 53.9681 32.865Z" fill="#15594E"/>
<path d="M57.2135 31.0459C57.0338 31.3574 56.7511 31.6119 56.4087 31.7557C56.2372 31.8311 56.054 31.8733 55.865 31.895C55.6725 31.9207 55.3131 31.9224 54.9883 32.2773L55.5812 30.0587C55.6303 30.065 56.8793 30.5666 57.2732 30.9403C57.2556 30.978 57.2357 31.0128 57.2135 31.0459Z" fill="#15594E"/>
<path d="M48.4947 25.3136C48.4941 25.321 48.4894 25.3079 48.4941 25.3461L48.5157 25.4962C48.5286 25.596 48.5438 25.6913 48.5614 25.7798C48.6346 26.1433 48.7452 26.428 48.9278 26.6112C49.1045 26.8023 49.3556 26.8897 49.5353 26.9296C49.715 26.969 49.8262 26.9758 49.8256 26.977C49.825 26.9752 49.7349 27.0357 49.5441 27.0962C49.3562 27.1544 49.0366 27.2246 48.6392 27.0717C48.4438 26.9952 48.2465 26.86 48.0838 26.6865C47.92 26.5102 47.7853 26.3025 47.6777 26.0765C47.6232 25.9635 47.577 25.846 47.5378 25.7256C47.5149 25.6645 47.4968 25.6052 47.4804 25.5424C47.4734 25.523 47.4588 25.4545 47.4471 25.4026L47.4149 25.2365C47.3306 24.7812 47.3072 24.3258 47.2656 23.8471L47.3048 23.8568C47.8023 23.9926 48.2904 24.129 48.737 24.2665C48.8733 24.3076 48.8997 24.3207 48.9664 24.3458C49.0279 24.3715 49.0852 24.396 49.1455 24.4211C49.2625 24.4719 49.3773 24.5312 49.4844 24.594C49.7044 24.7247 49.9087 24.8793 50.0679 25.0591C50.2282 25.2405 50.34 25.4448 50.3997 25.6337C50.5173 26.0189 50.453 26.3202 50.4056 26.505C50.3535 26.6956 50.2996 26.7892 50.302 26.7904C50.3008 26.7909 50.2832 26.6831 50.2317 26.505C50.1802 26.3327 50.0872 26.0834 49.9046 25.8785C49.7202 25.6719 49.4528 25.5316 49.0881 25.4226C48.9968 25.3963 48.9032 25.3712 48.8014 25.3472L48.6463 25.309C48.6 25.2987 48.5117 25.2776 48.5327 25.2873C48.5198 25.2987 48.528 25.309 48.528 25.309C48.5275 25.3084 48.5169 25.2987 48.5005 25.3073L48.4947 25.3136Z" fill="#15594E"/>
<path d="M50.0573 28.6336C50.1755 28.5297 50.237 28.4595 50.2376 28.4607C50.2358 28.4601 50.2323 28.5497 50.182 28.7117C50.1316 28.8658 50.024 29.1197 49.7167 29.316C49.5674 29.4119 49.3761 29.4775 49.1689 29.5021C48.9629 29.53 48.7446 29.5186 48.5333 29.4787C48.4262 29.4598 48.3191 29.4347 48.2131 29.4034C48.1611 29.3851 48.1072 29.3685 48.0557 29.3503C48.0387 29.3451 47.9796 29.3218 47.9392 29.3058L47.8035 29.2441C47.4377 29.0775 47.1 28.8687 46.7383 28.6593L46.7629 28.6393C47.1058 28.3682 47.4429 28.1029 47.7613 27.8661C47.8591 27.793 47.8801 27.7828 47.9334 27.7497C47.979 27.7211 48.0276 27.6915 48.0739 27.6646C48.1693 27.6122 48.2664 27.5608 48.3647 27.5191C48.5655 27.4313 48.7785 27.3713 48.9845 27.3497C49.1935 27.3297 49.3954 27.3548 49.5593 27.4084C49.8934 27.5197 50.0749 27.7074 50.1849 27.8353C50.2943 27.9648 50.3341 28.0447 50.3359 28.0435C50.3353 28.0447 50.2522 28.0047 50.0983 27.9511C49.949 27.9009 49.7249 27.8421 49.4878 27.8672C49.2537 27.8895 49.0208 28.0025 48.7639 28.1959C48.6983 28.245 48.6345 28.2975 48.5661 28.3557L48.4625 28.4441C48.4344 28.4687 48.3735 28.5172 48.3922 28.5086C48.394 28.5229 48.4057 28.5229 48.4063 28.5229C48.4051 28.5223 48.3922 28.5246 48.3922 28.5394L48.3928 28.5446C48.3975 28.5491 48.3864 28.5457 48.4145 28.5628L48.5315 28.6227C48.607 28.6615 48.6837 28.6998 48.7574 28.7317C49.053 28.8624 49.3105 28.9252 49.5329 28.8915C49.7565 28.8635 49.9408 28.7357 50.0573 28.6336Z" fill="#15594E"/>
<path d="M51.6076 23.023C51.8446 23.3608 52.0782 23.6752 52.273 24.0199L52.345 24.1482C52.3649 24.1865 52.3924 24.2418 52.3995 24.2584C52.4217 24.3069 52.4439 24.3554 52.465 24.4079C52.5048 24.5089 52.5388 24.6105 52.5692 24.7109C52.6254 24.9163 52.6552 25.1269 52.6482 25.3277C52.6429 25.5275 52.5955 25.7192 52.5153 25.8698C52.3532 26.1802 52.1139 26.2995 51.9681 26.3583C51.813 26.4176 51.727 26.4256 51.7276 26.4268C51.7264 26.4268 51.7902 26.3629 51.8809 26.2419C51.9705 26.1232 52.0787 25.9366 52.0863 25.7175C52.0975 25.5006 52.0126 25.2547 51.8599 24.9779C51.8189 24.9072 51.7779 24.8353 51.7334 24.7645L51.6614 24.6544C51.6451 24.6287 51.6492 24.639 51.6451 24.635H51.6392C51.6257 24.6361 51.6246 24.6487 51.6252 24.6493C51.6252 24.6493 51.6246 24.6373 51.6099 24.6367C51.6176 24.6207 51.5719 24.6795 51.5497 24.7092L51.4747 24.8147C51.4244 24.8849 51.3788 24.95 51.3384 25.0167C51.1692 25.2769 51.0797 25.5098 51.0791 25.7414C51.0762 25.9714 51.1558 26.186 51.2202 26.3269C51.2839 26.4701 51.3319 26.5512 51.3296 26.5512C51.3302 26.5506 51.2482 26.5129 51.1125 26.4182C50.9802 26.3195 50.7777 26.1523 50.6396 25.8373C50.5711 25.6821 50.5295 25.4881 50.5313 25.2844C50.5313 25.0806 50.5717 24.8735 50.639 24.6738C50.6718 24.5739 50.7104 24.4758 50.7566 24.3822C50.7777 24.3326 50.8011 24.2869 50.8239 24.2407C50.8544 24.187 50.8626 24.1665 50.9228 24.0672C51.1259 23.742 51.3559 23.3984 51.5912 23.0526L51.6076 23.023Z" fill="#15594E"/>
<path d="M50.6252 27.5491C50.6042 26.6296 52.0621 26.5976 52.0855 27.5177C52.1059 28.4345 50.6457 28.4687 50.6252 27.5491Z" fill="#15594E"/>
<path d="M59.3019 52.6771C59.1831 51.815 58.8969 50.8188 58.3134 49.8699C58.0518 49.4386 57.7281 49.0163 57.35 48.6181C57.0551 48.3026 56.7244 48.0047 56.365 47.7252C56.1813 47.5779 55.9893 47.4376 55.7903 47.3046C55.2483 46.9441 54.6836 46.6411 54.1147 46.4043C53.5528 46.1675 52.9723 46.0009 52.4016 45.872C51.2662 45.6181 50.1969 45.5387 49.3079 45.5912C48.4171 45.6386 47.7043 45.8297 47.232 46.0192C46.7568 46.2092 46.5186 46.378 46.5156 46.3723C46.5197 46.3775 46.6971 46.1464 47.1266 45.8377C47.5545 45.5256 48.2556 45.1548 49.2026 44.9277C50.1466 44.6989 51.3154 44.6076 52.6006 44.7582C53.2385 44.8335 53.9151 44.9688 54.5958 45.2118C55.2723 45.4509 55.9372 45.7784 56.5646 46.1983C56.6138 46.2314 56.6623 46.2668 56.7103 46.3033C57.0931 46.5686 57.4495 46.8607 57.7732 47.1763C58.448 47.8347 58.987 48.5833 59.3434 49.349C59.9024 50.5295 60.0387 51.7094 59.9896 52.6509C59.941 53.5997 59.728 54.3289 59.5623 54.8173C59.3926 55.3046 59.2656 55.559 59.2679 55.5602C59.2656 55.5602 59.3095 55.28 59.3534 54.7739C59.3891 54.2713 59.4219 53.5409 59.3019 52.6771Z" fill="#15594E"/>
<path d="M57.0144 45.9301C57.2169 45.3219 57.4709 44.7268 57.7489 44.134C57.8871 43.8356 58.0275 43.5463 58.1692 43.261C58.2452 43.1121 58.3032 42.9968 58.3605 42.8719C58.415 42.7481 58.4665 42.622 58.5104 42.4959C58.69 41.9886 58.7878 41.4643 58.8153 40.9616C58.875 39.9529 58.6461 39.0246 58.2628 38.3444C57.8824 37.6581 57.3445 37.2307 56.9337 37.0088C56.5193 36.7839 56.2448 36.724 56.2501 36.7189C56.2483 36.7263 56.5228 36.6972 57.0138 36.8136C57.4967 36.9289 58.2148 37.249 58.8241 37.9633C59.4339 38.6651 59.9015 39.7264 59.9747 40.9536C60.0104 41.5664 59.9536 42.222 59.7646 42.8747C59.7183 43.0374 59.6627 43.2028 59.6001 43.3637C59.5363 43.5252 59.4602 43.6929 59.3965 43.8264L58.9967 44.6869C58.7281 45.2671 58.4676 45.8286 58.2482 46.3637C58.168 46.5583 58.0978 46.7466 58.031 46.9372C57.7074 46.6216 57.3515 46.3301 56.9688 46.0642C56.9852 46.018 56.9998 45.9741 57.0144 45.9301Z" fill="#15594E"/>
<path d="M57.259 48.9547L57.1718 49.2931C57.1173 49.5179 57.084 49.7444 57.0705 49.9675C57.0424 50.4137 57.091 50.8393 57.1905 51.2159C57.386 51.9747 57.7881 52.5242 58.1281 52.838C58.4716 53.157 58.7268 53.2722 58.7215 53.2774C58.7251 53.2699 58.4465 53.2425 58.0017 53.008C57.561 52.7764 56.9552 52.2857 56.5479 51.4493C56.343 51.0339 56.1885 50.5426 56.1341 49.992C56.1042 49.7187 56.1002 49.4312 56.1288 49.1339C56.1616 48.8475 56.1915 48.5913 56.233 48.2986C56.2441 48.2221 56.2617 48.14 56.2746 48.059C56.6339 48.3408 56.9611 48.6392 57.259 48.9547Z" fill="#15594E"/>
</svg>
