<svg width="149" height="148" viewBox="0 0 149 148" fill="none" xmlns="http://www.w3.org/2000/svg">
<path d="M25.8605 17.3603C24.2653 14.5298 21.7606 11.4961 18.394 8.76799C16.705 7.41176 14.8038 6.13088 12.6499 5.03765C11.57 4.49175 10.4224 3.99845 9.19816 3.59613L8.65681 3.42554L7.81662 3.20092C7.25505 3.06587 6.69204 2.95214 6.13624 2.87395C5.0362 2.72752 3.98957 2.65218 2.84911 2.54129L2.84622 2.56404C2.74806 3.67716 2.63112 4.67941 2.56616 5.75131C2.54739 6.29579 2.56327 6.85449 2.61669 7.42029C2.64989 7.70461 2.67299 7.98467 2.71485 8.27184L2.78126 8.69833L2.83034 8.96417C3.09164 10.265 3.50885 11.4733 3.98813 12.6064C4.96691 14.8682 6.25029 16.8115 7.61595 18.5103C10.3704 21.8995 13.5002 24.3006 16.3181 25.907C19.1433 27.5163 21.674 28.301 23.4164 28.6621C25.1733 29.0175 26.155 29.0119 26.1521 29.0246C26.1983 28.9934 22.2745 27.9129 17.6896 23.9807C15.4158 22.0417 12.9718 19.423 10.8915 16.196C9.86223 14.5867 8.9181 12.8196 8.24104 10.9587C7.90757 10.0275 7.63472 9.06795 7.47881 8.12115L7.45571 7.96477L7.4586 7.97188C7.46149 7.97472 7.46293 7.97188 7.46437 7.97188L7.47304 7.97046C7.47592 7.97046 7.47881 7.9733 7.47881 7.9733C7.47881 7.9733 7.47737 7.96904 7.47737 7.96477L7.4817 7.95766L7.48458 7.9534L7.77187 8.03159C8.75353 8.32586 9.72942 8.68838 10.6764 9.10207C12.5748 9.92518 14.362 10.9189 16.0063 11.9681C19.2876 14.0777 21.9728 16.4334 23.8928 18.6909C25.8244 20.9356 26.9403 23.1093 27.4225 24.7285C27.9162 26.342 27.8902 27.34 27.9118 27.3343C27.8859 27.3343 28.2222 26.3975 28.1587 24.602C28.1053 22.8221 27.4831 20.1964 25.8605 17.3603Z" fill="#15594E"/>
<path d="M30.0166 28.8458C27.6924 28.8458 27.6924 32.3974 30.0166 32.3974C32.3423 32.3974 32.3423 28.8458 30.0166 28.8458Z" fill="#15594E"/>
<path d="M17.292 20.7977C20.5459 20.7977 20.5459 15.8249 17.292 15.8249C14.0381 15.8249 14.0381 20.7977 17.292 20.7977Z" fill="#15594E"/>
<path d="M44.1659 41.0403C44.1399 40.8939 44.1067 40.692 44.085 40.6338C44.0461 40.4603 44.0042 40.2826 43.9551 40.1049C43.8598 39.758 43.74 39.4183 43.6101 39.0899C43.3401 38.4345 42.9893 37.8175 42.5461 37.2958C42.1116 36.7726 41.576 36.3632 41.0361 36.1201C39.9389 35.6254 39.0208 35.7903 38.4852 35.9211C37.9338 36.0761 37.671 36.2267 37.6681 36.2225C37.6652 36.2253 37.9785 36.2651 38.4852 36.4044C38.9847 36.5395 39.6805 36.8224 40.1526 37.3882C40.6391 37.9426 40.9206 38.7658 41.0722 39.8078C41.1112 40.0694 41.1415 40.3423 41.1631 40.6281L41.1949 41.0659C41.2036 41.1669 41.1935 41.1299 41.1891 41.1498L41.1732 41.1612C41.1328 41.1854 41.1054 41.1541 41.1039 41.1527C41.1054 41.1527 41.1256 41.1854 41.0881 41.2152C41.1429 41.2451 40.8917 41.1726 40.7676 41.1384L40.3345 41.0091C40.0515 40.9266 39.783 40.8427 39.529 40.7546C38.5184 40.3907 37.7851 39.9542 37.2971 39.3458C36.8034 38.7402 36.584 38.0109 36.4584 37.5133C36.3414 36.9987 36.3082 36.6916 36.3039 36.693C36.3082 36.6959 36.1465 36.956 35.9733 37.4891C35.8058 38.0095 35.585 38.8553 35.8622 39.9741C36.0051 40.5257 36.2909 41.1214 36.7168 41.6588C37.147 42.1919 37.6912 42.6667 38.2947 43.0576C38.5964 43.2581 38.9111 43.4415 39.233 43.6021C39.3976 43.6831 39.5622 43.7656 39.7253 43.8409C39.9158 43.922 39.9823 43.9618 40.359 44.1039C41.6049 44.5546 42.9677 45.0081 44.3463 45.4602L44.4546 45.4929C44.4098 44.1267 44.4055 42.8273 44.2366 41.5166L44.1659 41.0403Z" fill="#15594E"/>
<path d="M43.3299 29.8521C43.2173 29.7995 43.0571 29.7256 43.008 29.7085C42.8579 29.6417 42.7164 29.5863 42.5648 29.5365C42.2703 29.4342 41.9729 29.3403 41.677 29.2735C41.0822 29.137 40.4687 29.0688 39.8869 29.1214C39.3022 29.1641 38.7464 29.3247 38.3047 29.5763C37.4125 30.091 37.0762 30.8003 36.9116 31.2382C36.7441 31.6874 36.7268 31.9447 36.7225 31.9447C36.7239 31.9476 36.9058 31.7486 37.2523 31.4699C37.5944 31.2027 38.1387 30.8572 38.7739 30.8089C39.4033 30.7506 40.1193 30.9638 40.9364 31.3733C41.1414 31.4742 41.3435 31.5908 41.5586 31.7116L41.8806 31.9064C41.9571 31.949 41.9267 31.9391 41.9369 31.9519L41.9383 31.9675C41.9369 32.0087 41.8993 32.013 41.8993 32.013C41.8993 32.013 41.9311 32.013 41.9354 32.0542C41.9874 32.03 41.8127 32.1694 41.7275 32.2362L41.4244 32.475C41.2237 32.6229 41.0288 32.7693 40.844 32.8944C40.089 33.4161 39.4177 33.7061 38.7464 33.7388C38.0766 33.7772 37.4544 33.5782 37.0343 33.4119C36.6157 33.2398 36.3789 33.1133 36.3789 33.1176C36.3818 33.1162 36.4857 33.355 36.7745 33.736C37.0661 34.107 37.5569 34.6728 38.4837 35.0325C38.9384 35.2116 39.5015 35.3055 40.0919 35.2756C40.6823 35.2486 41.2901 35.1079 41.8661 34.8847C42.1548 34.7766 42.4378 34.6444 42.7135 34.5079C42.8492 34.4326 42.9878 34.3615 43.1192 34.2862C43.2751 34.1994 43.3357 34.171 43.6201 33.9791C44.5556 33.3479 45.5416 32.6314 46.5507 31.9078L46.6229 31.8538C45.634 31.2098 44.7115 30.5658 43.6995 30.0426L43.3299 29.8521Z" fill="#15594E"/>
<path d="M33.962 37.654C33.5924 37.3569 33.36 37.2489 33.3629 37.246C33.3585 37.246 33.4798 37.482 33.6444 37.8971C33.806 38.308 33.9937 38.9264 33.9533 39.5874C33.9172 40.2442 33.6328 40.8939 33.1232 41.6132C32.9991 41.7952 32.8576 41.9829 32.7118 42.1677L32.4794 42.4577C32.4144 42.5444 32.283 42.7079 32.3076 42.6624C32.2599 42.6596 32.2599 42.6254 32.2599 42.6254C32.2599 42.6269 32.2556 42.6624 32.2166 42.6638L32.1993 42.6624C32.1892 42.6524 32.1993 42.6823 32.156 42.6055L31.9698 42.2842C31.8528 42.0696 31.746 41.8592 31.6421 41.6616C31.2494 40.847 31.0458 40.1291 31.1137 39.5135C31.1628 38.8937 31.4948 38.3776 31.7633 38.0436C32.0362 37.7123 32.2238 37.546 32.2195 37.5446C32.2209 37.5488 31.9741 37.5588 31.5338 37.7009C31.1151 37.8559 30.4193 38.163 29.9184 39.0216C29.6715 39.4396 29.5055 39.9784 29.4622 40.5527C29.4145 41.1242 29.4694 41.7256 29.6065 42.3169C29.6715 42.6126 29.7523 42.9083 29.8548 43.1998C29.9054 43.3434 29.9573 43.4926 30.0122 43.6319C30.0295 43.6803 30.1003 43.8409 30.1537 43.9532L30.3341 44.3342C30.8437 45.3393 31.4573 46.2634 32.078 47.2557L32.1314 47.186C32.8388 46.225 33.5419 45.281 34.1583 44.3826C34.3416 44.1096 34.3676 44.0499 34.4586 43.9006C34.5322 43.7741 34.6015 43.6391 34.6693 43.5097C34.8108 43.2424 34.9335 42.9695 35.0461 42.6908C35.2569 42.1307 35.4056 41.5407 35.4373 40.9636C35.4677 40.385 35.3796 39.8277 35.2078 39.377C34.8671 38.453 34.32 37.9526 33.962 37.654Z" fill="#15594E"/>
<path d="M55.3501 12.4628L54.9661 12.096L54.6485 11.8018C53.4892 10.7711 52.2766 9.88257 51.0437 9.1547C48.5852 7.67764 46.0459 6.8602 43.892 6.62706C41.7266 6.3797 40 6.67824 38.8855 6.98815C37.7711 7.29949 37.2138 7.60513 37.2109 7.59092C37.2095 7.60513 37.8476 7.57528 38.9476 7.69754C40.0477 7.81127 41.601 8.10554 43.3204 8.84052C45.0426 9.55844 46.9092 10.7242 48.7484 12.3064C49.6694 13.0983 50.5861 13.991 51.4855 14.9606C51.5606 15.0402 51.5548 15.0402 51.5519 15.043V15.0615C51.5504 15.0772 51.549 15.0871 51.5461 15.0942C51.5403 15.1099 51.5331 15.1198 51.523 15.1255C51.5028 15.1369 51.4812 15.1326 51.4696 15.1298L51.4638 15.1269C51.4638 15.1269 51.4783 15.134 51.4812 15.1511C51.4826 15.1596 51.4812 15.171 51.4739 15.1838C51.5187 15.1952 51.0105 15.2321 50.7218 15.2478C49.411 15.3231 48.1522 15.2762 46.9857 15.0999C44.6442 14.7474 42.6866 13.7991 41.2242 12.6035C39.7546 11.4151 38.7802 10.0802 38.1493 9.13195C37.5228 8.16667 37.2167 7.58381 37.2109 7.5895C37.2196 7.5895 37.2297 8.24202 37.4592 9.40775C37.696 10.555 38.1565 12.2823 39.4385 14.1688C40.6872 16.0496 42.9811 17.9872 45.9882 18.944C47.478 19.4359 49.0992 19.706 50.768 19.7515C51.2271 19.76 51.4754 19.7728 52.2723 19.7301C53.0229 19.6875 53.7693 19.6036 54.5041 19.4842C55.2288 19.369 55.9448 19.2169 56.6046 19.0378L58.526 18.4578L59.8325 18.054C59.0313 16.931 58.3239 15.8918 57.4837 14.8113C57.0463 14.2725 56.5829 13.7366 56.0935 13.2177C55.8452 12.9604 55.5969 12.713 55.3501 12.4628Z" fill="#15594E"/>
<path d="M44.0538 13.3746C46.3289 12.8912 45.571 9.42488 43.3031 9.89976C41.0294 10.3817 41.7873 13.8494 44.0538 13.3746Z" fill="#15594E"/>
<path d="M63.1529 7.06923C60.8344 7.06923 60.8344 10.6208 63.1529 10.6208C65.4771 10.6208 65.4771 7.06923 63.1529 7.06923Z" fill="#15594E"/>
<path d="M68.9834 21.6862C72.2301 21.6862 72.2301 16.7134 68.9834 16.7134C65.7295 16.7134 65.7295 21.6862 68.9834 21.6862Z" fill="#15594E"/>
<path d="M79.253 15.228C79.2834 15.2308 79.0408 12.3734 78.6337 11.0143C77.8628 8.83497 76.8306 6.53621 75.3625 4.80184C74.7735 4.17633 74.1354 3.62189 73.4453 3.16555C71.7347 1.99414 69.7988 1.45392 68.065 1.38C66.3211 1.2947 64.736 1.56197 63.3689 2.09081C62.0104 2.61681 60.9262 3.4385 60.1871 4.32275C58.6872 6.14669 58.5472 7.99337 58.576 9.08376C58.628 10.2139 58.8272 10.7598 58.8113 10.7613C58.8272 10.7627 58.7002 10.1741 58.781 9.04537C58.8806 7.95641 59.2719 6.18792 60.8468 4.72507C62.3756 3.25796 65.1359 2.45901 68.1703 2.98785C69.6631 3.25369 71.1702 3.90764 72.4233 5.03214C72.6441 5.22548 72.8419 5.44725 73.0469 5.66903C73.0252 5.67613 76.2849 9.48607 75.8937 14.739C75.8894 14.8356 76.3456 18.4949 73.5926 21.004C71.5383 22.8806 68.1631 27.3445 56.0237 27.0658C55.8707 26.827 55.7177 26.5896 55.5415 26.3579C55.4001 26.1702 55.2413 25.9754 55.0796 25.7921C54.941 25.6471 54.8212 25.5205 54.6869 25.3912C55.0175 25.3826 55.3466 25.367 55.6729 25.3371C57.2537 25.1793 58.6193 24.6676 59.8406 23.988C61.0504 23.3085 62.0941 22.4257 62.8131 21.3893C63.5565 20.3672 63.8582 19.0792 63.7428 18.2603C63.6518 17.4457 63.4194 17.1216 63.4353 17.1145C63.4237 17.106 63.4714 17.5609 63.3039 18.1708C63.1321 18.782 62.5546 19.2398 61.9137 19.8269C60.3315 21.2855 57.4673 22.2622 53.1494 22.3489L48.3263 21.9949C48.1025 21.9523 47.8773 21.911 47.6651 21.884C45.7927 21.6736 42.7842 21.2343 42.79 21.223C42.79 21.2315 45.7927 22.646 47.3591 23.735C48.4173 24.4671 49.7252 25.4438 51.0822 26.5981C48.8532 26.1603 46.7008 25.3784 44.6595 24.352C43.3833 23.7009 41.804 23.2843 40.4961 22.5479C44.7014 25.9456 49.2762 28.0695 53.7558 29.14C53.9362 29.3461 54.1109 29.575 54.2769 29.811C54.6537 30.3441 54.9987 30.907 55.2947 31.4586C55.888 32.5817 56.2778 33.6835 56.3572 34.6104C56.4539 35.5401 56.1912 36.3433 55.9068 36.8366C55.6281 37.3399 55.4001 37.5801 55.4058 37.5844C55.4029 37.5744 55.6917 37.5801 56.1839 37.3285C56.6632 37.0925 57.437 36.4215 57.769 34.98C58.0996 33.5655 57.9278 31.7614 57.3966 30.0697C57.3663 29.9631 57.3287 29.865 57.297 29.7669C57.9668 29.8451 58.6338 29.9034 59.3007 29.9361C75.9428 30.772 79.2444 17.7443 79.253 15.228Z" fill="#15594E"/>
<path d="M95.1394 7.58378C99.6926 8.79927 105.014 9.35797 110.474 8.7424C111.119 8.67559 111.747 8.59313 112.37 8.49646C111.919 8.79074 111.439 9.07648 110.888 9.3338C109.45 10.0162 107.669 10.5194 105.617 10.7796C101.527 11.2985 96.3448 10.8919 90.7291 9.30537C89.3173 8.91584 87.9718 8.40406 86.4084 7.83257C84.8666 7.27956 83.2512 6.74361 81.5275 6.27447C80.0175 5.88353 78.4482 5.51391 76.6581 5.37601C77.5662 6.76777 78.3125 8.23346 78.8669 9.76028C79.505 9.847 80.1445 9.94794 80.7725 10.073C82.4009 10.3901 83.986 10.7853 85.5278 11.2089C87.0436 11.6311 88.7009 12.0832 90.2296 12.3562C96.4026 13.5006 101.861 13.3442 106.125 12.2993C108.255 11.7705 110.072 11.007 111.488 10.0972C112.401 9.51719 113.12 8.88883 113.709 8.27469C117.908 7.5255 121.767 6.32992 125.281 5.40728C127.494 4.82442 129.59 4.35671 131.572 4.07949C133.559 3.79801 135.425 3.70987 137.129 3.78806C140.553 3.9288 143.293 4.66093 145.145 5.23243C147.002 5.81671 147.999 6.24604 148.002 6.23609C147.998 6.24462 147.08 5.67313 145.292 4.84717C143.508 4.04679 140.817 2.97489 137.254 2.48159C135.479 2.24418 133.494 2.15746 131.386 2.30247C129.281 2.43326 127.054 2.78582 124.77 3.26348C121.857 3.86767 118.839 4.64956 115.705 5.27792C115.72 5.2438 115.734 5.20399 115.749 5.16987C115.691 5.18693 115.623 5.19831 115.565 5.21537C115.545 5.25091 115.529 5.28076 115.509 5.31346C113.771 5.65749 112.002 5.95461 110.194 6.14795C105.028 6.72513 100.079 6.36261 95.6562 5.43714C91.2185 4.52588 87.2428 3.23221 83.781 2.48443C80.3307 1.70681 77.442 1.48361 75.4758 1.51631C73.4981 1.54901 72.4312 1.73382 72.4298 1.72245C72.4067 1.76794 76.8588 1.54617 83.4316 3.74968C86.7274 4.78462 90.5718 6.38394 95.1394 7.58378Z" fill="#15594E"/>
<path d="M97.4581 14.7904C96.7507 15.1501 95.7993 15.4131 94.6488 15.4671C93.4997 15.5254 92.1657 15.3946 90.6759 15.1003C87.6761 14.5373 84.1551 13.2548 79.7362 12.1715C79.7001 12.1629 79.6625 12.1572 79.625 12.1473C79.7477 12.6335 79.8488 13.1354 79.9224 13.6501C79.9253 13.6601 79.9296 13.6672 79.9296 13.6757C79.9339 13.7169 79.9325 13.7567 79.9368 13.7965C79.9946 14.2856 80.0307 14.7833 80.0307 15.2866C80.0307 15.3008 80.0249 15.3107 80.0234 15.3235C84.0266 15.861 87.614 16.5918 90.6384 16.6913C92.2322 16.7553 93.6758 16.6728 94.8942 16.3941C96.1126 16.124 97.0842 15.6434 97.7482 15.1401C98.4224 14.6269 98.8021 14.1164 99.0331 13.7752C99.2554 13.4283 99.3463 13.2364 99.3492 13.2378C99.3463 13.2349 99.2135 13.4155 98.9233 13.7169C98.6317 14.0141 98.1669 14.4307 97.4581 14.7904Z" fill="#15594E"/>
<path d="M67.5484 14.1516C66.9291 14.8738 66.4686 15.667 66.125 16.4802C66.662 15.4908 67.6668 14.7558 69.1581 14.7558C70.3505 14.7558 71.234 15.2278 71.8143 15.9201C72.1536 15.6969 72.5477 15.5121 73.0111 15.3742C73.6145 15.1894 74.2901 15.0941 74.986 15.0429C75.2978 13.3754 74.6467 11.2216 74.6467 11.2216C72.6906 11.7092 68.7322 12.7541 67.5484 14.1516Z" fill="#15594E"/>
<path d="M71.9587 6.16069C71.1878 6.61419 70.5612 7.32215 70.2148 8.1538C70.0343 8.5746 69.9361 9.02241 69.8914 9.48301C69.8365 9.95357 69.8524 10.8264 68.9805 11.6353L74.5471 10.073C74.5283 9.94931 73.1857 6.94542 72.2228 6.00858C72.1333 6.05549 72.0467 6.10525 71.9587 6.16069Z" fill="#15594E"/>
<path d="M86.9295 27.0343C86.9122 27.0357 86.9439 27.0471 86.8544 27.0372L86.4661 26.9945C86.2135 26.9675 85.9796 26.9348 85.7472 26.8993C84.8247 26.7472 84.1 26.4856 83.6265 26.0534C83.1342 25.634 82.9018 25.0284 82.7892 24.5934C82.6795 24.1598 82.6564 23.8883 82.6535 23.8897C82.6578 23.8925 82.5091 24.1157 82.3676 24.5806C82.2305 25.0398 82.0717 25.8288 82.4788 26.7855C82.6838 27.2504 83.0346 27.7224 83.4821 28.1077C83.9354 28.5 84.4768 28.8199 85.0528 29.0616C85.3415 29.1881 85.6403 29.2933 85.9464 29.3828C86.0951 29.434 86.2539 29.4752 86.4055 29.5122C86.456 29.5278 86.635 29.5605 86.7606 29.5847L87.1893 29.6558C88.337 29.8349 89.489 29.8662 90.7017 29.9344L90.6757 29.8463C90.3061 28.645 89.9423 27.4651 89.5627 26.3804C89.4501 26.0534 89.4169 25.9951 89.349 25.8345C89.2869 25.6866 89.2176 25.5487 89.1483 25.4037C89.0141 25.1208 88.8582 24.8465 88.6936 24.5806C88.3529 24.0589 87.9487 23.5713 87.4867 23.1945C87.0204 22.8093 86.4964 22.5548 86.0171 22.4183C85.0369 22.1553 84.2804 22.3273 83.8084 22.4524C83.3363 22.5975 83.1025 22.724 83.0996 22.7197C83.0981 22.724 83.371 22.7595 83.8228 22.8775C84.2631 22.9898 84.8983 23.2016 85.4238 23.6352C85.955 24.0731 86.3261 24.7142 86.6191 25.5942C86.6913 25.8132 86.7591 26.042 86.8256 26.288L86.9309 26.6619C86.9584 26.7742 87.0161 26.9846 86.9916 26.9377C86.9627 26.9689 86.9353 26.949 86.9353 26.949C86.9367 26.9519 86.9641 26.976 86.941 27.0173L86.9295 27.0343Z" fill="#15594E"/>
<path d="M78.4556 23.4165C78.7112 23.1251 78.8858 22.9758 78.883 22.9758C78.883 22.9801 78.6563 22.99 78.2521 23.118C77.8666 23.2544 77.23 23.5302 76.7522 24.2808C76.5169 24.6562 76.3624 25.1253 76.3119 25.6285C76.2599 26.1318 76.2989 26.6535 76.4071 27.1724C76.4606 27.4312 76.5313 27.6913 76.6208 27.9472C76.6627 28.0723 76.7074 28.1974 76.7565 28.3268C76.7709 28.368 76.8345 28.5087 76.8835 28.6068L77.0395 28.9338C77.4855 29.8152 78.0254 30.6227 78.574 31.4885L78.6245 31.4216C79.2973 30.5729 79.9498 29.747 80.5301 28.9537C80.7034 28.712 80.7265 28.6594 80.8145 28.5358C80.8824 28.4163 80.9488 28.304 81.0137 28.1832C81.148 27.9543 81.2649 27.7126 81.3674 27.4667C81.5782 26.9734 81.724 26.4602 81.7615 25.9512C81.8005 25.4423 81.7312 24.9604 81.5811 24.5581C81.2823 23.7577 80.7972 23.3198 80.4681 23.0597C80.136 22.8009 79.9325 22.7085 79.9339 22.7043C79.931 22.7057 80.0364 22.9118 80.1764 23.2758C80.3136 23.6354 80.4782 24.1785 80.4247 24.7542C80.38 25.3314 80.1086 25.9043 79.6336 26.5384C79.5109 26.6948 79.3839 26.8597 79.241 27.0288L79.0302 27.279C78.9667 27.3558 78.8411 27.4994 78.8627 27.4596C78.8267 27.4567 78.8252 27.4269 78.8252 27.4269C78.8267 27.4283 78.8209 27.4582 78.7862 27.461L78.7718 27.4596C78.7631 27.4496 78.7704 27.4766 78.7328 27.4098L78.5683 27.1283C78.4658 26.9393 78.3734 26.763 78.281 26.581C77.9359 25.8745 77.7699 25.2518 77.8349 24.7102C77.8912 24.1671 78.2045 23.7037 78.4556 23.4165Z" fill="#15594E"/>
<path d="M92.5407 19.3405C91.6731 18.7832 90.8748 18.2316 89.9927 17.7767L89.6665 17.609C89.5625 17.5635 89.4268 17.4995 89.385 17.4824C89.255 17.4242 89.1309 17.3772 89.0039 17.3303C88.7469 17.2408 88.487 17.1597 88.2243 17.0929C87.7031 16.9678 87.1762 16.9067 86.6666 16.9351C86.1556 16.9607 85.6806 17.0858 85.2995 17.2891C84.5315 17.6985 84.2413 18.2871 84.0955 18.6482C83.9598 19.0263 83.9454 19.2353 83.9425 19.2339C83.944 19.2367 84.0941 19.0789 84.3944 18.8515C84.6918 18.6269 85.1638 18.3567 85.7167 18.324C86.2639 18.2857 86.8904 18.4776 87.5992 18.8344C87.7782 18.9226 87.9558 19.0263 88.1435 19.1301L88.425 19.2993C88.4914 19.3377 88.4654 19.3291 88.4755 19.3377V19.3519C88.474 19.3846 88.4423 19.3874 88.4408 19.386C88.4408 19.386 88.4712 19.3874 88.474 19.423C88.5145 19.4045 88.3672 19.5111 88.2878 19.5708L88.0251 19.7585C87.8576 19.8864 87.6887 19.9987 87.5285 20.1011C86.8803 20.5261 86.2971 20.7564 85.7124 20.7721C85.1306 20.7934 84.5849 20.61 84.224 20.4679C83.8588 20.3143 83.6523 20.2063 83.6523 20.2091C83.6538 20.2077 83.7462 20.4025 84.0017 20.7309C84.2572 21.0507 84.6845 21.5284 85.4944 21.8454C85.89 22.0032 86.3837 22.0928 86.8976 22.08C87.4058 22.0672 87.9327 21.9591 88.4351 21.7828C88.6863 21.6976 88.9245 21.5924 89.1641 21.4815C89.2868 21.4274 89.4023 21.3692 89.5163 21.3038C89.652 21.2341 89.704 21.2128 89.9509 21.0607C90.755 20.5489 91.6096 19.9717 92.4787 19.3817L92.5407 19.3405Z" fill="#15594E"/>
<path d="M81.165 21.9824C83.4821 21.9824 83.4821 18.4294 81.165 18.4294C78.8408 18.4308 78.8408 21.9824 81.165 21.9824Z" fill="#15594E"/>
<path d="M17.1908 2.29412C19.375 2.53011 21.9013 3.17694 24.3295 4.53743C25.4411 5.15015 26.5209 5.92067 27.5517 6.81203C28.3644 7.51288 29.1353 8.29904 29.8687 9.1577C30.2426 9.59698 30.6092 10.0547 30.9557 10.531C31.897 11.8289 32.6924 13.1866 33.3233 14.5556C33.9541 15.909 34.4074 17.3121 34.7669 18.6911C35.4699 21.4391 35.7283 24.0293 35.6504 26.1958C35.5695 28.3652 35.1336 30.1067 34.673 31.2667C34.2255 32.4325 33.8098 33.021 33.8256 33.0281C33.8112 33.0182 34.38 32.5746 35.1437 31.5127C35.9016 30.455 36.8009 28.7249 37.325 26.4147C37.8519 24.1117 38.0179 21.2571 37.569 18.1494C37.338 16.6027 36.9626 14.9579 36.313 13.323C35.672 11.6924 34.8044 10.0945 33.7073 8.59047C33.6221 8.46679 33.5283 8.35875 33.4344 8.24217C32.7429 7.32523 31.9836 6.47652 31.1708 5.70601C29.4645 4.10242 27.5488 2.8386 25.5883 2.01406C22.5755 0.713277 19.5944 0.451699 17.2168 0.623715C14.8218 0.799996 12.9898 1.35869 11.7656 1.78234C10.5443 2.21877 9.90914 2.54859 9.90625 2.54148C9.90769 2.54859 10.6136 2.41922 11.8826 2.29127C13.1501 2.16902 14.9936 2.0496 17.1908 2.29412Z" fill="#15594E"/>
<path d="M34.3641 7.48292C35.8857 6.95124 37.3755 6.30156 38.8639 5.59928C39.6117 5.24814 40.3335 4.88278 41.0409 4.52311C41.4206 4.33546 41.7079 4.18192 42.0197 4.04403C42.3301 3.89618 42.6462 3.77392 42.9624 3.65308C44.2328 3.18821 45.5464 2.92237 46.8168 2.82143C49.3706 2.62809 51.7266 3.12708 53.4618 4.0227C55.2216 4.90695 56.3318 6.19209 56.915 7.1787C57.5054 8.17383 57.6714 8.83773 57.6844 8.8292C57.6671 8.83204 57.7191 8.15962 57.3971 6.97398C57.081 5.80683 56.2394 4.07957 54.3959 2.6352C52.5913 1.19083 49.8874 0.113247 46.775 0.00946876C45.2245 -0.0445528 43.5788 0.128885 41.9331 0.62503C41.5245 0.750133 41.116 0.890873 40.706 1.0572C40.3032 1.215 39.8889 1.41545 39.5468 1.57041L37.3943 2.59397C35.9507 3.27919 34.546 3.94309 33.2035 4.50463C32.717 4.70934 32.2362 4.88705 31.7656 5.06191C32.5741 5.831 33.3363 6.67402 34.0292 7.58955C34.1447 7.55401 34.2559 7.52131 34.3641 7.48292Z" fill="#15594E"/>
<path d="M26.7089 7.05651L25.8586 7.28113C25.2869 7.4304 24.7225 7.51712 24.1594 7.56403C23.0349 7.66354 21.955 7.56119 20.9994 7.34794C19.0707 6.91435 17.6603 5.96613 16.8489 5.15581C16.0246 4.34406 15.7186 3.72992 15.707 3.74414C15.7244 3.73703 15.8081 4.40377 16.426 5.47283C17.0352 6.53051 18.3084 7.97772 20.4436 8.92168C21.5046 9.39081 22.7548 9.74622 24.1479 9.84715C24.8394 9.89833 25.567 9.89264 26.3177 9.80877C27.0395 9.71921 27.6848 9.6268 28.4225 9.50738C28.6145 9.47611 28.8209 9.4363 29.0259 9.3965C28.2925 8.54353 27.5216 7.75595 26.7089 7.05651Z" fill="#15594E"/>
<path d="M12.8895 55.6162L12.5055 55.2537L12.1995 54.948C11.137 53.8278 10.2087 52.6521 9.43639 51.4537C7.8845 49.0639 6.99956 46.5789 6.71661 44.4607C6.41922 42.334 6.6834 40.6252 6.97213 39.5192C7.26374 38.4132 7.55824 37.8587 7.54813 37.8559C7.55824 37.8545 7.54525 38.4828 7.68672 39.5689C7.83397 40.6451 8.166 42.1705 8.947 43.848C9.71645 45.5298 10.9378 47.3438 12.5907 49.1208C13.4064 50.0107 14.3332 50.8936 15.3451 51.7536C15.4274 51.8333 15.426 51.8276 15.4303 51.8233H15.4462C15.4563 51.8219 15.4664 51.819 15.4736 51.8176C15.4881 51.8119 15.4982 51.802 15.5039 51.7934C15.5155 51.7664 15.5112 51.7451 15.5068 51.7337L15.5039 51.7281C15.5039 51.7281 15.5112 51.7408 15.5285 51.7451C15.5371 51.7451 15.5487 51.7437 15.5617 51.7366C15.5747 51.7821 15.6007 51.2859 15.6151 51.0016C15.6656 49.7065 15.5833 48.4612 15.3783 47.3225C14.9698 45.0223 13.9679 43.1073 12.7221 41.6999C11.4834 40.2769 10.1005 39.3472 9.12601 38.7458C8.14002 38.1502 7.54236 37.8616 7.54813 37.8559C7.54669 37.863 8.20209 37.8602 9.39164 38.0578C10.5667 38.2653 12.328 38.6833 14.2668 39.9059C16.1969 41.0958 18.2194 43.3064 19.2617 46.2477C19.7872 47.7049 20.099 49.2985 20.1885 50.9462C20.2073 51.3925 20.2246 51.6371 20.2 52.4303C20.1712 53.1653 20.0975 53.9088 19.9979 54.6282C19.8983 55.3447 19.7583 56.054 19.5923 56.7066L19.0466 58.613L18.6698 59.9166C17.5106 59.1446 16.4394 58.4765 15.3264 57.6647C14.7691 57.2525 14.2162 56.8004 13.6792 56.3355C13.4078 56.101 13.1436 55.8621 12.8895 55.6162Z" fill="#15594E"/>
<path d="M13.5606 44.4723C13.1218 46.7244 9.58921 46.0547 10.0209 43.8083C10.4539 41.5562 13.9923 42.2202 13.5606 44.4723Z" fill="#15594E"/>
<path d="M7.59431 63.441C7.54234 61.1491 11.1456 61.0709 11.1961 63.3557C11.2452 65.649 7.64483 65.7258 7.59431 63.441Z" fill="#15594E"/>
<path d="M22.5454 68.8503C22.6248 72.0503 17.5808 72.1655 17.5086 68.9597C17.435 65.754 22.4747 65.6445 22.5454 68.8503Z" fill="#15594E"/>
<path d="M16.2328 79.1227C16.2357 79.1454 13.3311 78.9748 11.938 78.6052C9.71054 77.893 7.35743 76.9319 5.5659 75.5174C4.91771 74.9516 4.34026 74.3332 3.86386 73.6722C2.63823 72.006 2.04923 70.1167 1.92797 68.4022C1.81103 66.6863 2.04634 65.1169 2.54584 63.7649C3.04822 62.4087 3.85953 61.3211 4.74448 60.5734C6.55622 59.0565 8.42571 58.8774 9.53153 58.8816C10.6792 58.9086 11.2379 59.092 11.2393 59.0764C11.2422 59.092 10.6417 58.9797 9.49688 59.0849C8.3954 59.2058 6.61108 59.6308 5.16313 61.2159C3.7094 62.7541 2.96593 65.4922 3.56792 68.4705C3.87108 69.9362 4.56547 71.4061 5.7348 72.6173C5.93979 72.8306 6.165 73.0268 6.39454 73.2173C6.40031 73.1959 10.3356 76.3249 15.6626 75.8231C15.7535 75.8174 19.4752 76.1785 21.9568 73.412C23.8162 71.3464 28.2625 67.9231 27.7053 55.9616C27.4657 55.8195 27.2231 55.6745 26.9835 55.5053C26.7843 55.3674 26.5894 55.2181 26.3988 55.0575C26.2501 54.9295 26.1144 54.8144 25.9845 54.6836C25.9831 55.0049 25.9729 55.329 25.9513 55.6489C25.8257 57.2169 25.3363 58.5746 24.6737 59.7929C24.0125 60.9998 23.1377 62.0476 22.1026 62.7797C21.0892 63.5346 19.7813 63.8587 18.9569 63.7706C18.1283 63.6924 17.7948 63.4777 17.7891 63.4934C17.7804 63.482 18.2351 63.5204 18.8487 63.3342C19.4651 63.1593 19.9227 62.5807 20.5074 61.931C21.9438 60.336 22.8648 57.4927 22.8576 53.235L22.3928 48.4882C22.3466 48.2692 22.3047 48.0475 22.2701 47.8399C22.0131 45.9989 21.502 43.0419 21.4891 43.0491C21.4977 43.0491 22.9976 45.9776 24.1381 47.4959C24.9032 48.5237 25.9296 49.7904 27.1264 51.0983C26.6298 48.9175 25.7882 46.8121 24.6982 44.8232C24.0154 43.5793 23.5578 42.0326 22.7753 40.7588C26.3209 44.8303 28.5758 49.2843 29.7581 53.6828C29.979 53.8477 30.2143 54.0183 30.4496 54.1818C30.9968 54.5414 31.5771 54.8684 32.1502 55.1499C33.3022 55.71 34.4282 56.0626 35.3695 56.1209C36.3165 56.1962 37.1177 55.919 37.6187 55.6275C38.1225 55.3375 38.3607 55.1115 38.3665 55.1186C38.3549 55.1172 38.3679 55.3987 38.1239 55.8905C37.8958 56.3682 37.2318 57.143 35.778 57.5041C34.3503 57.8623 32.5169 57.733 30.7903 57.2525C30.682 57.224 30.5824 57.1913 30.4814 57.1544C30.5752 57.8197 30.6488 58.4751 30.6965 59.1247C31.9178 75.5046 18.7852 79.0587 16.2328 79.1227Z" fill="#15594E"/>
<path d="M8.83609 94.9441C10.1743 99.4037 10.86 104.642 10.3548 110.037C10.3014 110.667 10.2306 111.288 10.1455 111.904C10.4342 111.453 10.7128 110.976 10.9625 110.424C11.6165 108.993 12.0943 107.227 12.3138 105.198C12.7425 101.157 12.2142 96.0586 10.4847 90.5584C10.0502 89.1766 9.50304 87.8616 8.8895 86.3319C8.29473 84.825 7.71006 83.2456 7.20335 81.5553C6.76593 80.0754 6.36172 78.5386 6.17838 76.7772C7.61045 77.6401 9.11182 78.3481 10.6738 78.8585C10.7821 79.484 10.899 80.1137 11.0333 80.7321C11.3971 82.3286 11.833 83.881 12.2964 85.3922C12.7584 86.8764 13.2565 88.497 13.5697 89.9997C14.8661 96.0586 14.8286 101.441 13.8686 105.667C13.3792 107.777 12.6429 109.585 11.7536 111.001C11.1849 111.913 10.5641 112.635 9.95201 113.229C9.29227 117.383 8.16336 121.214 7.3044 124.703C6.76304 126.889 6.33284 128.968 6.09609 130.932C5.85356 132.89 5.81314 134.73 5.93007 136.413C6.1495 139.778 6.95071 142.462 7.57147 144.274C8.20667 146.091 8.66862 147.072 8.65852 147.073C8.66574 147.069 8.06519 146.176 7.18891 144.435C6.3314 142.692 5.18516 140.058 4.60771 136.563C4.32043 134.821 4.19773 132.866 4.29012 130.786C4.37673 128.705 4.68567 126.507 5.1202 124.238C5.66878 121.361 6.38914 118.37 6.95649 115.262C6.92328 115.276 6.89008 115.29 6.85543 115.306C6.87276 115.249 6.88286 115.189 6.89586 115.131C6.92762 115.111 6.95793 115.096 6.98969 115.074C7.30007 113.354 7.56281 111.601 7.71295 109.81C8.18645 104.715 7.71006 99.8416 6.67209 95.4985C5.65001 91.1455 4.24392 87.256 3.40951 83.8668C2.53756 80.4848 2.24883 77.6415 2.23873 75.7039C2.22862 73.7548 2.3932 72.6986 2.3802 72.6972C2.4264 72.6673 2.30658 77.0601 4.67701 83.4958C5.80736 86.7243 7.5195 90.4688 8.83609 94.9441Z" fill="#15594E"/>
<path d="M16.1896 97.065C16.5462 96.3641 16.7844 95.4202 16.8162 94.2857C16.8566 93.1513 16.6877 91.8391 16.3571 90.3777C15.719 87.4335 14.3418 83.9847 13.1393 79.6615C13.1306 79.626 13.1219 79.589 13.1133 79.5521C13.6157 79.663 14.1281 79.7525 14.6435 79.8065C14.6536 79.808 14.6608 79.8137 14.6709 79.8137C14.7186 79.8165 14.759 79.8136 14.7994 79.8165C15.2888 79.8705 15.7955 79.8933 16.3123 79.8819C16.3268 79.8819 16.3369 79.8762 16.3499 79.8734C16.9822 83.807 17.8022 87.3269 17.9696 90.3038C18.0779 91.8718 18.0187 93.2977 17.769 94.5032C17.5221 95.7102 17.0558 96.6769 16.5592 97.3422C16.0525 98.0118 15.5458 98.4056 15.2036 98.6331C14.8586 98.8634 14.6637 98.9586 14.6652 98.96C14.6637 98.9572 14.8427 98.8235 15.1416 98.5307C15.4346 98.2435 15.8475 97.7772 16.1896 97.065Z" fill="#15594E"/>
<path d="M14.8776 67.6103C15.5907 66.9777 16.3862 66.5142 17.2076 66.1574C16.2115 66.7033 15.4925 67.7155 15.5258 69.184C15.5532 70.3583 16.0498 71.2184 16.7644 71.77C16.5464 72.1154 16.3674 72.5092 16.2389 72.9613C16.0628 73.5612 15.9819 74.2351 15.9516 74.9231C14.2597 75.2657 12.0625 74.6729 12.0625 74.6729C12.5115 72.731 13.4801 68.8087 14.8776 67.6103Z" fill="#15594E"/>
<path d="M6.87237 72.1383C7.31556 71.3621 8.01283 70.7294 8.85735 70.3698C9.28033 70.1821 9.73074 70.0769 10.1985 70.0229C10.6734 69.9589 11.5598 69.9561 12.361 69.0704L10.8986 74.5991C10.7788 74.5835 7.69668 73.3324 6.72656 72.4041C6.76843 72.3074 6.81751 72.2207 6.87237 72.1383Z" fill="#15594E"/>
<path d="M28.3751 86.4215C28.3765 86.3987 28.3881 86.4357 28.3765 86.3404L28.3231 85.9665C28.2914 85.7178 28.2538 85.4818 28.2105 85.26C28.033 84.3544 27.7558 83.645 27.3068 83.1873C26.8708 82.711 26.2501 82.4935 25.8069 82.394C25.3651 82.2973 25.0894 82.2803 25.0909 82.276C25.0923 82.2803 25.3146 82.131 25.7852 81.9803C26.2472 81.8367 27.0369 81.6605 28.0171 82.0414C28.5007 82.2291 28.9857 82.5689 29.3871 82.9996C29.7913 83.4389 30.1233 83.9564 30.3889 84.5193C30.5232 84.8008 30.6373 85.0922 30.734 85.3922C30.7903 85.5443 30.835 85.6922 30.8754 85.8485C30.8928 85.8969 30.9289 86.0675 30.9577 86.1968L31.0371 86.6105C31.245 87.745 31.3028 88.8809 31.4053 90.0736L31.3085 90.0494C30.0815 89.7111 28.8775 89.3713 27.7774 89.0273C27.4425 88.9249 27.3747 88.8922 27.2115 88.8297C27.06 88.7657 26.9185 88.706 26.7698 88.6406C26.4811 88.5141 26.1981 88.3662 25.9339 88.2098C25.3897 87.8843 24.8859 87.499 24.4946 87.0512C24.0962 86.5992 23.8234 86.0902 23.6761 85.6197C23.3859 84.6586 23.5447 83.9095 23.6617 83.4488C23.7945 82.974 23.923 82.7395 23.9172 82.738C23.9215 82.7366 23.9634 83.0053 24.0875 83.4488C24.2175 83.8796 24.447 84.5008 24.8974 85.0098C25.3521 85.5244 26.0119 85.8741 26.9113 86.1442C27.135 86.2096 27.3674 86.2722 27.6186 86.3319L27.9998 86.4271C28.1138 86.4513 28.3303 86.5039 28.2798 86.4812C28.3101 86.4527 28.2914 86.4257 28.2914 86.4257C28.2928 86.4271 28.3173 86.4527 28.3592 86.43L28.3751 86.4215Z" fill="#15594E"/>
<path d="M24.5221 78.1491C24.2305 78.4078 24.0789 78.5827 24.0774 78.5798C24.0803 78.5798 24.0861 78.3609 24.2131 77.9543C24.3373 77.5705 24.6029 76.9378 25.3608 76.4502C25.729 76.2114 26.201 76.0479 26.7121 75.9868C27.2202 75.9157 27.7572 75.9441 28.2798 76.0451C28.544 76.092 28.8082 76.1545 29.0695 76.2327C29.1965 76.2782 29.3308 76.3194 29.4578 76.3649C29.4997 76.3777 29.6455 76.436 29.7451 76.4758L30.08 76.6293C30.9823 77.0445 31.8153 77.5634 32.7074 78.0851L32.6468 78.1348C31.8008 78.8101 30.9693 79.4712 30.1854 80.0611C29.9443 80.2431 29.8909 80.2687 29.7595 80.3497C29.6469 80.4208 29.5271 80.4962 29.4131 80.5615C29.1778 80.6923 28.9352 80.8203 28.6942 80.9255C28.199 81.1444 27.6735 81.2923 27.1654 81.3477C26.65 81.3975 26.1519 81.3377 25.7477 81.2013C24.9234 80.9241 24.4744 80.4563 24.2045 80.1393C23.9345 79.8138 23.8364 79.6162 23.832 79.6176C23.8335 79.6133 24.0385 79.7143 24.4181 79.8493C24.7863 79.973 25.3392 80.1194 25.9195 80.0569C26.4998 80.0014 27.0759 79.7199 27.7082 79.2323C27.8698 79.1158 28.0301 78.985 28.1975 78.8414L28.4531 78.621C28.5224 78.5599 28.6725 78.4376 28.6263 78.4604C28.622 78.4249 28.5931 78.4249 28.5917 78.4249C28.5931 78.4263 28.6249 78.4206 28.6249 78.385L28.6234 78.3708C28.6133 78.3609 28.6436 78.368 28.5714 78.3253L28.2827 78.1761C28.0965 78.0808 27.9074 77.9856 27.7226 77.9045C26.9979 77.579 26.3613 77.424 25.8127 77.5065C25.2641 77.5761 24.8079 77.896 24.5221 78.1491Z" fill="#15594E"/>
<path d="M20.6943 92.1277C20.111 91.2847 19.5336 90.5028 19.0529 89.6442L18.8753 89.3257C18.8262 89.2305 18.7584 89.0954 18.741 89.0514C18.6862 88.9319 18.6284 88.8097 18.5794 88.6803C18.4826 88.4287 18.3989 88.1756 18.3224 87.9254C18.1838 87.4137 18.1102 86.8891 18.1275 86.3872C18.1405 85.8897 18.256 85.412 18.4552 85.0367C18.8551 84.2648 19.4455 83.9662 19.805 83.8212C20.1875 83.6719 20.3998 83.6535 20.3983 83.6492C20.4012 83.6506 20.2438 83.8084 20.0201 84.1112C19.7992 84.4069 19.5307 84.8718 19.5134 85.4177C19.4874 85.9579 19.6953 86.5706 20.0735 87.2601C20.1731 87.4364 20.2742 87.6155 20.3853 87.7918L20.5629 88.0662C20.6033 88.1301 20.5932 88.1046 20.6033 88.1145H20.6177C20.651 88.1117 20.6538 88.0818 20.6524 88.0804C20.6524 88.0804 20.6538 88.1102 20.6899 88.1117C20.6726 88.1529 20.7852 88.005 20.8386 87.9325L21.0234 87.6695C21.1476 87.4947 21.2602 87.3326 21.3598 87.1663C21.7755 86.5166 21.9979 85.938 21.9993 85.3608C22.0065 84.7865 21.8102 84.2534 21.6499 83.9008C21.494 83.5454 21.3785 83.3436 21.3829 83.3436C21.3814 83.345 21.5821 83.4388 21.917 83.6748C22.2433 83.9207 22.7428 84.3373 23.0835 85.1206C23.2524 85.5101 23.3534 85.992 23.3505 86.4981C23.3505 87.0014 23.2509 87.5217 23.0849 88.0193C23.0041 88.268 22.9088 88.5111 22.7947 88.7443C22.7413 88.868 22.685 88.9817 22.6287 89.0997C22.5536 89.2291 22.5334 89.2831 22.3847 89.529C21.8824 90.3393 21.3165 91.1937 20.7361 92.0567L20.6943 92.1277Z" fill="#15594E"/>
<path d="M23.118 80.8529C23.1699 83.1434 19.5753 83.223 19.5161 80.9311C19.467 78.6406 23.0674 78.561 23.118 80.8529Z" fill="#15594E"/>
<path d="M1.71915 18.2418C2.0122 20.3899 2.71813 22.8721 4.15742 25.2348C4.80272 26.311 5.60105 27.3615 6.53507 28.3553C7.26266 29.1414 8.0783 29.8835 8.96325 30.5801C9.41799 30.9469 9.89005 31.298 10.3809 31.6292C11.7177 32.5277 13.1108 33.2797 14.514 33.8683C15.8999 34.4597 17.3319 34.8776 18.738 35.1989C21.5401 35.8315 24.1761 36.0292 26.369 35.8984C28.5676 35.7789 30.326 35.3041 31.491 34.8321C32.6618 34.3588 33.2508 33.9365 33.2594 33.9522C33.2479 33.9394 32.8105 34.5151 31.7508 35.2842C30.6955 36.0604 28.9675 36.9859 26.6317 37.5517C24.3032 38.1218 21.4203 38.3492 18.2501 37.9739C16.6765 37.7877 15.0048 37.4465 13.3288 36.8423C11.6628 36.2481 10.02 35.4321 8.47097 34.3858C8.35115 34.3033 8.22989 34.2137 8.11151 34.1242C7.16738 33.4631 6.28966 32.7353 5.49133 31.9505C3.82683 30.3114 2.49726 28.4448 1.61665 26.537C0.237988 23.5957 -0.0983761 20.6558 0.0228882 18.3101C0.142709 15.9474 0.668188 14.1291 1.07818 12.9136C1.49538 11.6981 1.80865 11.0655 1.80288 11.0627C1.80865 11.0627 1.70038 11.7607 1.59211 13.0217C1.50405 14.2684 1.4232 16.0895 1.71915 18.2418Z" fill="#15594E"/>
<path d="M7.36772 35.0524C6.86822 36.5693 6.24169 38.0463 5.55597 39.5262C5.21528 40.2712 4.86736 40.9905 4.51945 41.7013C4.33034 42.0738 4.18742 42.3609 4.04594 42.6709C3.91168 42.9794 3.78609 43.2935 3.67637 43.6091C3.23318 44.8715 2.9921 46.1794 2.92425 47.4333C2.777 49.9453 3.34145 52.2568 4.28703 53.9543C5.22538 55.6687 6.55207 56.7278 7.56549 57.2823C8.58758 57.841 9.26608 57.9917 9.25453 58.0045C9.25886 57.9874 8.57747 58.0599 7.36627 57.7685C6.17529 57.4827 4.40685 56.6838 2.90115 54.9053C1.39689 53.1553 0.243439 50.5125 0.0644297 47.4532C-0.0250749 45.9264 0.1164 44.2929 0.58269 42.6666C0.695293 42.2614 0.832437 41.8492 0.986905 41.4483C1.1457 41.046 1.33193 40.628 1.48929 40.2953L2.47528 38.1501C3.1379 36.7043 3.78031 35.3069 4.32167 33.9705C4.51945 33.4872 4.6898 33.0166 4.85581 32.5418C5.65414 33.328 6.5333 34.0558 7.47743 34.7169C7.44134 34.8335 7.40381 34.9429 7.36772 35.0524Z" fill="#15594E"/>
<path d="M6.75625 27.518L6.97135 26.675C7.10561 26.112 7.18645 25.5519 7.2211 24.9946C7.29039 23.8844 7.16912 22.8238 6.92515 21.8841C6.44298 19.9934 5.45121 18.6258 4.61247 17.8439C3.76362 17.0478 3.13564 16.7606 3.14864 16.7478C3.13997 16.7649 3.82714 16.8345 4.92429 17.4188C6.0099 17.9946 7.50549 19.2186 8.51025 21.3027C9.01552 22.3376 9.39663 23.5616 9.53089 24.9321C9.60452 25.613 9.61462 26.3295 9.53955 27.0702C9.46304 27.7839 9.38942 28.4236 9.28692 29.1515C9.25949 29.342 9.21618 29.5467 9.18442 29.7485C8.29948 29.0448 7.4925 28.3027 6.75625 27.518Z" fill="#15594E"/>
</svg>
