<svg width="149" height="148" viewBox="0 0 149 148" fill="none" xmlns="http://www.w3.org/2000/svg">
<path d="M130.526 25.6948C133.376 24.1083 136.433 21.6204 139.173 18.2755C140.538 16.5973 141.829 14.7085 142.926 12.5688C143.475 11.4954 143.973 10.3546 144.378 9.13789L144.549 8.60047L144.777 7.76639C144.913 7.20747 145.027 6.64855 145.105 6.09537C145.252 5.00333 145.329 3.96288 145.443 2.82928L145.415 2.82641C144.297 2.72896 143.286 2.61287 142.207 2.54838C141.66 2.52832 141.098 2.54552 140.529 2.59854C140.243 2.6315 139.962 2.653 139.671 2.696L139.242 2.76335L138.974 2.81065C137.665 3.07004 136.451 3.48565 135.309 3.96145C133.032 4.93454 131.078 6.21002 129.368 7.56575C125.957 10.303 123.542 13.4129 121.924 16.2132C120.306 19.0193 119.517 21.5373 119.153 23.2671C118.793 25.0126 118.802 25.9871 118.789 25.9857C118.821 26.0387 119.913 22.1363 123.864 17.5761C125.815 15.3175 128.45 12.8884 131.699 10.8204C133.317 9.79713 135.096 8.857 136.969 8.1863C137.906 7.85381 138.871 7.58295 139.825 7.42961L139.981 7.40524L139.973 7.40954C139.971 7.41241 139.975 7.41384 139.975 7.41528L139.976 7.42388C139.976 7.42817 139.973 7.42961 139.973 7.42961C139.973 7.42961 139.976 7.42817 139.981 7.42817L139.988 7.43104L139.991 7.43391L139.912 7.7191C139.617 8.69506 139.252 9.66385 138.838 10.6054C138.006 12.4971 137.005 14.2685 135.949 15.9008C133.826 19.1612 131.456 21.8354 129.184 23.7386C126.925 25.659 124.736 26.7668 123.108 27.2512C121.484 27.737 120.48 27.7112 120.486 27.7327C120.486 27.7069 121.43 28.0408 123.234 27.9778C125.033 27.9247 127.674 27.3071 130.526 25.6948Z" fill="#15594E"/>
<path d="M118.972 29.8249C118.972 27.5145 115.406 27.5145 115.406 29.8249C115.406 32.1368 118.972 32.1368 118.972 29.8249Z" fill="#15594E"/>
<path d="M127.07 17.1791C127.07 20.4136 132.075 20.4136 132.075 17.1791C132.077 13.9459 127.07 13.9459 127.07 17.1791Z" fill="#15594E"/>
<path d="M106.7 43.8855C106.842 43.8597 107.047 43.8296 107.104 43.8124C107.285 43.7679 107.459 43.7249 107.636 43.6762C107.985 43.5816 108.326 43.4627 108.657 43.3323C109.317 43.0643 109.937 42.7146 110.462 42.2818C110.989 41.8432 111.4 41.3101 111.645 40.7799C112.144 39.6835 111.978 38.7706 111.846 38.2389C111.691 37.6915 111.538 37.4307 111.542 37.4278C111.539 37.4264 111.504 37.7359 111.359 38.2404C111.224 38.7362 110.938 39.427 110.369 39.9028C109.812 40.38 108.985 40.6595 107.935 40.8128C107.67 40.8487 107.396 40.8788 107.11 40.9017L106.676 40.9318C106.567 40.9418 106.603 40.9303 106.584 40.926L106.573 40.9103C106.549 40.8716 106.579 40.8429 106.58 40.8415C106.58 40.8415 106.549 40.863 106.517 40.8257C106.488 40.8816 106.56 40.6308 106.594 40.5104L106.723 40.0762C106.806 39.7953 106.891 39.5288 106.987 39.2837C107.345 38.2719 107.785 37.5439 108.397 37.058C109.007 36.5736 109.741 36.3486 110.242 36.2254C110.759 36.1093 111.068 36.0764 111.067 36.0721C111.065 36.0764 110.803 35.9144 110.268 35.7424C109.742 35.5762 108.891 35.3641 107.766 35.6321C107.21 35.774 106.61 36.0577 106.077 36.4819C105.535 36.909 105.056 37.4522 104.663 38.0512C104.461 38.3507 104.285 38.6674 104.114 38.9899C104.033 39.1461 103.955 39.3109 103.874 39.4714C103.792 39.662 103.753 39.728 103.609 40.1006C103.155 41.3388 102.699 42.6931 102.244 44.0632L102.211 44.1706C103.586 44.1291 104.897 44.1248 106.212 43.9528L106.7 43.8855Z" fill="#15594E"/>
<path d="M117.958 43.0513C118.011 42.9381 118.085 42.779 118.108 42.7317C118.168 42.5899 118.223 42.4423 118.274 42.2989C118.379 42.0066 118.47 41.7099 118.539 41.4133C118.677 40.82 118.745 40.2123 118.695 39.6305C118.649 39.05 118.488 38.4969 118.234 38.0626C117.716 37.1798 117.003 36.8373 116.561 36.6739C116.11 36.5077 115.851 36.4905 115.851 36.4862C115.85 36.4876 116.049 36.6682 116.329 37.0136C116.606 37.3532 116.947 37.8935 116.994 38.5241C117.054 39.1504 116.838 39.8669 116.425 40.6738C116.325 40.8787 116.208 41.0865 116.085 41.2929L115.888 41.6139C115.845 41.697 115.855 41.6598 115.843 41.6741H115.827C115.787 41.6727 115.781 41.6311 115.782 41.6297C115.784 41.6297 115.782 41.6641 115.741 41.6698C115.764 41.7214 115.623 41.5437 115.558 41.4591L115.317 41.1596C115.168 40.9604 115.021 40.7712 114.895 40.5835C114.369 39.8325 114.078 39.1661 114.045 38.4997C114.007 37.8348 114.211 37.2156 114.375 36.7986C114.548 36.3816 114.674 36.148 114.671 36.1465C114.673 36.1494 114.432 36.2555 114.047 36.5392C113.674 36.8287 113.104 37.3174 112.742 38.2389C112.562 38.6961 112.469 39.2507 112.497 39.8368C112.525 40.4244 112.668 41.0278 112.89 41.5996C113.006 41.8862 113.132 42.1671 113.271 42.4408C113.345 42.5813 113.418 42.7117 113.493 42.8435C113.587 42.9983 113.613 43.0585 113.802 43.3423C114.436 44.2709 115.158 45.2512 115.887 46.2544L115.941 46.326C116.594 45.3443 117.237 44.4286 117.763 43.4211L117.958 43.0513Z" fill="#15594E"/>
<path d="M110.105 33.7444C110.404 33.3775 110.514 33.1468 110.517 33.1497C110.516 33.1454 110.286 33.2729 109.861 33.4306C109.447 33.5911 108.824 33.7774 108.166 33.7373C107.498 33.7014 106.845 33.4191 106.122 32.9118C105.937 32.7885 105.755 32.6538 105.563 32.5019L105.271 32.2712C105.191 32.2067 105.019 32.0791 105.067 32.1006C105.069 32.0605 105.104 32.0605 105.104 32.0605C105.102 32.0605 105.067 32.0562 105.065 32.0103L105.068 31.9931C105.078 31.9831 105.048 31.9931 105.125 31.9502L105.449 31.7696C105.665 31.6478 105.876 31.5417 106.082 31.4471C106.895 31.0501 107.617 30.8538 108.237 30.9154C108.862 30.9642 109.389 31.2952 109.718 31.5603C110.05 31.8312 110.218 32.0175 110.219 32.0146C110.215 32.0161 110.205 31.7724 110.062 31.3325C109.907 30.9154 109.596 30.2261 108.731 29.7274C108.312 29.4823 107.769 29.3175 107.192 29.2745C106.616 29.2272 106.01 29.2831 105.416 29.4193C105.118 29.4837 104.822 29.564 104.527 29.6686C104.383 29.7173 104.233 29.7689 104.091 29.8234C104.043 29.8406 103.881 29.9108 103.768 29.9681L103.392 30.1444C102.374 30.6503 101.443 31.2608 100.445 31.8771L100.514 31.9287C101.481 32.6338 102.433 33.3303 103.337 33.9436C103.61 34.1256 103.677 34.1586 103.821 34.2417C103.955 34.3148 104.084 34.3836 104.214 34.4581C104.482 34.5914 104.757 34.7147 105.039 34.825C105.602 35.0342 106.196 35.1819 106.778 35.2134C107.359 35.2435 107.921 35.1561 108.375 34.9855C109.301 34.6444 109.805 34.1013 110.105 33.7444Z" fill="#15594E"/>
<path d="M135.459 54.9935L135.834 54.618L136.123 54.2956C137.16 53.1505 138.054 51.9452 138.787 50.7214C140.273 48.2707 141.095 45.7484 141.329 43.6059C141.578 41.4562 141.277 39.7393 140.967 38.6315C140.653 37.5237 140.345 36.9705 140.359 36.9677C140.346 36.9662 140.377 37.5997 140.252 38.6974C140.137 39.7852 139.842 41.3301 139.101 43.0384C138.379 44.7495 137.206 46.6054 135.612 48.4312C134.816 49.347 133.918 50.2585 132.941 51.1527C132.861 51.2272 132.863 51.2215 132.858 51.2187H132.841C132.83 51.2172 132.821 51.2158 132.811 51.2129C132.792 51.2072 132.782 51.2 132.778 51.19C132.767 51.1714 132.769 51.1484 132.772 51.1384L132.774 51.1327C132.774 51.1327 132.765 51.147 132.749 51.1499C132.741 51.1513 132.729 51.1499 132.716 51.1427C132.705 51.1871 132.668 50.6827 132.652 50.4003C132.576 49.0933 132.623 47.8436 132.801 46.6828C133.155 44.3568 134.108 42.4121 135.313 40.9589C136.509 39.4971 137.852 38.5298 138.806 37.9035C139.776 37.2815 140.364 36.9777 140.358 36.972C140.359 36.9805 139.702 36.9906 138.528 37.2184C137.372 37.4549 135.635 37.9106 133.74 39.1861C131.844 40.4272 129.895 42.7059 128.934 45.6954C128.437 47.1758 128.165 48.7881 128.118 50.4505C128.11 50.9019 128.097 51.1484 128.14 51.9467C128.184 52.6862 128.267 53.4357 128.389 54.158C128.503 54.8789 128.658 55.5897 128.837 56.2446L129.421 58.1535L129.832 59.4591C130.958 58.6551 132.005 57.9601 133.09 57.1174C133.633 56.6817 134.171 56.2217 134.696 55.7359C134.958 55.4865 135.207 55.2472 135.459 54.9935Z" fill="#15594E"/>
<path d="M134.541 43.7724C135.026 46.0313 138.515 45.2817 138.038 43.0242C137.553 40.7668 134.063 41.5164 134.541 43.7724Z" fill="#15594E"/>
<path d="M140.887 62.7586C140.887 60.4481 137.312 60.4481 137.312 62.7586C137.312 65.0604 140.887 65.0604 140.887 62.7586Z" fill="#15594E"/>
<path d="M126.176 68.5423C126.176 71.7754 131.181 71.7754 131.181 68.5423C131.181 65.3091 126.176 65.3091 126.176 68.5423Z" fill="#15594E"/>
<path d="M132.676 78.7562C132.672 78.7791 135.549 78.5384 136.916 78.1414C139.11 77.3689 141.421 76.35 143.169 74.8853C143.797 74.2992 144.357 73.6643 144.815 72.9879C145.994 71.281 146.538 69.3649 146.614 67.6337C146.699 65.9011 146.431 64.3246 145.898 62.9675C145.37 61.6174 144.542 60.5397 143.655 59.806C141.817 58.3155 139.958 58.1765 138.862 58.2052C137.725 58.2639 137.175 58.4545 137.174 58.4388C137.173 58.4545 137.764 58.3284 138.902 58.4087C139.998 58.5076 141.777 58.8959 143.249 60.4624C144.725 61.9815 145.529 64.7245 144.997 67.7398C144.729 69.223 144.072 70.7207 142.939 71.966C142.742 72.1867 142.521 72.3888 142.298 72.5852C142.292 72.5637 138.456 75.804 133.17 75.4213C133.073 75.417 129.391 75.8641 126.866 73.1283C124.977 71.0861 120.486 67.7326 120.767 55.67C121.007 55.5252 121.245 55.3662 121.479 55.1913C121.668 55.0509 121.864 54.8932 122.049 54.7327C122.193 54.5937 122.325 54.4748 122.451 54.3486C122.461 54.6725 122.477 54.9978 122.505 55.3203C122.664 56.891 123.178 58.2553 123.862 59.4678C124.546 60.6702 125.434 61.702 126.478 62.4157C127.506 63.1538 128.804 63.4533 129.626 63.3429C130.446 63.2483 130.771 63.0162 130.778 63.0348C130.787 63.0219 130.329 63.0764 129.716 62.903C129.101 62.7367 128.642 62.1649 128.047 61.5229C126.581 59.9507 125.602 57.1045 125.511 52.8195L125.868 48.0257C125.912 47.7964 125.952 47.5728 125.978 47.3622C126.192 45.5005 126.633 42.511 126.644 42.5182C126.635 42.5182 125.212 45.5005 124.124 47.0569C123.379 48.1088 122.398 49.4087 121.235 50.7587C121.676 48.543 122.464 46.402 123.496 44.3755C124.151 43.1058 124.57 41.5351 125.317 40.2367C121.891 44.4228 119.754 48.9615 118.678 53.4214C118.47 53.5934 118.239 53.7697 118.003 53.9316C117.466 54.3085 116.906 54.6553 116.343 54.9506C115.212 55.5396 114.105 55.9193 113.173 55.9982C112.236 56.0942 111.428 55.8405 110.933 55.5582C110.426 55.2759 110.185 55.048 110.18 55.0537C110.19 55.0509 110.184 55.3361 110.437 55.8334C110.674 56.3034 111.351 57.0773 112.8 57.4012C114.224 57.7308 116.04 57.5603 117.741 57.04C117.848 57.0028 117.947 56.9655 118.046 56.9326C117.967 57.599 117.908 58.2682 117.876 58.9246C117.034 75.46 130.143 78.7476 132.676 78.7562Z" fill="#15594E"/>
<path d="M140.366 94.5348C139.142 99.0592 138.581 104.355 139.201 109.78C139.267 110.414 139.351 111.039 139.45 111.659C139.153 111.216 138.864 110.733 138.606 110.185C137.919 108.756 137.412 106.993 137.15 104.954C136.629 100.884 137.04 95.7329 138.635 90.1595C139.027 88.7507 139.541 87.4194 140.117 85.8587C140.674 84.3267 141.213 82.723 141.685 81.0076C142.079 79.5085 142.451 77.9479 142.589 76.1693C141.187 77.0722 139.715 77.8203 138.177 78.3649C138.089 79.0055 137.989 79.6418 137.862 80.2652C137.544 81.8775 137.146 83.4525 136.72 84.9845C136.294 86.4907 135.842 88.1374 135.566 89.6579C134.413 95.7917 134.571 101.216 135.622 105.454C136.155 107.575 136.924 109.382 137.839 110.782C138.423 111.689 139.055 112.412 139.673 112.996C140.426 117.161 141.629 120.996 142.559 124.496C143.146 126.687 143.617 128.772 143.895 130.746C144.178 132.715 144.266 134.571 144.189 136.269C144.047 139.665 143.311 142.387 142.735 144.228C142.148 146.073 141.715 147.072 141.724 147.073C141.715 147.069 142.291 146.156 143.122 144.38C143.928 142.606 145.006 139.926 145.502 136.385C145.742 134.621 145.828 132.655 145.684 130.561C145.552 128.466 145.198 126.257 144.716 123.978C144.108 121.083 143.321 118.087 142.689 114.971C142.724 114.986 142.762 115 142.798 115.013C142.781 114.955 142.768 114.895 142.751 114.838C142.716 114.818 142.686 114.802 142.653 114.775C142.308 113.055 142.007 111.294 141.813 109.492C141.234 104.366 141.596 99.4447 142.529 95.045C143.447 90.6353 144.748 86.6856 145.5 83.2518C146.284 79.8181 146.508 76.9518 146.474 74.9928C146.443 73.0351 146.256 71.966 146.266 71.966C146.221 71.9431 146.444 76.3686 144.227 82.905C143.182 86.1754 141.574 89.9961 140.366 94.5348Z" fill="#15594E"/>
<path d="M133.116 96.8396C132.754 96.1403 132.489 95.1887 132.433 94.0522C132.375 92.91 132.506 91.5772 132.801 90.0968C133.368 87.1216 134.659 83.6162 135.75 79.2265C135.757 79.1907 135.764 79.1534 135.773 79.1162C135.283 79.238 134.779 79.3455 134.261 79.4128C134.251 79.4143 134.243 79.42 134.233 79.42C134.193 79.4243 134.153 79.4229 134.113 79.4272C133.622 79.4859 133.122 79.5203 132.614 79.5203C132.599 79.5203 132.589 79.5146 132.577 79.5117C132.037 83.4944 131.301 87.0557 131.2 90.0595C131.136 91.6503 131.219 93.0777 131.5 94.2887C131.772 95.4997 132.254 96.4713 132.761 97.1306C133.278 97.7941 133.791 98.1725 134.135 98.4003C134.483 98.6282 134.677 98.7113 134.676 98.7156C134.679 98.7127 134.498 98.5881 134.196 98.2986C133.897 98.0105 133.477 97.5433 133.116 96.8396Z" fill="#15594E"/>
<path d="M133.758 67.1177C133.031 66.5029 132.236 66.0515 131.414 65.7032C132.409 66.2364 133.15 67.2367 133.15 68.7171C133.15 69.9009 132.676 70.7794 131.978 71.3569C132.205 71.6937 132.389 72.0935 132.531 72.5464C132.713 73.1469 132.81 73.8176 132.859 74.517C134.539 74.8265 136.704 74.1802 136.704 74.1802C136.217 72.2282 135.163 68.2943 133.758 67.1177Z" fill="#15594E"/>
<path d="M141.8 71.5073C141.343 70.7349 140.635 70.1115 139.793 69.7675C139.369 69.5869 138.92 69.4909 138.454 69.4465C137.982 69.3992 137.102 69.415 136.289 68.5407L137.861 74.0726C137.987 74.054 141.009 72.7269 141.951 71.7696C141.906 71.6736 141.857 71.5876 141.8 71.5073Z" fill="#15594E"/>
<path d="M120.802 86.3776C120.801 86.3604 120.785 86.3919 120.799 86.3031L120.836 85.9247C120.864 85.6739 120.895 85.4346 120.931 85.2024C121.084 84.2867 121.348 83.573 121.783 83.0943C122.204 82.6114 122.816 82.3778 123.252 82.2631C123.689 82.1542 123.961 82.1313 123.96 82.1284C123.957 82.1327 123.732 81.9865 123.264 81.8446C122.801 81.7157 122.015 81.5494 121.044 81.955C120.576 82.1585 120.102 82.5067 119.714 82.9582C119.323 83.4024 119.005 83.9399 118.754 84.5117C118.627 84.7983 118.521 85.095 118.431 85.4002C118.381 85.5478 118.338 85.7055 118.3 85.856C118.285 85.9133 118.253 86.0853 118.227 86.2157L118.157 86.6341C117.977 87.7821 117.944 88.9271 117.875 90.131L117.965 90.098C119.174 89.7297 120.36 89.3685 121.451 88.9974C121.782 88.8784 121.84 88.8455 122.008 88.7781C122.15 88.7165 122.289 88.6534 122.435 88.5789C122.718 88.4456 122.995 88.2908 123.261 88.1275C123.788 87.7964 124.278 87.388 124.656 86.9279C125.045 86.4636 125.302 85.952 125.438 85.4676C125.704 84.4931 125.529 83.7407 125.403 83.2792C125.257 82.8034 125.13 82.5712 125.134 82.5684C125.13 82.5669 125.094 82.8378 124.975 83.2878C124.862 83.7249 124.647 84.3555 124.213 84.8786C123.774 85.4074 123.128 85.7743 122.241 86.0666C122.027 86.1383 121.79 86.2128 121.544 86.2787L121.167 86.3762C121.054 86.4048 120.842 86.4622 120.891 86.4364C120.859 86.4077 120.878 86.3805 120.878 86.3805C120.877 86.3819 120.852 86.4091 120.816 86.3862L120.802 86.3776Z" fill="#15594E"/>
<path d="M124.435 77.9565C124.729 78.2102 124.878 78.3907 124.878 78.3864C124.873 78.3864 124.865 78.16 124.736 77.7544C124.598 77.3704 124.321 76.7383 123.564 76.2626C123.189 76.0361 122.715 75.8756 122.208 75.824C121.704 75.7724 121.176 75.8111 120.653 75.9186C120.391 75.9759 120.132 76.0476 119.873 76.1307C119.747 76.1723 119.623 76.2181 119.492 76.2669C119.45 76.2869 119.314 76.35 119.21 76.3915L118.88 76.5463C117.994 76.9906 117.186 77.5337 116.312 78.0726L116.374 78.1285C117.228 78.7892 118.06 79.4384 118.859 80.0159C119.102 80.1936 119.154 80.218 119.28 80.2982C119.399 80.3656 119.512 80.4329 119.633 80.5032C119.864 80.6307 120.107 80.7468 120.355 80.8543C120.851 81.0564 121.368 81.2025 121.879 81.2398C122.392 81.2785 122.876 81.2097 123.281 81.0607C124.086 80.764 124.527 80.2825 124.787 79.9614C125.048 79.6318 125.143 79.424 125.144 79.424C125.144 79.4212 124.936 79.5258 124.57 79.6691C124.207 79.8024 123.662 79.9686 123.082 79.9199C122.502 79.8683 121.925 79.6046 121.286 79.1274C121.13 79.0127 120.964 78.8794 120.799 78.7433L120.541 78.5283C120.464 78.4681 120.321 78.3406 120.359 78.3621C120.364 78.3263 120.392 78.3248 120.392 78.3248C120.391 78.3263 120.359 78.3205 120.358 78.2847L120.359 78.2704C120.37 78.2618 120.342 78.2689 120.41 78.2317L120.693 78.0683C120.884 77.9665 121.061 77.8748 121.243 77.7903C121.955 77.4391 122.585 77.2743 123.126 77.3403C123.679 77.3947 124.144 77.7057 124.435 77.9565Z" fill="#15594E"/>
<path d="M128.538 91.961C129.1 91.0997 129.654 90.2986 130.112 89.423L130.281 89.0977C130.327 89.0002 130.391 88.8598 130.413 88.8182C130.466 88.695 130.515 88.5645 130.559 88.4399C130.651 88.1848 130.735 87.9254 130.798 87.666C130.923 87.1543 130.986 86.6241 130.957 86.1182C130.931 85.618 130.807 85.1379 130.601 84.7668C130.188 83.9957 129.595 83.7077 129.236 83.5701C128.853 83.4282 128.643 83.4139 128.644 83.411C128.642 83.4125 128.799 83.5687 129.028 83.8668C129.254 84.162 129.531 84.6234 129.559 85.1738C129.597 85.7184 129.405 86.3403 129.045 87.044C128.957 87.2217 128.852 87.3994 128.747 87.5857L128.577 87.8652C128.54 87.9311 128.548 87.9053 128.538 87.9153H128.524C128.491 87.9139 128.488 87.8824 128.49 87.8809C128.49 87.8809 128.488 87.911 128.452 87.9139C128.471 87.954 128.364 87.8079 128.304 87.7362L128.115 87.4754C127.986 87.302 127.872 87.1415 127.771 86.9752C127.343 86.3303 127.114 85.7513 127.095 85.1695C127.073 84.5919 127.258 84.0502 127.407 83.6905C127.555 83.3293 127.665 83.123 127.661 83.123C127.662 83.1244 127.466 83.2233 127.138 83.4698C126.82 83.7234 126.333 84.1562 126.014 84.9531C125.855 85.3543 125.765 85.8359 125.779 86.3475C125.792 86.8591 125.901 87.3765 126.078 87.8738C126.164 88.1231 126.27 88.3682 126.382 88.5989C126.436 88.7222 126.496 88.8368 126.561 88.9558C126.631 89.0833 126.652 89.1349 126.811 89.38C127.32 90.1868 127.901 91.0367 128.494 91.8923L128.538 91.961Z" fill="#15594E"/>
<path d="M125.879 80.6509C125.879 82.9599 129.453 82.9599 129.453 80.6509C129.453 78.3405 125.879 78.3405 125.879 80.6509Z" fill="#15594E"/>
<path d="M145.691 17.0759C145.455 19.2457 144.802 21.7565 143.434 24.1699C142.818 25.2748 142.042 26.3526 141.144 27.3729C140.44 28.1798 139.648 28.9465 138.784 29.676C138.343 30.0486 137.882 30.4112 137.402 30.7565C136.095 31.6909 134.73 32.482 133.352 33.1083C131.99 33.7346 130.58 34.1889 129.192 34.5429C126.427 35.2408 123.823 35.4988 121.64 35.4214C119.457 35.3425 117.703 34.9097 116.537 34.4569C115.364 34.0083 114.777 33.5941 114.766 33.6099C114.78 33.5956 115.22 34.1674 116.291 34.9198C117.352 35.6793 119.093 36.5736 121.423 37.0867C123.737 37.6098 126.609 37.7817 129.738 37.3289C131.294 37.0996 132.948 36.7269 134.594 36.082C136.235 35.4457 137.843 34.5816 139.357 33.491C139.481 33.4064 139.592 33.3147 139.708 33.2215C140.631 32.5351 141.484 31.7827 142.258 30.9715C143.874 29.2761 145.144 27.3729 145.973 25.4282C147.283 22.4373 147.547 19.4678 147.374 17.106C147.196 14.727 146.635 12.9055 146.208 11.6888C145.767 10.4735 145.436 9.84152 145.446 9.83865C145.436 9.84009 145.566 10.5409 145.695 11.8035C145.817 13.0603 145.937 14.8976 145.691 17.0759Z" fill="#15594E"/>
<path d="M140.469 34.1417C141.005 35.6565 141.659 37.1326 142.365 38.6116C142.719 39.3554 143.087 40.072 143.448 40.7813C143.643 41.1525 143.792 41.4377 143.932 41.7487C144.079 42.0568 144.204 42.3707 144.326 42.686C144.793 43.9486 145.062 45.2541 145.163 46.5224C145.357 49.0519 144.857 51.3936 143.952 53.1249C143.063 54.8675 141.772 55.9696 140.778 56.55C139.777 57.1376 139.109 57.301 139.117 57.3182C139.114 57.2981 139.792 57.3569 140.986 57.0373C142.16 56.722 143.897 55.8793 145.351 54.055C146.805 52.2578 147.89 49.5678 147.993 46.4752C148.048 44.9345 147.871 43.2993 147.373 41.6627C147.251 41.2557 147.107 40.8501 146.939 40.4431C146.779 40.0419 146.578 39.632 146.422 39.2981L145.391 37.1541C144.702 35.7167 144.034 34.3223 143.468 32.9866C143.26 32.5036 143.081 32.0264 142.905 31.5578C142.13 32.3675 141.283 33.1184 140.362 33.8063C140.399 33.9224 140.43 34.0328 140.469 34.1417Z" fill="#15594E"/>
<path d="M140.902 26.5331L140.677 25.689C140.525 25.1257 140.438 24.5611 140.392 24.0007C140.293 22.8829 140.395 21.8152 140.61 20.8608C141.046 18.9447 142 17.5431 142.815 16.7377C143.633 15.9179 144.256 15.6141 144.237 15.6026C144.248 15.6198 143.572 15.7044 142.497 16.3163C141.432 16.9211 139.977 18.1865 139.026 20.3133C138.555 21.3609 138.197 22.6049 138.095 23.9893C138.045 24.6772 138.049 25.3995 138.135 26.1447C138.228 26.8612 138.318 27.5033 138.437 28.237C138.467 28.432 138.509 28.634 138.55 28.8361C139.407 28.1081 140.197 27.3413 140.902 26.5331Z" fill="#15594E"/>
<path d="M92.0298 12.8038L92.3964 12.4197L92.7028 12.1159C93.8313 11.0597 95.0142 10.1382 96.22 9.36859C98.6244 7.82655 101.125 6.94804 103.259 6.66572C105.398 6.37049 107.118 6.63275 108.231 6.92081C109.343 7.2103 109.902 7.50266 109.905 7.4912C109.906 7.50266 109.273 7.48833 108.186 7.63021C107.096 7.77639 105.563 8.10601 103.873 8.88563C102.189 9.64662 100.361 10.8619 98.5743 12.5043C97.6778 13.314 96.7885 14.2355 95.9164 15.2401C95.8405 15.3218 95.8505 15.3204 95.8533 15.3232V15.3404C95.8562 15.3505 95.8576 15.3605 95.8605 15.3677C95.8662 15.382 95.8748 15.392 95.8849 15.3977C95.9035 15.4092 95.9264 15.4049 95.9378 15.4006L95.9436 15.3977C95.9436 15.3977 95.9292 15.4049 95.9264 15.4221C95.9249 15.4307 95.9264 15.4422 95.935 15.4536C95.892 15.4665 96.3875 15.4995 96.6754 15.5095C97.9857 15.5568 99.2301 15.4751 100.384 15.2716C102.691 14.8661 104.619 13.87 106.035 12.6318C107.467 11.4036 108.404 10.0293 109.007 9.0619C109.607 8.08164 109.898 7.4869 109.903 7.49263C109.896 7.49263 109.899 8.14327 109.704 9.3256C109.488 10.4936 109.074 12.2434 107.838 14.171C106.641 16.0914 104.416 18.0992 101.456 19.1339C99.9891 19.657 98.3852 19.9651 96.7326 20.0554C96.2772 20.0755 96.0324 20.0912 95.2347 20.0669C94.4943 20.0396 93.7525 19.9651 93.0222 19.8662C92.3004 19.7673 91.5858 19.6283 90.9299 19.4635L89.011 18.9204L87.6992 18.5449C88.4754 17.3941 89.1485 16.3293 89.9633 15.2229C90.3786 14.6697 90.834 14.1194 91.3008 13.5863C91.5429 13.3169 91.782 13.0546 92.0298 12.8038Z" fill="#15594E"/>
<path d="M103.245 13.4693C100.985 13.0322 101.653 9.52207 103.913 9.95062C106.18 10.3878 105.511 13.8993 103.245 13.4693Z" fill="#15594E"/>
<path d="M84.1635 7.53994C86.462 7.48834 86.5465 11.0687 84.2423 11.1188C81.9352 11.169 81.8579 7.59011 84.1635 7.53994Z" fill="#15594E"/>
<path d="M78.7181 22.3972C75.4903 22.476 75.3743 17.4629 78.6007 17.3927C81.8286 17.321 81.9374 22.3255 78.7181 22.3972Z" fill="#15594E"/>
<path d="M68.377 16.1259C68.3541 16.1288 68.5316 13.2425 68.8968 11.8581C69.6128 9.64387 70.5809 7.30501 72.0029 5.5265C72.5729 4.8816 73.1958 4.30835 73.8603 3.83398C75.5372 2.61583 77.439 2.02968 79.1632 1.9093C80.8903 1.79321 82.4698 2.02681 83.836 2.52267C85.195 3.02283 86.2891 3.82825 87.041 4.70676C88.5675 6.50676 88.7465 8.36553 88.7437 9.46617C88.7179 10.6055 88.5317 11.1616 88.5475 11.163C88.5317 11.1659 88.652 10.5697 88.5389 9.43177C88.4172 8.33686 87.989 6.56265 86.3951 5.12523C84.847 3.68064 82.0918 2.94258 79.093 3.54163C77.6195 3.84115 76.1387 4.53335 74.92 5.69418C74.7067 5.89768 74.5162 6.12125 74.3171 6.35055C74.3386 6.35628 71.1953 10.2673 71.6936 15.5612C71.6993 15.6515 71.3356 19.349 74.1195 21.8226C76.1989 23.6641 79.6501 28.0825 91.6837 27.5336C91.824 27.2928 91.9773 27.0506 92.1405 26.8127C92.2837 26.6149 92.4298 26.4215 92.5916 26.2323C92.7205 26.0847 92.8422 25.95 92.9668 25.821C92.6432 25.8181 92.3181 25.8095 91.9944 25.788C90.4177 25.6633 89.0516 25.1775 87.8257 24.5226C86.6099 23.8619 85.5559 22.9934 84.8198 21.9645C84.0608 20.9584 83.7343 19.6586 83.8303 18.8388C83.9019 18.0148 84.1267 17.6837 84.1095 17.678C84.1224 17.6694 84.078 18.1222 84.2642 18.7328C84.4475 19.3447 85.0303 19.8004 85.6791 20.3794C87.2815 21.8082 90.15 22.7297 94.4275 22.7197L99.2034 22.2539C99.4225 22.2081 99.6459 22.168 99.8564 22.1364C101.71 21.8756 104.684 21.3683 104.677 21.3568C104.677 21.3654 101.73 22.8559 100.202 23.9895C99.1748 24.749 97.8931 25.7694 96.577 26.9618C98.7724 26.4659 100.89 25.629 102.894 24.5512C104.144 23.8676 105.702 23.4119 106.99 22.6352C102.887 26.1578 98.4029 28.3992 93.9778 29.5743C93.8117 29.7936 93.6399 30.0272 93.4823 30.268C93.1143 30.8054 92.7849 31.3815 92.5014 31.9519C91.9443 33.0955 91.5834 34.2148 91.5247 35.1506C91.4488 36.0922 91.7281 36.8947 92.0202 37.3849C92.3124 37.8865 92.5458 38.1244 92.5386 38.1301C92.5415 38.1186 92.2565 38.1315 91.7553 37.8879C91.2755 37.6615 90.4951 37.0022 90.1385 35.5562C89.7719 34.1374 89.9008 32.3159 90.3848 30.6005C90.4135 30.493 90.4535 30.3927 90.4851 30.2938C89.8149 30.3869 89.1547 30.46 88.5017 30.5073C72.0158 31.7126 68.4414 18.6625 68.377 16.1259Z" fill="#15594E"/>
<path d="M52.4534 8.77397C47.9653 10.1039 42.7011 10.7846 37.2721 10.283C36.6377 10.23 36.0119 10.1612 35.3875 10.0795C35.8401 10.3633 36.3284 10.6413 36.8755 10.8878C38.3161 11.537 40.0933 12.0128 42.134 12.2307C46.201 12.6577 51.3306 12.1318 56.867 10.4135C58.2632 9.98209 59.5821 9.43751 61.1202 8.82843C62.6367 8.23655 64.2249 7.65613 65.9262 7.15167C67.4155 6.71743 68.9635 6.31616 70.735 6.13415C69.8657 7.55725 69.1583 9.05056 68.6413 10.6012C68.0112 10.7087 67.3783 10.8248 66.7582 10.9581C65.1485 11.3192 63.5862 11.7534 62.0653 12.212C60.5717 12.6721 58.9449 13.1665 57.4355 13.4775C51.3306 14.7659 45.9146 14.7286 41.6628 13.7741C39.5391 13.2883 37.7204 12.556 36.2955 11.6717C35.3775 11.1071 34.6515 10.4909 34.0543 9.88177C29.8727 9.22684 26.019 8.1047 22.5134 7.25199C20.3066 6.71313 18.2143 6.28606 16.2438 6.05103C14.269 5.81027 12.4159 5.77014 10.7218 5.88622C7.33643 6.10406 4.63557 6.89944 2.81113 7.51712C0.982391 8.14913 0.00143206 8.60773 0 8.59769C0.00286411 8.60486 0.902196 8.00868 2.65503 7.13877C4.40214 6.28606 7.05288 5.14673 10.5757 4.57205C12.3314 4.28685 14.2905 4.16361 16.3842 4.25676C18.4778 4.34275 20.6975 4.64943 22.9731 5.08081C25.8758 5.62683 28.8846 6.34196 32.0065 6.90661C31.9921 6.87221 31.9778 6.83925 31.9635 6.80485C32.0222 6.82205 32.0809 6.83208 32.1468 6.84498C32.1669 6.87651 32.184 6.90661 32.2055 6.93814C33.9369 7.24626 35.694 7.50852 37.497 7.659C42.6309 8.12763 47.5314 7.6547 51.8977 6.62428C56.2784 5.6082 60.1922 4.2109 63.6034 3.38112C67.0145 2.51551 69.8672 2.22745 71.8248 2.21885C73.7796 2.20882 74.8493 2.37077 74.8493 2.3593C74.8736 2.40516 70.4515 2.28621 63.9829 4.64227C60.7335 5.76441 56.9572 7.46553 52.4534 8.77397Z" fill="#15594E"/>
<path d="M50.3201 16.0829C51.0319 16.4354 51.9813 16.6733 53.1169 16.7106C54.2583 16.745 55.5858 16.5758 57.0565 16.2477C60.0123 15.6128 63.4822 14.2456 67.8342 13.0504C67.8771 13.0418 67.9144 13.0332 67.9502 13.0246C67.8313 13.5247 67.7425 14.032 67.6881 14.5451C67.6867 14.5551 67.681 14.5623 67.681 14.5723C67.6781 14.6196 67.6809 14.6598 67.6767 14.6999C67.6294 15.1886 67.6065 15.6887 67.6179 16.2032C67.6179 16.2176 67.6237 16.2276 67.6251 16.2405C63.6655 16.8696 60.124 17.6837 57.1281 17.8513C55.5428 17.9588 54.1151 17.9044 52.9007 17.6521C51.6863 17.4071 50.7068 16.9427 50.0366 16.4497C49.3635 15.9467 48.9754 15.4422 48.7391 15.1026C48.5057 14.7601 48.4169 14.5652 48.4141 14.5666C48.4169 14.5652 48.5444 14.7429 48.8394 15.0395C49.133 15.3319 49.6098 15.7418 50.3201 16.0829Z" fill="#15594E"/>
<path d="M79.9682 14.78C80.5983 15.4922 81.0665 16.279 81.4317 17.0959C80.8775 16.1099 79.8565 15.3919 78.38 15.4234C77.2 15.4507 76.3393 15.9437 75.778 16.6545C75.4371 16.4381 75.0347 16.2604 74.5808 16.1328C73.9779 15.958 73.3048 15.8777 72.6074 15.8462C72.2623 14.1652 72.8594 11.9825 72.8594 11.9825C74.8156 12.4296 78.7652 13.397 79.9682 14.78Z" fill="#15594E"/>
<path d="M75.4114 6.82206C76.1848 7.26346 76.822 7.95566 77.1843 8.79404C77.3734 9.21395 77.4779 9.66251 77.5409 10.1268C77.5982 10.5983 77.6011 11.4797 78.4918 12.2751L72.9297 10.8219C72.944 10.703 74.2099 7.64037 75.1465 6.67588C75.2353 6.72031 75.3227 6.7719 75.4114 6.82206Z" fill="#15594E"/>
<path d="M61.0355 28.1928C61.0527 28.1928 61.0211 28.2057 61.1099 28.1928L61.4866 28.1469C61.7357 28.1082 61.9749 28.071 62.204 28.028C63.1148 27.8574 63.8222 27.5765 64.2891 27.1308C64.7617 26.698 64.9808 26.0818 65.0796 25.6404C65.1841 25.2004 65.2013 24.9281 65.2056 24.9295C65.2013 24.931 65.346 25.1531 65.5049 25.6203C65.6438 26.0789 65.8271 26.8643 65.4362 27.8445C65.2514 28.3174 64.9135 28.8004 64.471 29.1988C64.0356 29.6001 63.5086 29.934 62.9415 30.1934C62.658 30.3267 62.3644 30.4385 62.0622 30.5431C61.9147 30.5918 61.7615 30.6362 61.6097 30.6778C61.5539 30.695 61.3835 30.7308 61.2589 30.7595L60.8364 30.8455C59.6951 31.0447 58.5566 31.102 57.3594 31.2038L57.3837 31.1077C57.7245 29.8896 58.0597 28.6929 58.4048 27.598C58.5079 27.2655 58.5408 27.1982 58.611 27.0362C58.6697 26.8858 58.7284 26.7439 58.7929 26.5963C58.9275 26.3096 59.0692 26.0359 59.2339 25.7651C59.5547 25.2248 59.9428 24.7246 60.3996 24.3348C60.8479 23.9421 61.3605 23.6684 61.8331 23.5208C62.8069 23.2327 63.5544 23.3904 64.0256 23.5064C64.4967 23.6426 64.7316 23.7658 64.733 23.7615C64.7345 23.7658 64.4652 23.8074 64.0256 23.9364C63.5845 24.0582 62.9587 24.2889 62.4489 24.7346C61.9377 25.1875 61.5839 25.8424 61.3118 26.7367C61.2388 26.9603 61.1758 27.191 61.1157 27.4404L61.0254 27.8202C61.0011 27.9334 60.9409 28.1541 60.971 28.0982C60.9997 28.134 61.0283 28.1096 61.0283 28.1096C61.0269 28.1111 61.0011 28.1426 61.024 28.177L61.0355 28.1928Z" fill="#15594E"/>
<path d="M69.3563 24.3621C69.1028 24.0712 68.921 23.9279 68.9238 23.9279C68.9224 23.9322 69.1515 23.9365 69.5511 24.0554C69.9377 24.1787 70.575 24.4423 71.0662 25.1962C71.3068 25.5616 71.4729 26.0374 71.5388 26.539C71.6018 27.0463 71.5746 27.578 71.4758 28.0968C71.4256 28.3591 71.3626 28.6228 71.2839 28.8822C71.2452 29.0083 71.2037 29.1416 71.1507 29.2677C71.1378 29.3092 71.0776 29.454 71.039 29.5529L70.89 29.8868C70.4676 30.7825 69.942 31.6108 69.425 32.4965L69.3678 32.4363C68.689 31.5965 68.0245 30.7696 67.4288 29.9914C67.2455 29.7521 67.2197 29.6991 67.1381 29.5686C67.0679 29.4569 66.9991 29.3451 66.9261 29.2247C66.7944 28.9911 66.6726 28.7561 66.5609 28.511C66.3404 28.0194 66.1915 27.4978 66.1428 26.9919C66.0927 26.4803 66.1514 25.9858 66.2831 25.5831C66.5609 24.7648 67.0392 24.3191 67.3543 24.0497C67.6779 23.7817 67.8856 23.6842 67.8827 23.6799C67.887 23.6814 67.7782 23.8849 67.6507 24.2618C67.519 24.6258 67.3715 25.1761 67.4345 25.7565C67.4903 26.3384 67.7725 26.9016 68.2637 27.5365C68.3811 27.6912 68.5186 27.8546 68.6575 28.0166L68.8794 28.2702C68.9424 28.339 69.0656 28.4881 69.0413 28.4494C69.0842 28.4451 69.0842 28.4092 69.0842 28.4092C69.0842 28.4092 69.0885 28.4479 69.1257 28.4494L69.1386 28.4479C69.1487 28.435 69.1415 28.4637 69.1759 28.3892L69.3262 28.1011C69.4308 27.9162 69.5181 27.7285 69.5998 27.5508C69.9263 26.8242 70.0838 26.1922 70.0065 25.6476C69.9334 25.0987 69.6126 24.6473 69.3563 24.3621Z" fill="#15594E"/>
<path d="M55.2969 20.5599C56.1375 19.9794 56.9251 19.4148 57.7887 18.929L58.1094 18.7527C58.2054 18.704 58.3457 18.6366 58.3858 18.6194C58.5075 18.5649 58.6364 18.5148 58.761 18.4589C59.0131 18.3629 59.268 18.2798 59.5272 18.211C60.0356 18.0662 60.5626 17.9931 61.0681 18.0103C61.575 18.0232 62.049 18.1379 62.4257 18.3356C63.2047 18.7326 63.5026 19.3188 63.6515 19.677C63.8004 20.0568 63.8176 20.2675 63.8219 20.2675C63.8205 20.2704 63.6687 20.1142 63.3594 19.892C63.0672 19.6727 62.5932 19.4119 62.0447 19.389C61.5005 19.3618 60.8833 19.5696 60.1888 19.945C60.0126 20.0439 59.8379 20.1457 59.6546 20.2546L59.3797 20.4309C59.3152 20.471 59.341 20.461 59.331 20.471V20.4853C59.3338 20.5183 59.3639 20.5212 59.3668 20.5197C59.3668 20.5197 59.3381 20.5212 59.3353 20.557C59.2952 20.5398 59.4441 20.6501 59.5229 20.7032L59.7878 20.8866C59.9568 21.0113 60.1272 21.1216 60.2862 21.2277C60.9392 21.6347 61.5235 21.8554 62.1034 21.8568C62.6806 21.864 63.2161 21.6691 63.5713 21.5157C63.9293 21.3552 64.1327 21.2406 64.1327 21.2449C64.1312 21.2435 64.0439 21.4427 63.799 21.7766C63.5527 22.1005 63.1388 22.5963 62.3426 22.936C61.9545 23.1037 61.4662 23.204 60.9564 23.2011C60.4523 23.2011 59.9267 23.1022 59.4255 22.936C59.182 22.8557 58.9357 22.7611 58.6951 22.6479C58.5777 22.5949 58.456 22.539 58.3429 22.4831C58.2068 22.4114 58.1553 22.3885 57.9061 22.2409C57.0984 21.7422 56.2363 21.179 55.3628 20.6043L55.2969 20.5599Z" fill="#15594E"/>
<path d="M66.6324 22.9681C64.3354 23.0254 64.2494 19.4465 66.5551 19.3892C68.8607 19.3376 68.938 22.9179 66.6324 22.9681Z" fill="#15594E"/>
<path d="M129.642 1.70275C127.482 1.99367 124.985 2.6959 122.611 4.12616C121.523 4.76677 120.464 5.56502 119.466 6.48939C118.676 7.21312 117.928 8.02283 117.228 8.90277C116.859 9.3542 116.506 9.82427 116.173 10.3115C115.269 11.64 114.516 13.0244 113.92 14.4189C113.324 15.8033 112.903 17.2192 112.58 18.6165C111.942 21.4011 111.743 24.0208 111.876 26.2006C111.997 28.3847 112.474 30.1331 112.95 31.2911C113.426 32.4547 113.851 33.0395 113.835 33.0481C113.85 33.0366 113.27 32.6038 112.496 31.5504C111.715 30.5028 110.784 28.7845 110.215 26.4628C109.642 24.1484 109.413 21.2835 109.79 18.135C109.983 16.57 110.321 14.9119 110.928 13.2437C111.527 11.5927 112.348 9.95612 113.402 8.41694C113.483 8.29799 113.578 8.17761 113.664 8.06009C114.33 7.1214 115.061 6.25006 115.852 5.4561C117.509 3.80228 119.379 2.48094 121.299 1.60673C124.259 0.236662 127.217 -0.0986893 129.578 0.0231263C131.957 0.142076 133.785 0.663733 135.01 1.07074C136.233 1.48635 136.87 1.7959 136.873 1.79017C136.873 1.7959 136.17 1.68842 134.901 1.5795C133.639 1.48921 131.808 1.40896 129.642 1.70275Z" fill="#15594E"/>
<path d="M112.724 7.315C111.203 6.8177 109.711 6.19573 108.219 5.51499C107.47 5.17678 106.747 4.83139 106.031 4.48458C105.657 4.29684 105.369 4.15496 105.055 4.01451C104.745 3.88123 104.428 3.75942 104.112 3.64763C102.84 3.20766 101.524 2.96833 100.264 2.89954C97.7347 2.75336 95.409 3.31371 93.7006 4.25384C91.9807 5.18537 90.9081 6.50385 90.351 7.5099C89.7882 8.52599 89.6379 9.19956 89.625 9.19096C89.6422 9.19383 89.5749 8.51739 89.8684 7.31357C90.1563 6.1298 90.9511 4.37279 92.7426 2.87661C94.5054 1.38186 97.1662 0.235361 100.244 0.0576534C101.779 -0.0312003 103.423 0.109246 105.06 0.572145C105.475 0.685362 105.882 0.821509 106.286 0.974853C106.697 1.1325 107.112 1.31737 107.447 1.47358L109.605 2.45241C111.059 3.11164 112.465 3.75082 113.81 4.28681C114.296 4.48458 114.776 4.65369 115.249 4.81849C114.457 5.61245 113.726 6.48379 113.059 7.42248C112.943 7.38809 112.833 7.35083 112.724 7.315Z" fill="#15594E"/>
<path d="M120.308 6.70997L121.156 6.92494C121.726 7.05965 122.288 7.13847 122.847 7.17287C123.964 7.24023 125.032 7.12128 125.977 6.87908C127.881 6.40042 129.258 5.41442 130.045 4.58178C130.845 3.7391 131.134 3.11426 131.146 3.12716C131.129 3.11856 131.06 3.80073 130.471 4.89133C129.891 5.97048 128.66 7.4552 126.563 8.45408C125.521 8.95568 124.289 9.33546 122.916 9.47017C122.225 9.54039 121.504 9.55186 120.758 9.4802C120.04 9.39995 119.397 9.32829 118.664 9.22654C118.472 9.19931 118.266 9.15631 118.062 9.12479C118.77 8.24341 119.516 7.44086 120.308 6.70997Z" fill="#15594E"/>
</svg>
