<svg width="38" height="26" viewBox="0 0 38 26" fill="none" xmlns="http://www.w3.org/2000/svg">
<g clip-path="url(#clip0_7_283)">
<path d="M8.47108 0C3.79985 0 0 3.65591 0 8.15026C0 12.4859 3.53639 16.0419 7.97973 16.2876C8.05667 17.0868 7.99895 19.2621 5.83234 22.2883C5.66856 22.5165 5.69828 22.8244 5.9017 23.0201C6.7883 23.8731 7.33624 24.4104 7.71973 24.7861C8.22165 25.2774 8.45073 25.5017 8.78588 25.7945C8.89952 25.8937 9.04289 25.9436 9.18692 25.9436C9.32677 25.9436 9.46608 25.8965 9.57859 25.8028C13.354 22.6421 17.5479 16.1115 16.9411 8.10874C16.5855 3.4103 13.0235 0 8.47108 0ZM9.19271 24.5848C9.03012 24.4306 8.84473 24.2489 8.57136 23.9813C8.23913 23.6555 7.7833 23.2091 7.09199 22.5417C9.72142 18.6435 9.22476 15.867 9.00738 15.4688C8.90418 15.2798 8.69258 15.1525 8.47108 15.1525C4.4585 15.1525 1.19376 12.0114 1.19376 8.15026C1.19376 4.28962 4.4585 1.14854 8.47108 1.14854C12.38 1.14854 15.4413 4.11074 15.7508 8.19172C16.4328 17.1928 10.8726 23.0369 9.19271 24.5848Z" fill="#15594E"/>
<path d="M37.9412 8.10874C37.5845 3.41087 34.0221 0 29.4712 0C24.8002 0 21 3.65591 21 8.15026C21 12.4859 24.5368 16.0419 28.9804 16.2876C29.0574 17.0862 28.999 19.2604 26.832 22.2883C26.6683 22.5165 26.698 22.8244 26.9014 23.0201C27.7844 23.8697 28.3311 24.4059 28.7146 24.781C29.2188 25.2757 29.4491 25.5011 29.7859 25.795C29.8995 25.8937 30.0435 25.9436 30.1869 25.9436C30.3268 25.9436 30.4661 25.8965 30.5786 25.8023C34.3537 22.6415 38.5474 16.111 37.9412 8.10874ZM30.1927 24.5848C30.0289 24.4294 29.8419 24.2466 29.5662 23.9763C29.234 23.651 28.7799 23.2058 28.0915 22.5417C30.7208 18.643 30.2248 15.867 30.008 15.4688C29.9048 15.2804 29.6927 15.1525 29.4712 15.1525C25.4582 15.1525 22.1937 12.0114 22.1937 8.15026C22.1937 4.28962 25.4582 1.14854 29.4712 1.14854C33.3792 1.14854 36.4409 4.11074 36.751 8.1923C37.4323 17.1922 31.8725 23.0369 30.1927 24.5848Z" fill="#15594E"/>
</g>
<defs>
<clipPath id="clip0_7_283">
<rect width="38" height="26" fill="white"/>
</clipPath>
</defs>
</svg>
