<svg width="61" height="61" viewBox="0 0 61 61" fill="none" xmlns="http://www.w3.org/2000/svg">
<path d="M33.366 47.354C33.366 45.9094 32.4122 44.683 31.1 44.2686C30.7224 38.9331 26.2512 34.7071 20.8095 34.7071H15.6165L14.8009 22.9425H44.5335L42.6808 17.0602H40.6707L39.3738 13.0602H30.0648V6.87835L35.0889 5.70857C36.296 5.42751 37.139 4.3675 37.139 3.13071V3.01438C37.139 2.19629 36.7691 1.43748 36.1243 0.932315C35.4794 0.427265 34.6527 0.248956 33.8564 0.44308L24.7593 2.66198V13.0604H15.4503L14.1534 17.0604H12.1433L10.2906 22.9427H13.0281L13.8438 34.7073H12.5564C7.11461 34.7073 2.64357 38.9333 2.26587 44.2689C0.953828 44.683 0 45.9095 0 47.354C0 48.2801 0.392028 49.1166 1.01922 49.7069C0.392028 50.2973 0 51.1337 0 52.0598C0 53.5121 0.963925 54.7439 2.28689 55.1516C2.65191 58.0151 5.10904 60.2361 8.07619 60.2361H25.2898C28.2571 60.2361 30.7141 58.0151 31.0791 55.1516C32.4021 54.7438 33.366 53.5121 33.366 52.0598C33.366 51.1337 32.974 50.2973 32.3468 49.7069C32.974 49.1166 33.366 48.2801 33.366 47.354ZM26.5278 4.04732L34.2762 2.15739C34.5416 2.09261 34.8172 2.15212 35.0322 2.32047C35.2471 2.48882 35.3704 2.74188 35.3704 3.01449V3.13083C35.3704 3.54309 35.0893 3.89631 34.6871 3.99015L28.2964 5.47801V13.0604H26.5279V4.04732H26.5278ZM16.7368 14.825H38.0874L38.812 17.0603H16.0122L16.7368 14.825ZM12.7002 21.1779L13.4413 18.825H41.3827L42.1238 21.1779H12.7002ZM12.5565 36.4718H20.8096C25.2243 36.4718 28.8682 39.8288 29.3121 44.1188H4.054C4.49793 39.8288 8.14182 36.4718 12.5565 36.4718ZM3.24224 53.5303C2.42954 53.5303 1.76853 52.8707 1.76853 52.0598C1.76853 51.2489 2.42966 50.5893 3.24224 50.5893H4.22272L8.39249 53.5305H3.24224V53.5303ZM15.269 53.0334L13.0104 54.6264L7.28662 50.5893H11.8039L15.269 53.0334ZM14.8677 50.5893H26.3153L20.5914 54.6264L14.8677 50.5893ZM25.2898 58.4715H8.07619C6.13695 58.4715 4.51025 57.1102 4.10543 55.2952H10.8946L13.0104 56.7875L16.8009 54.1139L20.5916 56.7875L22.7074 55.2952H29.2607C28.8558 57.1102 27.2291 58.4715 25.2898 58.4715ZM30.1238 53.5303H25.2093L29.3792 50.5892H30.1237C30.9364 50.5892 31.5974 51.2489 31.5974 52.0597C31.5975 52.8708 30.9365 53.5303 30.1238 53.5303ZM30.1238 48.8246H3.24224C2.42954 48.8246 1.76853 48.1651 1.76853 47.3541C1.76853 46.5432 2.42966 45.8836 3.24224 45.8836H30.1238C30.9365 45.8836 31.5975 46.5432 31.5975 47.3541C31.5975 48.1651 30.9365 48.8246 30.1238 48.8246Z" fill="#BF9444"/>
<path d="M58.8328 34.7071V23.4131H53.5273V27.2954H48.2217V24.7072H42.9161V27.2954H41.2065V24.7072H35.9009V34.7071H33.795L36.5815 60.2362H57.3268L60.1133 34.7071H58.8328ZM55.2959 25.1778H57.0644V34.7071H55.2959V25.1778ZM51.7588 29.0602H53.5274V38.0628L52.1976 41.7659H51.7588V29.0602ZM48.2218 29.0602H49.9903V41.7659H48.2218V29.0602ZM44.6847 26.4719H46.4533V41.7659H44.6847V26.4719ZM41.2066 29.0602H42.9162V41.7659H41.7111L41.2066 40.361V29.0602ZM37.6695 26.4719H39.4381V35.4362L39.1762 34.7071H37.6695V26.4719ZM55.7405 58.4716H38.1681L35.7669 36.4719H37.9315L40.4663 43.5307H53.4425L55.9773 36.4719H58.1419L55.7405 58.4716Z" fill="#BF9444"/>
<path d="M38.5081 45.2953L39.7536 56.707H54.1535L55.399 45.2953H38.5081ZM52.5672 54.9423H41.34L40.4796 47.06H53.4274L52.5672 54.9423Z" fill="#BF9444"/>
<path d="M12.2022 38.354H10.4337V40.1187H12.2022V38.354Z" fill="#BF9444"/>
<path d="M15.7783 39.4128H14.0098V41.1775H15.7783V39.4128Z" fill="#BF9444"/>
<path d="M19.3554 39.4128H17.5869V41.1775H19.3554V39.4128Z" fill="#BF9444"/>
<path d="M22.9324 38.354H21.1639V40.1187H22.9324V38.354Z" fill="#BF9444"/>
<path d="M26.9587 24.7072H17.6445V26.4719H26.9587V24.7072Z" fill="#BF9444"/>
<path d="M31.0673 24.7072H28.7267V26.4719H31.0673V24.7072Z" fill="#BF9444"/>
<path d="M47.8974 50.1186H46.1288V51.8833H47.8974V50.1186Z" fill="#BF9444"/>
<path d="M51.3164 50.1186H49.6658V51.8833H51.3164V50.1186Z" fill="#BF9444"/>
<path d="M44.3605 50.1186H42.5919V51.8833H44.3605V50.1186Z" fill="#BF9444"/>
</svg>
