<svg width="41" height="41" viewBox="0 0 41 41" fill="none" xmlns="http://www.w3.org/2000/svg">
<path d="M39.3389 25.6859H0.666779C0.298734 25.6859 0 25.9832 0 26.3512C0 34.0549 6.28091 40.3228 14.002 40.3228H26.0037C33.7241 40.3228 40.0057 34.0549 40.0057 26.3512C40.0057 25.9832 39.7076 25.6859 39.3389 25.6859ZM26.0037 38.9921H14.002C7.24033 38.9921 1.69887 33.6789 1.35083 27.0164H38.6547C38.3068 33.6789 32.7653 38.9921 26.0037 38.9921Z" fill="#BF9444"/>
<path d="M34.0088 9.7223C34.0088 9.67372 34.0081 9.62515 34.0034 9.55131C33.9008 8.44824 33.1407 7.54205 32.1372 7.20209L32.892 6.44896C34.2008 5.1696 34.3322 3.12307 33.1866 1.67802C31.9598 0.190396 29.7488 -0.0212197 28.2586 1.20231C28.1739 1.27218 28.0919 1.34602 28.0098 1.42789L27.1898 2.25821C26.8457 1.2622 25.9356 0.509067 24.8141 0.405286C23.3372 0.324819 22.087 1.4558 22.0077 2.92081C22.0051 2.96939 22.0044 3.01797 22.0044 3.06584V4.08579C21.6123 3.85889 21.1583 3.72853 20.6735 3.72782C20.6256 3.72782 20.5762 3.72915 20.5022 3.73313C19.0766 3.86552 17.9799 5.08773 18.0038 6.50479V7.40966C17.6038 7.17878 17.1477 7.05504 16.673 7.05434C16.625 7.05434 16.5764 7.05566 16.5024 7.05964C15.0761 7.19204 13.9793 8.41424 14.0033 9.83138V19.698C14.0033 20.066 14.3021 20.3634 14.6701 20.3634H26.0051C27.4759 20.3634 28.6721 19.1698 28.6714 17.7034C28.6714 17.2191 28.5414 16.7646 28.3133 16.3728H29.2142C30.6463 16.4121 31.8712 15.3017 32.0052 13.8532C32.0339 13.3117 31.8978 12.7994 31.6405 12.3643C32.2392 12.2978 32.7933 12.0336 33.2254 11.6038C33.7293 11.1022 34.0081 10.4342 34.0088 9.7223ZM32.2838 10.6617C32.0318 10.9118 31.6977 11.0496 31.341 11.0496C31.3403 11.0496 31.3397 11.0496 31.339 11.0496H29.3387C28.97 11.0496 28.6719 11.3477 28.6719 11.7149C28.6719 12.0822 28.97 12.3803 29.3387 12.3803L29.4121 12.3823C30.1469 12.4215 30.7123 13.0496 30.6749 13.7562C30.607 14.4893 29.9835 15.0569 29.2254 15.0415H26.005C25.6362 15.0415 25.3382 15.3396 25.3382 15.7069C25.3382 16.0741 25.6362 16.3722 26.005 16.3722C26.7404 16.3722 27.3385 16.969 27.3385 17.7029C27.3385 18.4367 26.7404 19.0335 26.005 19.0335H15.3367V9.82008C15.3241 9.08356 15.8908 8.45354 16.5996 8.38695L16.6722 8.38493C17.4064 8.38555 18.0031 8.98172 18.0038 9.71357V9.71825C18.0038 10.0855 18.3018 10.3836 18.6698 10.3836C18.6705 10.3836 18.6705 10.3836 18.6705 10.3836C19.0386 10.3836 19.3366 10.0862 19.3373 9.71895V9.71832V6.49349C19.3247 5.75696 19.8914 5.12695 20.6002 5.06036L20.6722 5.05834C21.407 5.05966 22.0037 5.65576 22.0044 6.3883V6.39228C22.0044 6.75953 22.3025 7.05761 22.6705 7.05761C22.6712 7.05761 22.6712 7.05761 22.6712 7.05761C23.0393 7.05761 23.3373 6.76023 23.338 6.39298V6.39228V3.06576L23.34 2.99193C23.3787 2.25938 23.9935 1.69525 24.7163 1.73182C25.4524 1.80036 26.0184 2.43037 26.0044 3.17953V3.73172C26.0044 4.00119 26.1678 4.2447 26.4185 4.34715C26.6672 4.44961 26.9566 4.39105 27.1459 4.19815L28.9548 2.36651C29.0041 2.31794 29.0548 2.27201 29.1075 2.22881C30.0303 1.47171 31.3978 1.6034 32.1499 2.51357C32.862 3.41305 32.78 4.69577 31.9546 5.50285L30.201 7.25262C30.0103 7.44287 29.953 7.72895 30.0563 7.97784C30.159 8.22602 30.403 8.38836 30.6724 8.38836H31.2258C31.2397 8.38836 31.2497 8.38836 31.2611 8.38836C31.9892 8.38836 32.6079 8.94859 32.6732 9.64846L32.6753 9.72168C32.6745 10.0769 32.5359 10.4109 32.2838 10.6617Z" fill="#BF9444"/>
<path d="M28.8672 4.58926L10.1982 23.2177L11.1411 24.1586L29.8101 5.53012L28.8672 4.58926Z" fill="#BF9444"/>
<path d="M26.0014 5.73038H24.6678V9.05733H26.0014V5.73038Z" fill="#BF9444"/>
<path d="M22.0041 9.05695H20.6705V13.0493H22.0041V9.05695Z" fill="#BF9444"/>
<path d="M18.0012 12.3768H16.6676V17.034H18.0012V12.3768Z" fill="#BF9444"/>
<path d="M28.6696 8.39163H25.3358V9.7228H28.6696V8.39163Z" fill="#BF9444"/>
<path d="M25.3339 12.3768H21.3333V13.708H25.3339V12.3768Z" fill="#BF9444"/>
<path d="M22.0032 16.3687H17.3359V17.7H22.0032V16.3687Z" fill="#BF9444"/>
<path d="M12.4466 3.47898C12.446 3.47765 12.4446 3.47633 12.444 3.475C11.5032 2.06917 9.59088 1.68726 8.1827 2.62604C8.1387 2.65466 8.09533 2.68522 8.04603 2.72187L7.80598 2.90417L7.5753 2.73848C6.35513 1.60282 4.43683 1.64874 3.27534 2.85162C2.70663 3.43976 2.40125 4.21417 2.41656 5.03187C2.43188 5.84956 2.76461 6.61197 3.3534 7.17882C3.52477 7.34381 3.71543 7.48884 3.92079 7.60993L4.48223 8.04774V8.3884C4.48223 10.2227 5.97778 11.715 7.81606 11.715C9.65433 11.715 11.1499 10.222 11.1492 8.38777V8.04711L11.7393 7.58739C13.0161 6.62062 13.3261 4.81565 12.4466 3.47898ZM10.9258 6.53345L10.0723 7.19878C9.91095 7.32455 9.81624 7.51815 9.81624 7.72306V8.3884C9.81624 9.48881 8.91879 10.3843 7.81598 10.3843C6.71317 10.3843 5.81571 9.48881 5.81571 8.3884V7.72306C5.81571 7.51815 5.72171 7.32455 5.55965 7.19878L4.70619 6.53345C4.68087 6.51349 4.65352 6.49555 4.62554 6.47957C4.50021 6.40838 4.38416 6.32191 4.28016 6.2214C3.94681 5.90071 3.75872 5.4696 3.75005 5.00785C3.74137 4.5461 3.91407 4.10837 4.23546 3.77566C4.57483 3.4244 5.02891 3.2474 5.48361 3.2474C5.91699 3.2474 6.35106 3.40771 6.68715 3.73176C6.70981 3.75305 6.7338 3.77371 6.75982 3.79227L7.4266 4.27133C7.66399 4.44232 7.98601 4.43834 8.21942 4.26135L8.92223 3.73379C9.30895 3.47562 9.77233 3.38518 10.2284 3.475C10.6831 3.56545 11.0759 3.82697 11.3339 4.21152C11.8286 4.96598 11.6526 5.98258 10.9258 6.53345Z" fill="#BF9444"/>
<path d="M16.0017 1.0665H14.6681V2.39767H16.0017V1.0665Z" fill="#BF9444"/>
<path d="M20.0021 22.3566H18.6686V23.6878H20.0021V22.3566Z" fill="#BF9444"/>
<path d="M36.0045 4.39645V5.72712C36.74 5.72712 37.3381 6.32392 37.3381 7.05771C37.3381 7.79151 36.74 8.38838 36.0045 8.38838V9.71897C37.4754 9.71897 38.6716 8.52538 38.6716 7.05771C38.6716 5.59005 37.4754 4.39645 36.0045 4.39645Z" fill="#BF9444"/>
<path d="M2.66515 10.3875H1.33167V11.7188H2.66515V10.3875Z" fill="#BF9444"/>
<path d="M1.33348 7.72629H0V9.05753H1.33348V7.72629Z" fill="#BF9444"/>
<path d="M26.0042 21.6939C24.5333 21.6939 23.3372 22.8875 23.3372 24.3552H24.6707C24.6707 23.6213 25.2688 23.0245 26.0042 23.0245C26.7397 23.0245 27.3378 23.6213 27.3378 24.3552H28.6712C28.6712 22.8875 27.4751 21.6939 26.0042 21.6939Z" fill="#BF9444"/>
<path d="M8.00113 15.7061H7.91713C7.61972 14.5597 6.57489 13.7101 5.33409 13.7101C4.09328 13.7101 3.04775 14.5597 2.75104 15.7061H2.66704C1.19619 15.7061 0 16.8997 0 18.3673C0 19.835 1.19619 21.0286 2.66704 21.0286H8.00113C9.47199 21.0286 10.6682 19.835 10.6682 18.3673C10.6682 16.8997 9.47199 15.7061 8.00113 15.7061ZM8.00113 19.6986H2.66697C1.9315 19.6986 1.3334 19.1018 1.3334 18.368C1.3334 17.6342 1.9315 17.0374 2.66697 17.0374H3.33375C3.70179 17.0374 4.00053 16.7393 4.00053 16.372C4.00053 15.6382 4.59862 15.0414 5.33409 15.0414C6.06955 15.0414 6.66765 15.6382 6.66765 16.372C6.66765 16.7393 6.96638 17.0374 7.33443 17.0374H8.00121C8.73668 17.0374 9.33477 17.6342 9.33477 18.368C9.33461 19.1019 8.73652 19.6986 8.00113 19.6986Z" fill="#BF9444"/>
<path d="M6.6694 19.698H4.00235C3.63431 19.698 3.33557 19.9961 3.33557 20.3634V23.0249C3.33557 23.3929 3.63431 23.6903 4.00235 23.6903H6.6694C7.03744 23.6903 7.33618 23.3929 7.33618 23.0249V20.3634C7.33618 19.9961 7.03744 19.698 6.6694 19.698ZM6.00261 22.3595H4.66913V21.0288H6.00269V22.3595H6.00261Z" fill="#BF9444"/>
<path d="M35.3378 17.702C34.235 17.702 33.3375 18.5976 33.3375 19.6982C33.3375 20.7987 34.235 21.6943 35.3378 21.6943C36.4406 21.6943 37.338 20.7987 37.338 19.6982C37.338 18.5976 36.4406 17.702 35.3378 17.702ZM35.3378 20.3642C34.9697 20.3642 34.671 20.0655 34.671 19.6988C34.671 19.3321 34.9697 19.0334 35.3378 19.0334C35.7058 19.0334 36.0046 19.3315 36.0046 19.6988C36.0046 20.0662 35.7058 20.3642 35.3378 20.3642Z" fill="#BF9444"/>
<path d="M35.3378 15.0408C32.7648 15.0408 30.6705 17.1299 30.6705 19.698C30.6705 22.2661 32.7648 24.3552 35.3378 24.3552C37.9109 24.3552 40.0051 22.2661 40.0051 19.698C40.0051 17.1299 37.9109 15.0408 35.3378 15.0408ZM35.3378 23.0252C33.4996 23.0252 32.004 21.5323 32.004 19.6986C32.004 17.8643 33.4996 16.372 35.3378 16.372C37.1761 16.372 38.6717 17.8643 38.6717 19.6986C38.6717 21.5329 37.1761 23.0252 35.3378 23.0252Z" fill="#BF9444"/>
</svg>
