<svg width="9" height="28" viewBox="0 0 9 28" fill="none" xmlns="http://www.w3.org/2000/svg">
<path d="M6.42846 20.7845C6.42846 20.7845 6.45129 20.8119 6.49528 20.8654C6.53927 20.9188 6.6067 20.9956 6.68372 21.1072C6.84019 21.3271 7.06166 21.6621 7.25086 22.1425C7.34264 22.383 7.43093 22.6571 7.49394 22.9664C7.5562 23.2757 7.58649 23.6201 7.57462 23.9902C7.56289 24.3578 7.50064 24.762 7.37841 25.1547C7.24736 25.5737 7.03852 25.9628 6.76454 26.3427C6.48889 26.7179 6.13819 27.0642 5.7196 27.3501C5.51077 27.4944 5.28017 27.6136 5.0383 27.7194C4.91455 27.7654 4.79141 27.8174 4.66112 27.8522L4.56401 27.8809L4.53965 27.888L4.52748 27.8916C4.54407 27.8888 4.49156 27.8994 4.49262 27.8992L4.44863 27.9083L4.27176 27.9447C3.71223 28.0516 3.12378 28.0015 2.56653 27.8112C2.28493 27.7222 2.01871 27.5825 1.76224 27.423C1.64092 27.3333 1.50956 27.2541 1.39738 27.1496L1.22341 26.9984L1.06206 26.8315C0.630995 26.3837 0.318808 25.8032 0.149548 25.1746L0.132652 25.1159L0.12839 25.1012L0.120323 25.0619L0.1153 25.0364L0.0952078 24.9343L0.0548715 24.7296C0.0347795 24.5695 0.0122521 24.3894 0.00372817 24.227C-0.00677448 23.9076 0.00357596 23.5852 0.0519795 23.2724C0.140719 22.6443 0.323374 22.0422 0.565544 21.4843C0.805126 20.9241 1.08931 20.397 1.38582 19.8905C1.53681 19.6382 1.68674 19.3939 1.84413 19.1466C1.99619 18.9065 2.14931 18.6659 2.30944 18.4231C2.62376 17.9382 2.94691 17.4722 3.2667 17.0079C3.58604 16.5437 3.90584 16.0886 4.22184 15.6402C4.53341 15.1908 4.84119 14.747 5.14378 14.3103C5.74213 13.4355 6.29984 12.5814 6.7857 11.7476C6.9096 11.5404 7.02711 11.3337 7.13898 11.128C7.2533 10.9253 7.3635 10.7157 7.46959 10.5181C7.68101 10.1205 7.85925 9.73947 7.96945 9.36221C8.02501 9.17381 8.06413 8.98682 8.08605 8.80201C8.09046 8.75573 8.09503 8.70961 8.09944 8.66379C8.10081 8.61736 8.10218 8.57108 8.10355 8.52511C8.10507 8.47478 8.1066 8.42476 8.10812 8.37489C8.10919 8.32658 8.10523 8.28654 8.10416 8.24228C8.09488 7.89448 8.03171 7.53919 7.92988 7.23237C7.82561 6.92258 7.67949 6.65222 7.52256 6.41615C7.36517 6.1782 7.17491 5.99744 6.99621 5.84083C6.62207 5.5499 6.26102 5.4028 6.0082 5.34312C5.88308 5.30385 5.78216 5.297 5.7158 5.28094C5.64852 5.26848 5.61382 5.26209 5.61382 5.26209C5.61382 5.26209 5.64898 5.26209 5.71702 5.26193C5.78475 5.26614 5.88841 5.25243 6.02038 5.27206C6.08689 5.28048 6.16132 5.28998 6.24306 5.30027C6.32404 5.31601 6.41126 5.34047 6.50715 5.36353C6.60365 5.38535 6.69985 5.43101 6.80762 5.46934C6.91325 5.51219 7.01782 5.5753 7.13289 5.63483C7.34858 5.77554 7.58603 5.94695 7.79669 6.1863C8.01009 6.42191 8.20371 6.71346 8.36292 7.05083C8.51848 7.39287 8.63356 7.7681 8.69368 8.20223C8.70068 8.25568 8.71073 8.31381 8.71514 8.36476C8.71819 8.41447 8.72138 8.46449 8.72443 8.51467C8.72732 8.56936 8.73036 8.62437 8.73326 8.67984C8.7328 8.73579 8.73219 8.7922 8.73173 8.84876C8.72473 9.07533 8.69703 9.30627 8.6506 9.53596C8.55852 9.99643 8.39123 10.4465 8.20584 10.8834C8.11345 11.1037 8.01618 11.3161 7.91192 11.5377C7.81054 11.7593 7.70369 11.982 7.5906 12.2048C7.14279 13.0997 6.61811 14.0113 6.04564 14.9265C5.47469 15.8434 4.86143 16.7677 4.24147 17.6993C3.93218 18.1647 3.62425 18.6383 3.32059 19.1072C3.16944 19.3395 3.01799 19.5804 2.86669 19.8229C2.7192 20.0572 2.57292 20.3011 2.43106 20.5389C1.86772 21.4891 1.37836 22.4691 1.2228 23.4535C1.1785 23.6988 1.17013 23.942 1.16983 24.1823C1.17302 24.2996 1.18231 24.3977 1.18931 24.5147L1.2231 24.7207L1.24 24.8234L1.24426 24.8491C1.24258 24.8415 1.25096 24.8841 1.24091 24.8352L1.24365 24.8455L1.25461 24.8868C1.36055 25.3286 1.56314 25.7463 1.85676 26.0817C2.42786 26.767 3.32972 27.1137 4.12214 27.0188L4.30099 26.9951L4.34543 26.9892C4.35441 26.9878 4.30844 26.9967 4.33234 26.9919L4.34178 26.9897L4.36081 26.9855L4.43706 26.9685C4.53905 26.9501 4.63692 26.915 4.73601 26.8875C4.93023 26.818 5.11897 26.7366 5.29706 26.6374C5.65248 26.4387 5.96771 26.1806 6.22404 25.8889C6.47899 25.5994 6.68539 25.2681 6.82527 24.9518C6.97459 24.6094 7.06273 24.2777 7.11082 23.9484C7.20459 23.2922 7.1367 22.6943 7.02087 22.2193C6.8994 21.7447 6.74597 21.3819 6.62481 21.1457C6.56651 21.0262 6.51461 20.9363 6.48021 20.8761C6.44611 20.8157 6.42846 20.7845 6.42846 20.7845Z" fill="#BF9444"/>
<path d="M2.57174 7.2159C2.57174 7.2159 2.5489 7.18848 2.50491 7.13519C2.46093 7.08158 2.3935 7.00492 2.31648 6.89334C2.16 6.67347 1.93853 6.33844 1.74933 5.85803C1.65755 5.61759 1.56942 5.34349 1.50625 5.03417C1.444 4.72485 1.4137 4.38047 1.42558 4.01023C1.4373 3.64263 1.49955 3.23842 1.62178 2.84573C1.75283 2.42671 1.96167 2.03761 2.23565 1.65771C2.51131 1.28248 2.862 0.936226 3.28059 0.650284C3.48942 0.505987 3.72003 0.386625 3.96189 0.280819C4.08564 0.23485 4.20878 0.182804 4.33907 0.148054L4.43618 0.119226L4.46054 0.112057L4.47272 0.108475C4.45612 0.111279 4.50864 0.100683 4.50757 0.10084L4.55156 0.0917988L4.72843 0.055336C5.28796 -0.0515614 5.87642 -0.00138474 6.43367 0.188879C6.71526 0.277857 6.98148 0.417635 7.23796 0.577047C7.35927 0.66696 7.49063 0.746119 7.60281 0.850679L7.77679 1.00183L7.93813 1.16872C8.3692 1.61657 8.68138 2.19718 8.85064 2.82563L8.86754 2.88438L8.8718 2.89903L8.87972 2.9383L8.88474 2.96385L8.90483 3.06592L8.94517 3.27067C8.96526 3.43071 8.98779 3.61084 8.99631 3.77321C9.00681 4.09266 8.99646 4.41507 8.94821 4.72781C8.85947 5.35595 8.67667 5.95807 8.43465 6.51593C8.19507 7.07613 7.91089 7.60329 7.61438 8.10973C7.46323 8.36201 7.31345 8.60635 7.15606 8.85365C7.004 9.09378 6.85073 9.33437 6.69075 9.57715C6.37643 10.0621 6.05329 10.528 5.73349 10.9924C5.41415 11.4566 5.09435 11.9116 4.77836 12.3602C4.46678 12.8096 4.15901 13.2534 3.85641 13.6901C3.25806 14.5649 2.70036 15.419 2.21465 16.2528C2.09075 16.46 1.97324 16.6667 1.86136 16.8724C1.74705 17.0751 1.63685 17.2847 1.53076 17.4823C1.31933 17.8799 1.14109 18.2609 1.03089 18.6382C0.975334 18.8266 0.936215 19.0136 0.914296 19.1984C0.909882 19.2447 0.905316 19.2908 0.900902 19.3366C0.899532 19.383 0.898162 19.4293 0.896792 19.4753C0.89527 19.5256 0.893748 19.5758 0.892226 19.6255C0.89116 19.6738 0.895118 19.7139 0.896183 19.7581C0.905468 20.1059 0.968636 20.4612 1.07047 20.768C1.17473 21.0778 1.32086 21.3482 1.47779 21.5844C1.63517 21.8224 1.82544 22.0031 2.00414 22.1597C2.37827 22.4508 2.73932 22.5978 2.99199 22.6574C3.11711 22.6967 3.21803 22.7036 3.28455 22.7196C3.35182 22.7321 3.38653 22.7385 3.38653 22.7385C3.38653 22.7385 3.35137 22.7385 3.28333 22.7385C3.21559 22.7343 3.11194 22.748 2.97997 22.7283C2.91345 22.7199 2.83902 22.7104 2.75728 22.7001C2.67631 22.6844 2.58909 22.6599 2.49319 22.6369C2.39669 22.6151 2.30049 22.5694 2.19273 22.5311C2.08709 22.4881 1.98252 22.4251 1.86745 22.3656C1.65176 22.2249 1.41447 22.0535 1.20365 21.8141C0.99025 21.5785 0.796636 21.2869 0.637422 20.9496C0.481861 20.6075 0.366789 20.2323 0.306665 19.7982C0.299663 19.7447 0.289617 19.6866 0.285203 19.6356C0.282159 19.5859 0.278962 19.5359 0.275918 19.4857C0.273026 19.431 0.269982 19.376 0.26709 19.3206C0.267546 19.2646 0.268155 19.2082 0.268612 19.1516C0.275614 18.9251 0.303316 18.6941 0.349741 18.4644C0.441677 18.004 0.608959 17.5539 0.794201 17.117C0.886594 16.8968 0.98401 16.6844 1.08812 16.4627C1.1895 16.2411 1.29635 16.0184 1.40944 15.7956C1.85725 14.9007 2.38193 13.9891 2.9544 13.0739C3.52535 12.157 4.13861 11.2327 4.75857 10.3011C5.06786 9.83567 5.37579 9.36211 5.67945 8.89323C5.83075 8.66073 5.9819 8.41998 6.13335 8.17751C6.28084 7.94315 6.42712 7.69928 6.56898 7.46149C7.13232 6.51125 7.62168 5.53126 7.77724 4.5469C7.82154 4.30163 7.82991 4.05838 7.83021 3.81809C7.82702 3.70076 7.81773 3.60274 7.81073 3.48572L7.77694 3.27971L7.76004 3.17702L7.75578 3.15131C7.75746 3.15895 7.74908 3.11625 7.75898 3.16518L7.75624 3.15489L7.74528 3.1136C7.63934 2.67183 7.43674 2.25406 7.14313 1.91872C6.57203 1.23339 5.67017 0.886675 4.87775 0.981573L4.6989 1.00526L4.65446 1.01118C4.64548 1.01258 4.69144 1.0037 4.66755 1.00853L4.65811 1.01071L4.63908 1.01492L4.56328 1.03175C4.4613 1.05014 4.36343 1.0852 4.26434 1.11278C4.07027 1.18228 3.88152 1.26378 3.70328 1.36288C3.34787 1.56156 3.03263 1.81961 2.77631 2.11132C2.52135 2.40085 2.31495 2.73214 2.17507 3.04847C2.02575 3.39082 1.93762 3.72257 1.88952 4.05183C1.79576 4.70802 1.86364 5.30593 1.97948 5.78089C2.10094 6.25554 2.25437 6.61831 2.37553 6.85454C2.43398 6.97406 2.48574 7.06397 2.52014 7.12412C2.55408 7.18474 2.57174 7.2159 2.57174 7.2159Z" fill="#BF9444"/>
</svg>
