<svg width="102" height="48" viewBox="0 0 102 48" fill="none" xmlns="http://www.w3.org/2000/svg">
<path d="M9.06799 26.8689C6.97915 26.8689 5.18522 26.6081 3.68617 26.0863C2.2117 25.5398 1.04442 25.0429 0.184309 24.5957C0.380905 23.5026 0.466915 22.3721 0.442341 21.2045C0.442341 20.0368 0.294894 18.8691 0 17.7014H1.21644C1.36388 19.2418 1.75708 20.6206 2.39601 21.838C3.05952 23.0554 3.95649 24.0119 5.08692 24.7075C6.21734 25.4031 7.56894 25.7509 9.14171 25.7509C10.0018 25.7509 10.8251 25.5895 11.6114 25.2665C12.3978 24.9187 13.0368 24.4094 13.5283 23.7386C14.0443 23.0678 14.3024 22.2355 14.3024 21.2417C14.3024 20.2977 14.1058 19.5275 13.7126 18.9312C13.3439 18.3101 12.6804 17.7387 11.722 17.217C10.7636 16.6953 9.38745 16.1238 7.59352 15.5027C5.38181 14.7326 3.68617 13.8258 2.5066 12.7823C1.32702 11.714 0.737234 10.1985 0.737234 8.23583C0.737234 6.96878 1.03213 5.78868 1.62192 4.69554C2.23628 3.57755 3.14553 2.68317 4.34968 2.01238C5.57841 1.34158 7.08974 1.00619 8.88368 1.00619C9.76836 1.00619 10.5056 1.10556 11.0954 1.30432C11.6852 1.50307 12.2135 1.71424 12.6804 1.93784C13.0491 2.11175 13.3808 2.27324 13.6757 2.4223C13.9952 2.57137 14.3269 2.6459 14.671 2.6459L15.74 2.4223L15.8505 2.49683C15.826 2.79496 15.8014 3.10552 15.7768 3.42849C15.7522 3.75146 15.74 4.06202 15.74 4.36014C15.74 5.03094 15.7768 5.68931 15.8505 6.33525C15.9488 6.9812 16.0471 7.54019 16.1454 8.01223C16.2437 8.48427 16.3175 8.81967 16.3666 9.01842H15.4451C15.0273 7.62715 14.4989 6.42221 13.86 5.4036C13.2456 4.38499 12.5084 3.58998 11.6483 3.01856C10.7882 2.4223 9.78065 2.12417 8.62564 2.12417C7.74096 2.12417 6.94229 2.32293 6.22963 2.72043C5.54155 3.11794 5.00091 3.63967 4.60772 4.28561C4.2391 4.93156 4.05479 5.66446 4.05479 6.48432C4.05479 7.37871 4.21452 8.11161 4.53399 8.68303C4.85346 9.25444 5.45554 9.77617 6.34022 10.2482C7.24947 10.6954 8.56421 11.2171 10.2844 11.8134C12.0784 12.4096 13.4914 13.0556 14.5235 13.7512C15.5802 14.4469 16.3297 15.2419 16.7721 16.1363C17.239 17.0058 17.4725 18.0617 17.4725 19.3039C17.4725 20.7945 17.1161 22.1113 16.4035 23.2541C15.6908 24.3721 14.7078 25.2541 13.4545 25.9C12.2012 26.546 10.7391 26.8689 9.06799 26.8689Z" fill="white"/>
<path d="M20.6112 26.4963V25.9L21.9382 25.4528C22.6017 25.2292 22.9335 24.7696 22.9335 24.074V13.6022C22.9335 13.1053 22.8475 12.7699 22.6754 12.596C22.528 12.3972 22.2945 12.2482 21.9751 12.1488L20.6112 11.8134V11.2544C21.8153 11.0556 22.872 10.8569 23.7813 10.6581C24.7151 10.4594 25.6612 10.1613 26.6196 9.76374L26.9883 10.0246C26.7917 10.3973 26.6565 10.8817 26.5828 11.478C26.5336 12.0494 26.5091 12.7078 26.5091 13.4531V24.2603C26.5091 24.5833 26.6074 24.8441 26.8039 25.0429C27.0005 25.2416 27.2094 25.3783 27.4306 25.4528L28.7576 25.9V26.4963H20.6112ZM24.666 5.92532C23.9779 5.92532 23.3881 5.68931 22.8966 5.21727C22.4297 4.72039 22.1962 4.12413 22.1962 3.42849C22.1962 2.73285 22.4297 2.14902 22.8966 1.67698C23.3881 1.1801 23.9779 0.931654 24.666 0.931654C25.3541 0.931654 25.9316 1.1801 26.3985 1.67698C26.89 2.14902 27.1357 2.73285 27.1357 3.42849C27.1357 4.12413 26.89 4.72039 26.3985 5.21727C25.9316 5.68931 25.3541 5.92532 24.666 5.92532Z" fill="white"/>
<path d="M30.1146 26.4963V25.9L31.4416 25.4528C31.7857 25.3534 32.0314 25.192 32.1789 24.9684C32.3509 24.7199 32.4369 24.4218 32.4369 24.074V3.87568C32.4369 3.35396 32.3632 3.00614 32.2157 2.83223C32.0683 2.63348 31.8348 2.49684 31.5153 2.4223L30.1146 2.04964V1.52791C31.3187 1.32916 32.3877 1.13041 33.3216 0.931654C34.2554 0.732902 35.2015 0.422351 36.1599 0L36.5285 0.260862C36.3319 0.658369 36.1968 1.14283 36.1231 1.71425C36.0493 2.28566 36.0125 2.94403 36.0125 3.68935V24.2603C36.0125 24.6081 36.0985 24.8814 36.2705 25.0802C36.4671 25.2541 36.7006 25.3783 36.9709 25.4528L38.2979 25.9V26.4963H30.1146Z" fill="white"/>
<path d="M44.8532 26.7571C43.9931 26.7571 43.2067 26.5087 42.4941 26.0118C41.7814 25.5149 41.2162 24.869 40.7984 24.074C40.3807 23.279 40.1718 22.4218 40.1718 21.5026C40.1718 21.0802 40.2087 20.7821 40.2824 20.6082C40.3807 20.4095 40.5281 20.2728 40.7247 20.1983L48.0971 17.4406C48.5886 17.2667 48.9203 17.0679 49.0923 16.8443C49.2644 16.5959 49.3504 16.2605 49.3504 15.8381V14.7201C49.3504 13.627 49.0923 12.7326 48.5763 12.037C48.0602 11.3413 47.2615 10.9935 46.1803 10.9935C45.4676 10.9935 44.8901 11.155 44.4478 11.478C44.0054 11.7761 43.7842 12.1488 43.7842 12.596C43.7842 12.7699 43.8211 12.9314 43.8948 13.0804C43.9931 13.2295 44.1037 13.3786 44.2266 13.5276C44.3986 13.7512 44.5338 13.9872 44.6321 14.2357C44.7549 14.4841 44.8164 14.745 44.8164 15.0183C44.8164 15.5648 44.6198 15.9996 44.2266 16.3226C43.858 16.6456 43.3788 16.8071 42.789 16.8071C42.1746 16.8071 41.6954 16.6331 41.3514 16.2853C41.0073 15.9127 40.8353 15.4034 40.8353 14.7574C40.8353 13.863 41.1425 13.0556 41.7569 12.3351C42.3712 11.5898 43.1576 11.006 44.116 10.5836C45.0744 10.1364 46.0574 9.91281 47.0649 9.91281C48.2199 9.91281 49.2275 10.124 50.0876 10.5463C50.9723 10.9438 51.6604 11.5277 52.1519 12.2978C52.6679 13.0432 52.926 13.9624 52.926 15.0555V23.0305C52.926 23.5274 52.9751 23.9497 53.0734 24.2976C53.1963 24.6454 53.4789 24.8193 53.9212 24.8193C54.3636 24.8193 54.9042 24.7075 55.5431 24.4839V25.2665C55.0762 25.5646 54.4619 25.8876 53.7001 26.2354C52.9628 26.5584 52.3116 26.7199 51.7464 26.7199C51.2303 26.7199 50.8125 26.6081 50.4931 26.3845C50.1736 26.1609 49.9402 25.8131 49.7927 25.341C49.6453 24.869 49.5715 24.31 49.5715 23.664V23.1423L50.3088 23.8504C49.7927 24.2976 49.2275 24.7448 48.6131 25.1919C47.9988 25.6391 47.3721 26.0118 46.7332 26.3099C46.0942 26.6081 45.4676 26.7571 44.8532 26.7571ZM46.512 24.7075C46.9052 24.7075 47.2861 24.6205 47.6547 24.4466C48.0479 24.2727 48.4534 24.0367 48.8712 23.7386C49.1906 23.4901 49.3504 23.0926 49.3504 22.546V18.484C49.3504 18.4095 49.3258 18.3598 49.2766 18.335C49.2275 18.2853 49.1661 18.2853 49.0923 18.335L44.1529 20.161C44.0054 20.2107 43.8948 20.3225 43.8211 20.4964C43.772 20.6703 43.7474 20.956 43.7474 21.3535C43.7474 21.9001 43.8825 22.4343 44.1529 22.956C44.4232 23.4529 44.7672 23.8752 45.185 24.223C45.6273 24.546 46.0697 24.7075 46.512 24.7075Z" fill="white"/>
<path d="M64.7424 36.1855C63.1943 36.1855 61.8304 36.0116 60.6508 35.6638C59.4712 35.3159 58.5374 34.8191 57.8493 34.1731C57.1858 33.5272 56.854 32.757 56.854 31.8626C56.854 31.0924 57.1366 30.3844 57.7019 29.7384C58.2671 29.0925 59.0412 28.5583 60.0241 28.136C61.0071 27.7136 62.1375 27.4776 63.4154 27.4279L64.2632 27.6515C62.8379 27.8751 61.8181 28.2975 61.2037 28.9186C60.5894 29.5645 60.2822 30.2477 60.2822 30.9682C60.2822 31.8626 60.7491 32.67 61.6829 33.3905C62.6168 34.111 64.0052 34.4712 65.8483 34.4712C67.716 34.4712 69.2273 34.1358 70.3823 33.465C71.5373 32.7943 72.1148 31.9247 72.1148 30.8564C72.1148 29.813 71.6356 29.0055 70.6772 28.4341C69.7188 27.8627 68.4778 27.577 66.9541 27.577C66.2906 27.577 65.6148 27.6018 64.9268 27.6515C64.2387 27.7012 63.5383 27.7261 62.8256 27.7261C61.3512 27.7261 60.1224 27.4403 59.1395 26.8689C58.1811 26.3224 57.7019 25.5398 57.7019 24.5212C57.7019 24.4715 57.7141 24.4218 57.7387 24.3721C57.7633 24.2976 57.8247 24.223 57.923 24.1485C58.6111 23.6516 59.2132 23.1547 59.7292 22.6579C60.2699 22.161 60.7368 21.6144 61.13 21.0181V20.8691C60.147 20.3225 59.3975 19.602 58.8814 18.7076C58.3654 17.7884 58.1073 16.8319 58.1073 15.8381C58.1073 14.1239 58.6971 12.7202 59.8767 11.6271C61.0563 10.5091 62.6045 9.95007 64.5213 9.95007C65.1356 9.95007 65.7131 10.0122 66.2538 10.1364C66.819 10.2606 67.3596 10.4097 67.8757 10.5836C68.3426 10.7078 68.785 10.8196 69.2027 10.919C69.6451 11.0184 70.0628 11.0681 70.456 11.0681C71.1195 11.0681 71.4513 10.8569 71.4513 10.4345C71.4513 10.2358 71.4144 10.0495 71.3407 9.87554C71.267 9.67679 71.1564 9.46562 71.0089 9.24202C70.9106 9.06811 70.8123 8.8942 70.714 8.72029C70.6157 8.52154 70.5666 8.29794 70.5666 8.0495C70.5666 7.55262 70.714 7.19238 71.0089 6.96878C71.3284 6.72034 71.6847 6.59612 72.0779 6.59612C72.6186 6.59612 73.0363 6.80729 73.3312 7.22964C73.6507 7.65199 73.8104 8.1613 73.8104 8.75756C73.8104 10.0743 73.5524 11.0184 73.0363 11.5898C72.5203 12.1364 71.8936 12.4096 71.1564 12.4096C70.6157 12.4096 70.0751 12.273 69.5345 11.9997V12.2233C70.026 12.8196 70.37 13.4158 70.5666 14.0121C70.7632 14.5835 70.8615 15.2667 70.8615 16.0617C70.8615 17.0803 70.6157 18.012 70.1243 18.8567C69.6328 19.7014 68.9324 20.3722 68.0231 20.8691C67.1139 21.366 66.0203 21.6268 64.7424 21.6517C63.4891 21.6765 62.543 21.8504 61.9041 22.1734C61.2652 22.4964 60.9457 22.869 60.9457 23.2914C60.9457 23.664 61.1177 23.9497 61.4617 24.1485C61.8304 24.3224 62.3341 24.4094 62.9731 24.4094C63.5629 24.4094 64.2632 24.3969 65.0742 24.3721C65.8852 24.3224 66.647 24.2976 67.3596 24.2976C68.6621 24.2976 69.8539 24.4715 70.9352 24.8193C72.0165 25.1423 72.8766 25.6764 73.5155 26.4217C74.1545 27.1671 74.4739 28.1484 74.4739 29.3658C74.4739 30.7073 74.0562 31.8874 73.2206 32.9061C72.3851 33.9495 71.2301 34.7569 69.7556 35.3284C68.3057 35.8998 66.6347 36.1855 64.7424 36.1855ZM64.6319 20.4219C65.4674 20.4219 66.1186 20.0368 66.5855 19.2666C67.0524 18.4965 67.2859 17.3785 67.2859 15.9127C67.2859 14.422 67.0402 13.2543 66.5487 12.4096C66.0817 11.5649 65.406 11.1426 64.5213 11.1426C63.7103 11.1426 63.0714 11.5153 62.6045 12.2606C62.1376 13.0059 61.9041 14.099 61.9041 15.54C61.9041 17.0555 62.1376 18.248 62.6045 19.1176C63.096 19.9871 63.7717 20.4219 64.6319 20.4219Z" fill="white"/>
<path d="M82.7834 26.7944C81.2598 26.7944 79.9082 26.4342 78.7286 25.7137C77.5736 24.9684 76.652 23.9746 75.964 22.7324C75.3004 21.4902 74.9687 20.0989 74.9687 18.5586C74.9687 16.8692 75.325 15.3785 76.0377 14.0866C76.7503 12.7947 77.721 11.7761 78.9498 11.0308C80.2031 10.2855 81.5915 9.91281 83.1151 9.91281C84.3684 9.91281 85.4497 10.2109 86.359 10.8072C87.2928 11.4035 88.0177 12.2109 88.5338 13.2295C89.0499 14.2233 89.3079 15.3537 89.3079 16.6207C89.3079 16.8443 89.2465 17.0431 89.1236 17.217C89.0007 17.366 88.8164 17.4406 88.5707 17.4406H77.1435V16.2853L84.9582 15.9872C85.3514 15.9872 85.548 15.7388 85.548 15.2419C85.548 13.9997 85.3146 12.9935 84.8476 12.2233C84.3807 11.4283 83.7049 11.0308 82.8202 11.0308C81.6161 11.0308 80.6454 11.6519 79.9082 12.8941C79.1955 14.1115 78.8392 15.7263 78.8392 17.7387C78.8392 19.1548 79.0849 20.3598 79.5764 21.3535C80.0925 22.3225 80.7683 23.0554 81.6038 23.5522C82.4393 24.0491 83.3486 24.2976 84.3316 24.2976C85.806 24.2976 87.2928 23.664 88.7918 22.397L89.3448 22.8814C88.4109 24.2479 87.3788 25.2416 86.2484 25.8627C85.118 26.4838 83.963 26.7944 82.7834 26.7944Z" fill="white"/>
<path d="M9.9969 48C9.54473 48 9.1368 47.9156 8.77309 47.7466C8.40939 47.5677 8.06043 47.3094 7.72622 46.9715C7.40184 46.6336 7.07254 46.2311 6.73833 45.7641C6.47292 45.3765 6.20752 44.9989 5.94211 44.6312C5.68654 44.2635 5.39164 43.9604 5.05743 43.7219C4.73305 43.4834 4.33003 43.3641 3.84837 43.3641H3.43551V46.4498C3.43551 46.7578 3.48466 46.9615 3.58296 47.0609C3.69109 47.1603 3.927 47.2497 4.29071 47.3292L5.10166 47.4932V47.7913H0V47.4932L0.810958 47.3292C1.17466 47.2497 1.40566 47.1603 1.50396 47.0609C1.61209 46.9615 1.66615 46.7578 1.66615 46.4498V39.1009C1.66615 38.7829 1.61209 38.5742 1.50396 38.4748C1.40566 38.3754 1.17466 38.2909 0.810958 38.2214L0 38.0574V37.7593H4.12851C5.54401 37.7593 6.64494 38.0027 7.43133 38.4897C8.21771 38.9766 8.6109 39.6524 8.6109 40.517C8.6109 40.9741 8.4782 41.3865 8.2128 41.7542C7.94739 42.112 7.59352 42.4051 7.15118 42.6337C6.70884 42.8523 6.22718 42.9915 5.7062 43.0511V43.0809C6.15837 43.1008 6.55156 43.225 6.88577 43.4536C7.22982 43.6722 7.53454 43.9604 7.79994 44.3181C8.07518 44.6659 8.3455 45.0336 8.6109 45.4212C8.86648 45.7889 9.12205 46.1367 9.37763 46.4647C9.6332 46.7827 9.89369 47.041 10.1591 47.2398C10.4343 47.4386 10.7145 47.5379 10.9995 47.5379V47.8659C10.6653 47.9553 10.3311 48 9.9969 48ZM3.43551 42.902H4.12851C4.63966 42.902 5.09184 42.8175 5.48503 42.6486C5.88805 42.4697 6.2026 42.2113 6.42869 41.8735C6.65477 41.5356 6.76782 41.1182 6.76782 40.6213C6.76782 39.8263 6.51716 39.2251 6.01584 38.8176C5.52435 38.4003 4.83135 38.1916 3.93683 38.1916H3.43551V42.902Z" fill="white"/>
<path d="M18.043 47.9106C17.4336 47.9106 16.8929 47.7665 16.4211 47.4783C15.9591 47.1802 15.5905 46.7827 15.3152 46.2858C15.0498 45.7889 14.9171 45.2324 14.9171 44.6163C14.9171 43.9405 15.0597 43.3442 15.3447 42.8275C15.6298 42.3107 16.0181 41.9033 16.5096 41.6051C17.0109 41.307 17.5663 41.158 18.1757 41.158C18.677 41.158 19.1095 41.2772 19.4732 41.5157C19.8468 41.7542 20.1368 42.0772 20.3432 42.4846C20.5496 42.8821 20.6528 43.3343 20.6528 43.8411C20.6528 43.9306 20.6283 44.0101 20.5791 44.0796C20.53 44.1393 20.4562 44.1691 20.3579 44.1691H15.7871V43.707L18.913 43.5877C19.0702 43.5877 19.1489 43.4883 19.1489 43.2896C19.1489 42.7927 19.0555 42.3902 18.8687 42.0822C18.682 41.7642 18.4116 41.6051 18.0578 41.6051C17.5761 41.6051 17.1878 41.8536 16.8929 42.3505C16.6079 42.8374 16.4653 43.4834 16.4653 44.2883C16.4653 44.8548 16.5636 45.3367 16.7602 45.7342C16.9667 46.1218 17.237 46.415 17.5712 46.6137C17.9054 46.8125 18.2691 46.9119 18.6623 46.9119C19.2521 46.9119 19.8468 46.6584 20.4464 46.1516L20.6676 46.3454C20.294 46.892 19.8812 47.2895 19.429 47.5379C18.9768 47.7864 18.5148 47.9106 18.043 47.9106Z" fill="white"/>
<path d="M27.6875 47.9106C27.2255 47.9106 26.793 47.841 26.39 47.7019C25.987 47.5528 25.6823 47.4187 25.4758 47.2994C25.4955 47.0112 25.5053 46.6982 25.5053 46.3603C25.5053 46.0224 25.4709 45.6995 25.4021 45.3914H25.9034C25.9624 45.7889 26.0705 46.1467 26.2278 46.4647C26.3949 46.7827 26.6112 47.0361 26.8766 47.2249C27.142 47.4038 27.4565 47.4932 27.8202 47.4932C28.1053 47.4932 28.3461 47.4038 28.5427 47.2249C28.7492 47.0361 28.8524 46.7926 28.8524 46.4945C28.8524 46.246 28.8081 46.0423 28.7197 45.8833C28.6312 45.7243 28.469 45.5752 28.2331 45.4361C28.007 45.297 27.6777 45.1479 27.2452 44.9889C26.6849 44.7604 26.2671 44.497 25.9919 44.1989C25.7265 43.9007 25.5938 43.4933 25.5938 42.9765C25.5938 42.6585 25.6872 42.3654 25.8739 42.0971C26.0607 41.8188 26.3261 41.5952 26.6702 41.4263C27.0142 41.2474 27.4123 41.158 27.8645 41.158C28.1692 41.158 28.4199 41.1878 28.6165 41.2474C28.8131 41.307 29.0195 41.3865 29.2357 41.4859H29.5896C29.5699 41.8437 29.565 42.1517 29.5749 42.4101C29.5945 42.6685 29.6338 42.9616 29.6928 43.2896H29.2947C29.1669 42.7331 28.9703 42.3107 28.7049 42.0225C28.4494 41.7244 28.125 41.5753 27.7318 41.5753C27.4369 41.5753 27.201 41.6598 27.024 41.8287C26.8471 41.9977 26.7586 42.2113 26.7586 42.4697C26.7586 42.7082 26.8029 42.907 26.8913 43.066C26.9798 43.215 27.1322 43.3492 27.3484 43.4685C27.5647 43.5778 27.8694 43.702 28.2626 43.8411C28.8425 44.0498 29.28 44.3032 29.5749 44.6014C29.8796 44.8995 30.0319 45.3318 30.0319 45.8982C30.0319 46.2361 29.9435 46.5591 29.7665 46.8671C29.5994 47.1752 29.3439 47.4286 28.9998 47.6274C28.6558 47.8162 28.2184 47.9106 27.6875 47.9106Z" fill="white"/>
<path d="M36.9269 47.9106C36.0128 47.9106 35.5557 47.3292 35.5557 46.1665V41.7542H34.5825V41.3965C35.2215 41.2871 35.6982 41.0586 36.0128 40.7108C36.3273 40.3629 36.5288 39.8661 36.6173 39.2201H36.9859V41.2921H38.7995L38.6521 41.7542H36.9859V46.0473C36.9859 46.4249 37.0449 46.6833 37.1628 46.8224C37.2808 46.9615 37.443 47.0311 37.6494 47.0311C37.7969 47.0311 37.964 46.9963 38.1507 46.9268C38.3375 46.8572 38.5292 46.7678 38.7258 46.6584L38.9175 46.9864C38.5439 47.2845 38.1802 47.5131 37.8264 47.6721C37.4823 47.8311 37.1825 47.9106 36.9269 47.9106Z" fill="white"/>
<path d="M46.2412 47.9106C45.5924 47.9106 45.0764 47.7416 44.693 47.4038C44.3195 47.0659 44.1327 46.5442 44.1327 45.8386V42.3803C44.1327 42.1815 44.0983 42.0474 44.0295 41.9778C43.9705 41.8983 43.8771 41.8387 43.7494 41.7989L43.2185 41.6201V41.3965C43.5528 41.3865 43.8476 41.3716 44.1032 41.3517C44.3686 41.3219 44.6193 41.2871 44.8552 41.2474C45.0911 41.1977 45.3467 41.148 45.6219 41.0983L45.7546 41.2027C45.6957 41.3219 45.6465 41.4809 45.6072 41.6797C45.5777 41.8784 45.563 42.0871 45.563 42.3058V45.4212C45.563 45.8783 45.676 46.2311 45.9021 46.4796C46.138 46.7181 46.4673 46.8373 46.89 46.8373C47.3028 46.8373 47.6272 46.6982 47.8631 46.4199C48.1089 46.1417 48.2317 45.7939 48.2317 45.3765L48.5266 46.8969H48.2612C47.986 47.0162 47.6813 47.1653 47.3471 47.3441C47.0227 47.5131 46.7327 47.6771 46.4771 47.8361C46.3887 47.8857 46.31 47.9106 46.2412 47.9106ZM48.6298 47.9106L48.4971 47.8361L48.3497 46.7628L48.2317 46.3305V42.3803C48.2317 42.1815 48.2023 42.0474 48.1433 41.9778C48.0843 41.8983 47.9909 41.8387 47.8631 41.7989L47.3176 41.6201V41.3965C47.6518 41.3865 47.9467 41.3716 48.2023 41.3517C48.4677 41.3219 48.7183 41.2871 48.9542 41.2474C49.1901 41.1977 49.4457 41.148 49.721 41.0983L49.8684 41.2027C49.7996 41.3219 49.7455 41.4809 49.7062 41.6797C49.6767 41.8784 49.662 42.0871 49.662 42.3058V46.4945C49.662 46.8125 49.7554 47.0361 49.9421 47.1653C50.1289 47.2845 50.4189 47.3392 50.8121 47.3292V47.687C50.4385 47.6969 50.0748 47.7267 49.721 47.7764C49.3769 47.8162 49.0132 47.8609 48.6298 47.9106Z" fill="white"/>
<path d="M57.2708 47.8957C56.9268 47.8957 56.6122 47.7963 56.3272 47.5976C56.0421 47.3988 55.816 47.1404 55.6489 46.8224C55.4818 46.5044 55.3982 46.1616 55.3982 45.7939C55.3982 45.6249 55.413 45.5057 55.4425 45.4361C55.4818 45.3566 55.5408 45.302 55.6194 45.2721L58.5683 44.1691C58.7649 44.0995 58.8976 44.02 58.9665 43.9306C59.0353 43.8312 59.0697 43.697 59.0697 43.5281V43.0809C59.0697 42.6436 58.9664 42.2859 58.76 42.0076C58.5536 41.7294 58.2341 41.5902 57.8016 41.5902C57.5166 41.5902 57.2856 41.6548 57.1086 41.784C56.9317 41.9033 56.8432 42.0523 56.8432 42.2312C56.8432 42.3008 56.858 42.3654 56.8874 42.425C56.9268 42.4846 56.971 42.5443 57.0202 42.6039C57.089 42.6933 57.143 42.7877 57.1823 42.8871C57.2315 42.9865 57.2561 43.0908 57.2561 43.2001C57.2561 43.4188 57.1774 43.5927 57.0202 43.7219C56.8727 43.8511 56.681 43.9157 56.4451 43.9157C56.1994 43.9157 56.0077 43.8461 55.8701 43.707C55.7324 43.5579 55.6636 43.3542 55.6636 43.0958C55.6636 42.738 55.7865 42.4151 56.0323 42.1269C56.278 41.8287 56.5926 41.5952 56.9759 41.4263C57.3593 41.2474 57.7525 41.158 58.1555 41.158C58.6175 41.158 59.0205 41.2424 59.3646 41.4114C59.7184 41.5704 59.9937 41.8039 60.1903 42.112C60.3967 42.4101 60.4999 42.7778 60.4999 43.215V46.405C60.4999 46.6038 60.5196 46.7727 60.5589 46.9119C60.608 47.051 60.7211 47.1205 60.898 47.1205C61.0749 47.1205 61.2912 47.0758 61.5468 46.9864V47.2994C61.36 47.4187 61.1143 47.5479 60.8095 47.687C60.5146 47.8162 60.2542 47.8808 60.0281 47.8808C59.8216 47.8808 59.6545 47.8361 59.5267 47.7466C59.399 47.6572 59.3056 47.5181 59.2466 47.3292C59.1876 47.1404 59.1581 46.9168 59.1581 46.6584V46.4498L59.453 46.733C59.2466 46.9119 59.0205 47.0907 58.7748 47.2696C58.529 47.4485 58.2784 47.5976 58.0228 47.7168C57.7672 47.8361 57.5166 47.8957 57.2708 47.8957ZM57.9343 47.0758C58.0916 47.0758 58.244 47.041 58.3914 46.9715C58.5487 46.9019 58.7109 46.8075 58.878 46.6883C59.0058 46.5889 59.0697 46.4299 59.0697 46.2113V44.5864C59.0697 44.5566 59.0598 44.5368 59.0402 44.5268C59.0205 44.5069 58.9959 44.5069 58.9665 44.5268L56.9907 45.2572C56.9317 45.2771 56.8874 45.3218 56.858 45.3914C56.8383 45.461 56.8285 45.5752 56.8285 45.7342C56.8285 45.9529 56.8825 46.1665 56.9907 46.3752C57.0988 46.574 57.2364 46.7429 57.4035 46.882C57.5805 47.0112 57.7574 47.0758 57.9343 47.0758Z" fill="white"/>
<path d="M65.8753 47.7913V47.5528L66.4061 47.374C66.5535 47.3243 66.6567 47.2597 66.7157 47.1802C66.7747 47.1007 66.8042 46.9814 66.8042 46.8224V42.6486C66.8042 42.4399 66.7698 42.3008 66.701 42.2312C66.642 42.1517 66.5486 42.0971 66.4208 42.0672L65.8753 41.9182V41.6946C66.1996 41.6449 66.4847 41.5952 66.7305 41.5455C66.986 41.4958 67.2269 41.4362 67.4529 41.3666C67.6889 41.2871 67.9346 41.1977 68.1902 41.0983L68.3229 41.2027C68.2639 41.3219 68.2148 41.4809 68.1754 41.6797C68.146 41.8784 68.1312 42.0871 68.1312 42.3058V42.4548L68.2344 42.738V46.8969C68.2344 47.0162 68.2688 47.1156 68.3376 47.1951C68.4064 47.2646 68.5146 47.3243 68.662 47.374L69.2813 47.5528V47.7913H65.8753ZM68.2344 43.7964L67.969 42.3952L69.7089 41.3368C69.8268 41.2673 69.9301 41.2225 70.0185 41.2027C70.107 41.1729 70.1955 41.158 70.2839 41.158C70.5002 41.158 70.6968 41.2474 70.8737 41.4263C71.0507 41.5952 71.1391 41.8188 71.1391 42.0971C71.1391 42.3157 71.0556 42.5144 70.8885 42.6933C70.7214 42.8722 70.5002 42.9616 70.225 42.9616C70.0578 42.9616 69.9153 42.9219 69.7974 42.8424C69.6794 42.7629 69.5762 42.6834 69.4877 42.6039C69.4287 42.5244 69.3648 42.4548 69.296 42.3952C69.2272 42.3256 69.1486 42.2908 69.0601 42.2908C68.9815 42.2908 68.8734 42.3306 68.7357 42.4101C68.608 42.4896 68.49 42.6387 68.3819 42.8573C68.2836 43.066 68.2344 43.379 68.2344 43.7964Z" fill="white"/>
<path d="M77.3432 47.8957C76.9991 47.8957 76.6846 47.7963 76.3995 47.5976C76.1145 47.3988 75.8884 47.1404 75.7213 46.8224C75.5542 46.5044 75.4706 46.1616 75.4706 45.7939C75.4706 45.6249 75.4854 45.5057 75.5148 45.4361C75.5542 45.3566 75.6131 45.302 75.6918 45.2721L78.6407 44.1691C78.8373 44.0995 78.97 44.02 79.0388 43.9306C79.1076 43.8312 79.142 43.697 79.142 43.5281V43.0809C79.142 42.6436 79.0388 42.2859 78.8324 42.0076C78.626 41.7294 78.3065 41.5902 77.874 41.5902C77.5889 41.5902 77.3579 41.6548 77.181 41.784C77.0041 41.9033 76.9156 42.0523 76.9156 42.2312C76.9156 42.3008 76.9303 42.3654 76.9598 42.425C76.9991 42.4846 77.0434 42.5443 77.0925 42.6039C77.1613 42.6933 77.2154 42.7877 77.2547 42.8871C77.3039 42.9865 77.3284 43.0908 77.3284 43.2001C77.3284 43.4188 77.2498 43.5927 77.0925 43.7219C76.9451 43.8511 76.7534 43.9157 76.5175 43.9157C76.2717 43.9157 76.0801 43.8461 75.9424 43.707C75.8048 43.5579 75.736 43.3542 75.736 43.0958C75.736 42.738 75.8589 42.4151 76.1046 42.1269C76.3504 41.8287 76.6649 41.5952 77.0483 41.4263C77.4316 41.2474 77.8248 41.158 78.2279 41.158C78.6899 41.158 79.0929 41.2424 79.4369 41.4114C79.7908 41.5704 80.066 41.8039 80.2626 42.112C80.4691 42.4101 80.5723 42.7778 80.5723 43.215V46.405C80.5723 46.6038 80.5919 46.7727 80.6312 46.9119C80.6804 47.051 80.7934 47.1205 80.9704 47.1205C81.1473 47.1205 81.3636 47.0758 81.6191 46.9864V47.2994C81.4324 47.4187 81.1866 47.5479 80.8819 47.687C80.587 47.8162 80.3265 47.8808 80.1004 47.8808C79.894 47.8808 79.7269 47.8361 79.5991 47.7466C79.4713 47.6572 79.378 47.5181 79.319 47.3292C79.26 47.1404 79.2305 46.9168 79.2305 46.6584V46.4498L79.5254 46.733C79.319 46.9119 79.0929 47.0907 78.8471 47.2696C78.6014 47.4485 78.3507 47.5976 78.0952 47.7168C77.8396 47.8361 77.5889 47.8957 77.3432 47.8957ZM78.0067 47.0758C78.164 47.0758 78.3163 47.041 78.4638 46.9715C78.6211 46.9019 78.7832 46.8075 78.9504 46.6883C79.0781 46.5889 79.142 46.4299 79.142 46.2113V44.5864C79.142 44.5566 79.1322 44.5368 79.1125 44.5268C79.0929 44.5069 79.0683 44.5069 79.0388 44.5268L77.063 45.2572C77.0041 45.2771 76.9598 45.3218 76.9303 45.3914C76.9107 45.461 76.9008 45.5752 76.9008 45.7342C76.9008 45.9529 76.9549 46.1665 77.063 46.3752C77.1712 46.574 77.3088 46.7429 77.4759 46.882C77.6528 47.0112 77.8298 47.0758 78.0067 47.0758Z" fill="white"/>
<path d="M90.2089 47.7913V47.5528L90.7397 47.374C90.8773 47.3342 90.9756 47.2696 91.0346 47.1802C91.1034 47.0808 91.1378 46.9615 91.1378 46.8224V43.6175C91.1378 43.1703 91.0149 42.8275 90.7691 42.589C90.5332 42.3405 90.1941 42.2163 89.7518 42.2163C89.2996 42.2163 88.9457 42.3604 88.6901 42.6486C88.4346 42.9368 88.3068 43.2896 88.3068 43.707L88.0119 42.1865H88.2773C88.5525 42.0573 88.8474 41.9082 89.162 41.7393C89.4765 41.5704 89.7714 41.4064 90.0467 41.2474C90.1548 41.1878 90.2629 41.158 90.371 41.158C91.069 41.158 91.6096 41.3368 91.993 41.6946C92.3763 42.0523 92.568 42.5691 92.568 43.2449V46.8969C92.568 47.0361 92.6024 47.1454 92.6712 47.2249C92.7499 47.2945 92.8432 47.3441 92.9514 47.374L93.4822 47.5528V47.7913H90.2089ZM85.9476 47.7913V47.5528L86.4784 47.374C86.6161 47.3342 86.7144 47.2696 86.7733 47.1802C86.8421 47.0808 86.8766 46.9615 86.8766 46.8224V42.6486C86.8766 42.4399 86.8421 42.3008 86.7733 42.2312C86.7144 42.1517 86.621 42.0971 86.4932 42.0672L85.9476 41.9182V41.6946C86.272 41.6449 86.5571 41.5952 86.8028 41.5455C87.0584 41.4958 87.2992 41.4362 87.5253 41.3666C87.7612 41.2871 88.007 41.1977 88.2626 41.0983L88.3953 41.2027C88.3363 41.3219 88.2871 41.4809 88.2478 41.6797C88.2183 41.8784 88.2036 42.0871 88.2036 42.3058V42.4548L88.3068 42.738V46.8969C88.3068 47.0361 88.3412 47.1454 88.41 47.2249C88.4886 47.2945 88.582 47.3441 88.6901 47.374L89.221 47.5528V47.7913H85.9476Z" fill="white"/>
<path d="M100.009 47.9106C99.0953 47.9106 98.6382 47.3292 98.6382 46.1665V41.7542H97.6651V41.3965C98.304 41.2871 98.7807 41.0586 99.0953 40.7108C99.4099 40.3629 99.6114 39.8661 99.6998 39.2201H100.068V41.2921H101.882L101.735 41.7542H100.068V46.0473C100.068 46.4249 100.127 46.6833 100.245 46.8224C100.363 46.9615 100.526 47.0311 100.732 47.0311C100.879 47.0311 101.047 46.9963 101.233 46.9268C101.42 46.8572 101.612 46.7678 101.808 46.6584L102 46.9864C101.626 47.2845 101.263 47.5131 100.909 47.6721C100.565 47.8311 100.265 47.9106 100.009 47.9106Z" fill="white"/>
</svg>
