<?xml version="1.0" encoding="UTF-8"?>
<svg xmlns="http://www.w3.org/2000/svg" width="102" height="48" viewBox="0 0 102 48" fill="none">
  <path d="M15.068 26.8689C12.9792 26.8689 11.1852 26.6081 9.68617 26.0863C8.2117 25.5398 7.04442 25.0429 6.18431 24.5957C6.3809 23.5026 6.46692 22.3721 6.44234 21.2045C6.44234 20.0368 6.29489 18.8691 6 17.7014H7.21644C7.36388 19.2418 7.75708 20.6206 8.39601 21.838C9.05952 23.0554 9.95649 24.0119 11.0869 24.7075C12.2173 25.4031 13.5689 25.7509 15.1417 25.7509C16.0018 25.7509 16.8251 25.5895 17.6114 25.2665C18.3978 24.9187 19.0368 24.4094 19.5283 23.7386C20.0443 23.0678 20.3024 22.2355 20.3024 21.2417C20.3024 20.2977 20.1058 19.5275 19.7126 18.9312C19.3439 18.3101 18.6804 17.7387 17.722 17.217C16.7636 16.6953 15.3875 16.1238 13.5935 15.5027C11.3818 14.7326 9.68617 13.8258 8.5066 12.7823C7.32702 11.714 6.73723 10.1985 6.73723 8.23583C6.73723 6.96878 7.03213 5.78868 7.62192 4.69554C8.23628 3.57755 9.14553 2.68317 10.3497 2.01238C11.5784 1.34158 13.0897 1.00619 14.8837 1.00619C15.7684 1.00619 16.5056 1.10556 17.0954 1.30432C17.6852 1.50307 18.2135 1.71424 18.6804 1.93784C19.0491 2.11175 19.3808 2.27324 19.6757 2.4223C19.9952 2.57137 20.3269 2.6459 20.671 2.6459L21.74 2.4223L21.8505 2.49683C21.826 2.79496 21.8014 3.10552 21.7768 3.42849C21.7522 3.75146 21.74 4.06202 21.74 4.36014C21.74 5.03094 21.7768 5.68931 21.8505 6.33525C21.9488 6.9812 22.0471 7.54019 22.1454 8.01223C22.2437 8.48427 22.3175 8.81967 22.3666 9.01842H21.4451C21.0273 7.62715 20.4989 6.42221 19.86 5.4036C19.2456 4.38499 18.5084 3.58998 17.6483 3.01856C16.7882 2.4223 15.7806 2.12417 14.6256 2.12417C13.741 2.12417 12.9423 2.32293 12.2296 2.72043C11.5415 3.11794 11.0009 3.63967 10.6077 4.28561C10.2391 4.93156 10.0548 5.66446 10.0548 6.48432C10.0548 7.37871 10.2145 8.11161 10.534 8.68303C10.8535 9.25444 11.4555 9.77617 12.3402 10.2482C13.2495 10.6954 14.5642 11.2171 16.2844 11.8134C18.0784 12.4096 19.4914 13.0556 20.5235 13.7512C21.5802 14.4469 22.3297 15.2419 22.7721 16.1363C23.239 17.0058 23.4725 18.0617 23.4725 19.3039C23.4725 20.7945 23.1161 22.1113 22.4035 23.2541C21.6908 24.3721 20.7078 25.2541 19.4545 25.9C18.2012 26.546 16.7391 26.8689 15.068 26.8689Z" fill="white"></path>
  <path d="M26.6112 26.4963V25.9L27.9382 25.4528C28.6017 25.2292 28.9335 24.7696 28.9335 24.074V13.6022C28.9335 13.1053 28.8475 12.7699 28.6754 12.596C28.528 12.3972 28.2945 12.2482 27.9751 12.1488L26.6112 11.8134V11.2544C27.8153 11.0556 28.872 10.8569 29.7813 10.6581C30.7151 10.4594 31.6612 10.1613 32.6196 9.76374L32.9883 10.0246C32.7917 10.3973 32.6565 10.8817 32.5828 11.478C32.5336 12.0494 32.5091 12.7078 32.5091 13.4531V24.2603C32.5091 24.5833 32.6074 24.8441 32.8039 25.0429C33.0005 25.2416 33.2094 25.3783 33.4306 25.4528L34.7576 25.9V26.4963H26.6112ZM30.666 5.92532C29.9779 5.92532 29.3881 5.68931 28.8966 5.21727C28.4297 4.72039 28.1962 4.12413 28.1962 3.42849C28.1962 2.73285 28.4297 2.14902 28.8966 1.67698C29.3881 1.1801 29.9779 0.931654 30.666 0.931654C31.3541 0.931654 31.9316 1.1801 32.3985 1.67698C32.89 2.14902 33.1357 2.73285 33.1357 3.42849C33.1357 4.12413 32.89 4.72039 32.3985 5.21727C31.9316 5.68931 31.3541 5.92532 30.666 5.92532Z" fill="white"></path>
  <path d="M36.1146 26.4963V25.9L37.4416 25.4528C37.7857 25.3534 38.0314 25.192 38.1789 24.9684C38.3509 24.7199 38.4369 24.4218 38.4369 24.074V3.87568C38.4369 3.35396 38.3632 3.00614 38.2157 2.83223C38.0683 2.63348 37.8348 2.49684 37.5153 2.4223L36.1146 2.04964V1.52791C37.3187 1.32916 38.3877 1.13041 39.3216 0.931654C40.2554 0.732902 41.2015 0.422351 42.1599 0L42.5285 0.260862C42.3319 0.658369 42.1968 1.14283 42.1231 1.71425C42.0493 2.28566 42.0125 2.94403 42.0125 3.68935V24.2603C42.0125 24.6081 42.0985 24.8814 42.2705 25.0802C42.4671 25.2541 42.7006 25.3783 42.9709 25.4528L44.2979 25.9V26.4963H36.1146Z" fill="white"></path>
  <path d="M50.8532 26.7571C49.9931 26.7571 49.2067 26.5087 48.4941 26.0118C47.7814 25.5149 47.2162 24.869 46.7984 24.074C46.3807 23.279 46.1718 22.4218 46.1718 21.5026C46.1718 21.0802 46.2087 20.7821 46.2824 20.6082C46.3807 20.4095 46.5281 20.2728 46.7247 20.1983L54.0971 17.4406C54.5886 17.2667 54.9203 17.0679 55.0923 16.8443C55.2644 16.5959 55.3504 16.2605 55.3504 15.8381V14.7201C55.3504 13.627 55.0923 12.7326 54.5763 12.037C54.0602 11.3413 53.2615 10.9935 52.1803 10.9935C51.4676 10.9935 50.8901 11.155 50.4478 11.478C50.0054 11.7761 49.7842 12.1488 49.7842 12.596C49.7842 12.7699 49.8211 12.9314 49.8948 13.0804C49.9931 13.2295 50.1037 13.3786 50.2266 13.5276C50.3986 13.7512 50.5338 13.9872 50.6321 14.2357C50.7549 14.4841 50.8164 14.745 50.8164 15.0183C50.8164 15.5648 50.6198 15.9996 50.2266 16.3226C49.858 16.6456 49.3788 16.8071 48.789 16.8071C48.1746 16.8071 47.6954 16.6331 47.3514 16.2853C47.0073 15.9127 46.8353 15.4034 46.8353 14.7574C46.8353 13.863 47.1425 13.0556 47.7569 12.3351C48.3712 11.5898 49.1576 11.006 50.116 10.5836C51.0744 10.1364 52.0574 9.91281 53.0649 9.91281C54.2199 9.91281 55.2275 10.124 56.0876 10.5463C56.9723 10.9438 57.6604 11.5277 58.1519 12.2978C58.6679 13.0432 58.926 13.9624 58.926 15.0555V23.0305C58.926 23.5274 58.9751 23.9497 59.0734 24.2976C59.1963 24.6454 59.4789 24.8193 59.9212 24.8193C60.3636 24.8193 60.9042 24.7075 61.5431 24.4839V25.2665C61.0762 25.5646 60.4619 25.8876 59.7001 26.2354C58.9628 26.5584 58.3116 26.7199 57.7464 26.7199C57.2303 26.7199 56.8125 26.6081 56.4931 26.3845C56.1736 26.1609 55.9402 25.8131 55.7927 25.341C55.6453 24.869 55.5715 24.31 55.5715 23.664V23.1423L56.3088 23.8504C55.7927 24.2976 55.2275 24.7448 54.6131 25.1919C53.9988 25.6391 53.3721 26.0118 52.7332 26.3099C52.0942 26.6081 51.4676 26.7571 50.8532 26.7571ZM52.512 24.7075C52.9052 24.7075 53.2861 24.6205 53.6547 24.4466C54.0479 24.2727 54.4534 24.0367 54.8712 23.7386C55.1906 23.4901 55.3504 23.0926 55.3504 22.546V18.484C55.3504 18.4095 55.3258 18.3598 55.2766 18.335C55.2275 18.2853 55.1661 18.2853 55.0923 18.335L50.1529 20.161C50.0054 20.2107 49.8948 20.3225 49.8211 20.4964C49.772 20.6703 49.7474 20.956 49.7474 21.3535C49.7474 21.9001 49.8825 22.4343 50.1529 22.956C50.4232 23.4529 50.7672 23.8752 51.185 24.223C51.6273 24.546 52.0697 24.7075 52.512 24.7075Z" fill="white"></path>
  <path d="M70.7424 36.1855C69.1943 36.1855 67.8304 36.0116 66.6508 35.6638C65.4712 35.3159 64.5374 34.8191 63.8493 34.1731C63.1858 33.5272 62.854 32.757 62.854 31.8626C62.854 31.0924 63.1366 30.3844 63.7019 29.7384C64.2671 29.0925 65.0412 28.5583 66.0241 28.136C67.0071 27.7136 68.1375 27.4776 69.4154 27.4279L70.2632 27.6515C68.8379 27.8751 67.8181 28.2975 67.2037 28.9186C66.5894 29.5645 66.2822 30.2477 66.2822 30.9682C66.2822 31.8626 66.7491 32.67 67.6829 33.3905C68.6168 34.111 70.0052 34.4712 71.8483 34.4712C73.716 34.4712 75.2273 34.1358 76.3823 33.465C77.5373 32.7943 78.1148 31.9247 78.1148 30.8564C78.1148 29.813 77.6356 29.0055 76.6772 28.4341C75.7188 27.8627 74.4778 27.577 72.9541 27.577C72.2906 27.577 71.6148 27.6018 70.9268 27.6515C70.2387 27.7012 69.5383 27.7261 68.8256 27.7261C67.3512 27.7261 66.1224 27.4403 65.1395 26.8689C64.1811 26.3224 63.7019 25.5398 63.7019 24.5212C63.7019 24.4715 63.7141 24.4218 63.7387 24.3721C63.7633 24.2976 63.8247 24.223 63.923 24.1485C64.6111 23.6516 65.2132 23.1547 65.7292 22.6579C66.2699 22.161 66.7368 21.6144 67.13 21.0181V20.8691C66.147 20.3225 65.3975 19.602 64.8814 18.7076C64.3654 17.7884 64.1073 16.8319 64.1073 15.8381C64.1073 14.1239 64.6971 12.7202 65.8767 11.6271C67.0563 10.5091 68.6045 9.95007 70.5213 9.95007C71.1356 9.95007 71.7131 10.0122 72.2538 10.1364C72.819 10.2606 73.3596 10.4097 73.8757 10.5836C74.3426 10.7078 74.785 10.8196 75.2027 10.919C75.6451 11.0184 76.0628 11.0681 76.456 11.0681C77.1195 11.0681 77.4513 10.8569 77.4513 10.4345C77.4513 10.2358 77.4144 10.0495 77.3407 9.87554C77.267 9.67679 77.1564 9.46562 77.0089 9.24202C76.9106 9.06811 76.8123 8.8942 76.714 8.72029C76.6157 8.52154 76.5666 8.29794 76.5666 8.0495C76.5666 7.55262 76.714 7.19238 77.0089 6.96878C77.3284 6.72034 77.6847 6.59612 78.0779 6.59612C78.6186 6.59612 79.0363 6.80729 79.3312 7.22964C79.6507 7.65199 79.8104 8.1613 79.8104 8.75756C79.8104 10.0743 79.5524 11.0184 79.0363 11.5898C78.5203 12.1364 77.8936 12.4096 77.1564 12.4096C76.6157 12.4096 76.0751 12.273 75.5345 11.9997V12.2233C76.026 12.8196 76.37 13.4158 76.5666 14.0121C76.7632 14.5835 76.8615 15.2667 76.8615 16.0617C76.8615 17.0803 76.6157 18.012 76.1243 18.8567C75.6328 19.7014 74.9324 20.3722 74.0231 20.8691C73.1139 21.366 72.0203 21.6268 70.7424 21.6517C69.4891 21.6765 68.543 21.8504 67.9041 22.1734C67.2652 22.4964 66.9457 22.869 66.9457 23.2914C66.9457 23.664 67.1177 23.9497 67.4617 24.1485C67.8304 24.3224 68.3341 24.4094 68.9731 24.4094C69.5629 24.4094 70.2632 24.3969 71.0742 24.3721C71.8852 24.3224 72.647 24.2976 73.3596 24.2976C74.6621 24.2976 75.8539 24.4715 76.9352 24.8193C78.0165 25.1423 78.8766 25.6764 79.5155 26.4217C80.1545 27.1671 80.4739 28.1484 80.4739 29.3658C80.4739 30.7073 80.0562 31.8874 79.2206 32.9061C78.3851 33.9495 77.2301 34.7569 75.7556 35.3284C74.3057 35.8998 72.6347 36.1855 70.7424 36.1855ZM70.6319 20.4219C71.4674 20.4219 72.1186 20.0368 72.5855 19.2666C73.0524 18.4965 73.2859 17.3785 73.2859 15.9127C73.2859 14.422 73.0402 13.2543 72.5487 12.4096C72.0817 11.5649 71.406 11.1426 70.5213 11.1426C69.7103 11.1426 69.0714 11.5153 68.6045 12.2606C68.1376 13.0059 67.9041 14.099 67.9041 15.54C67.9041 17.0555 68.1376 18.248 68.6045 19.1176C69.096 19.9871 69.7717 20.4219 70.6319 20.4219Z" fill="white"></path>
  <path d="M88.7834 26.7944C87.2598 26.7944 85.9082 26.4342 84.7286 25.7137C83.5736 24.9684 82.652 23.9746 81.964 22.7324C81.3004 21.4902 80.9687 20.0989 80.9687 18.5586C80.9687 16.8692 81.325 15.3785 82.0377 14.0866C82.7503 12.7947 83.721 11.7761 84.9498 11.0308C86.2031 10.2855 87.5915 9.91281 89.1151 9.91281C90.3684 9.91281 91.4497 10.2109 92.359 10.8072C93.2928 11.4035 94.0177 12.2109 94.5338 13.2295C95.0499 14.2233 95.3079 15.3537 95.3079 16.6207C95.3079 16.8443 95.2465 17.0431 95.1236 17.217C95.0007 17.366 94.8164 17.4406 94.5707 17.4406H83.1435V16.2853L90.9582 15.9872C91.3514 15.9872 91.548 15.7388 91.548 15.2419C91.548 13.9997 91.3146 12.9935 90.8476 12.2233C90.3807 11.4283 89.7049 11.0308 88.8202 11.0308C87.6161 11.0308 86.6454 11.6519 85.9082 12.8941C85.1955 14.1115 84.8392 15.7263 84.8392 17.7387C84.8392 19.1548 85.0849 20.3598 85.5764 21.3535C86.0925 22.3225 86.7683 23.0554 87.6038 23.5522C88.4393 24.0491 89.3486 24.2976 90.3316 24.2976C91.806 24.2976 93.2928 23.664 94.7918 22.397L95.3448 22.8814C94.4109 24.2479 93.3788 25.2416 92.2484 25.8627C91.118 26.4838 89.963 26.7944 88.7834 26.7944Z" fill="white"></path>
  <path d="M9.9969 48C9.54473 48 9.1368 47.9156 8.77309 47.7466C8.40939 47.5677 8.06043 47.3094 7.72622 46.9715C7.40184 46.6336 7.07254 46.2311 6.73833 45.7641C6.47292 45.3765 6.20752 44.9989 5.94211 44.6312C5.68654 44.2635 5.39164 43.9604 5.05743 43.7219C4.73305 43.4834 4.33003 43.3641 3.84837 43.3641H3.43551V46.4498C3.43551 46.7578 3.48466 46.9615 3.58296 47.0609C3.69109 47.1603 3.927 47.2497 4.29071 47.3292L5.10166 47.4932V47.7913H0V47.4932L0.810958 47.3292C1.17466 47.2497 1.40566 47.1603 1.50396 47.0609C1.61209 46.9615 1.66615 46.7578 1.66615 46.4498V39.1009C1.66615 38.7829 1.61209 38.5742 1.50396 38.4748C1.40566 38.3754 1.17466 38.2909 0.810958 38.2214L0 38.0574V37.7593H4.12851C5.54401 37.7593 6.64494 38.0027 7.43133 38.4897C8.21771 38.9766 8.6109 39.6524 8.6109 40.517C8.6109 40.9741 8.4782 41.3865 8.2128 41.7542C7.94739 42.112 7.59352 42.4051 7.15118 42.6337C6.70884 42.8523 6.22718 42.9915 5.7062 43.0511V43.0809C6.15837 43.1008 6.55156 43.225 6.88577 43.4536C7.22982 43.6722 7.53454 43.9604 7.79994 44.3181C8.07518 44.6659 8.3455 45.0336 8.6109 45.4212C8.86648 45.7889 9.12205 46.1367 9.37763 46.4647C9.6332 46.7827 9.89369 47.041 10.1591 47.2398C10.4343 47.4386 10.7145 47.5379 10.9995 47.5379V47.8659C10.6653 47.9553 10.3311 48 9.9969 48ZM3.43551 42.902H4.12851C4.63966 42.902 5.09184 42.8175 5.48503 42.6486C5.88805 42.4697 6.2026 42.2113 6.42869 41.8735C6.65477 41.5356 6.76782 41.1182 6.76782 40.6213C6.76782 39.8263 6.51716 39.2251 6.01584 38.8176C5.52435 38.4003 4.83135 38.1916 3.93683 38.1916H3.43551V42.902Z" fill="white"></path>
  <path d="M18.043 47.9106C17.4336 47.9106 16.8929 47.7665 16.4211 47.4783C15.9591 47.1802 15.5905 46.7827 15.3152 46.2858C15.0498 45.7889 14.9171 45.2324 14.9171 44.6163C14.9171 43.9405 15.0597 43.3442 15.3447 42.8275C15.6298 42.3107 16.0181 41.9033 16.5096 41.6051C17.0109 41.307 17.5663 41.158 18.1757 41.158C18.677 41.158 19.1095 41.2772 19.4732 41.5157C19.8468 41.7542 20.1368 42.0772 20.3432 42.4846C20.5496 42.8821 20.6528 43.3343 20.6528 43.8411C20.6528 43.9306 20.6283 44.0101 20.5791 44.0796C20.53 44.1393 20.4562 44.1691 20.3579 44.1691H15.7871V43.707L18.913 43.5877C19.0702 43.5877 19.1489 43.4883 19.1489 43.2896C19.1489 42.7927 19.0555 42.3902 18.8687 42.0822C18.682 41.7642 18.4116 41.6051 18.0578 41.6051C17.5761 41.6051 17.1878 41.8536 16.8929 42.3505C16.6079 42.8374 16.4653 43.4834 16.4653 44.2883C16.4653 44.8548 16.5636 45.3367 16.7602 45.7342C16.9667 46.1218 17.237 46.415 17.5712 46.6137C17.9054 46.8125 18.2691 46.9119 18.6623 46.9119C19.2521 46.9119 19.8468 46.6584 20.4464 46.1516L20.6676 46.3454C20.294 46.892 19.8812 47.2895 19.429 47.5379C18.9768 47.7864 18.5148 47.9106 18.043 47.9106Z" fill="white"></path>
  <path d="M27.6875 47.9106C27.2255 47.9106 26.793 47.841 26.39 47.7019C25.987 47.5528 25.6823 47.4187 25.4758 47.2994C25.4955 47.0112 25.5053 46.6982 25.5053 46.3603C25.5053 46.0224 25.4709 45.6995 25.4021 45.3914H25.9034C25.9624 45.7889 26.0705 46.1467 26.2278 46.4647C26.3949 46.7827 26.6112 47.0361 26.8766 47.2249C27.142 47.4038 27.4565 47.4932 27.8202 47.4932C28.1053 47.4932 28.3461 47.4038 28.5427 47.2249C28.7492 47.0361 28.8524 46.7926 28.8524 46.4945C28.8524 46.246 28.8081 46.0423 28.7197 45.8833C28.6312 45.7243 28.469 45.5752 28.2331 45.4361C28.007 45.297 27.6777 45.1479 27.2452 44.9889C26.6849 44.7604 26.2671 44.497 25.9919 44.1989C25.7265 43.9007 25.5938 43.4933 25.5938 42.9765C25.5938 42.6585 25.6872 42.3654 25.8739 42.0971C26.0607 41.8188 26.3261 41.5952 26.6702 41.4263C27.0142 41.2474 27.4123 41.158 27.8645 41.158C28.1692 41.158 28.4199 41.1878 28.6165 41.2474C28.8131 41.307 29.0195 41.3865 29.2357 41.4859H29.5896C29.5699 41.8437 29.565 42.1517 29.5749 42.4101C29.5945 42.6685 29.6338 42.9616 29.6928 43.2896H29.2947C29.1669 42.7331 28.9703 42.3107 28.7049 42.0225C28.4494 41.7244 28.125 41.5753 27.7318 41.5753C27.4369 41.5753 27.201 41.6598 27.024 41.8287C26.8471 41.9977 26.7586 42.2113 26.7586 42.4697C26.7586 42.7082 26.8029 42.907 26.8913 43.066C26.9798 43.215 27.1322 43.3492 27.3484 43.4685C27.5647 43.5778 27.8694 43.702 28.2626 43.8411C28.8425 44.0498 29.28 44.3032 29.5749 44.6014C29.8796 44.8995 30.0319 45.3318 30.0319 45.8982C30.0319 46.2361 29.9435 46.5591 29.7665 46.8671C29.5994 47.1752 29.3439 47.4286 28.9998 47.6274C28.6558 47.8162 28.2184 47.9106 27.6875 47.9106Z" fill="white"></path>
  <path d="M36.9269 47.9106C36.0128 47.9106 35.5557 47.3292 35.5557 46.1665V41.7542H34.5825V41.3965C35.2215 41.2871 35.6982 41.0586 36.0128 40.7108C36.3273 40.3629 36.5288 39.8661 36.6173 39.2201H36.9859V41.2921H38.7995L38.6521 41.7542H36.9859V46.0473C36.9859 46.4249 37.0449 46.6833 37.1628 46.8224C37.2808 46.9615 37.443 47.0311 37.6494 47.0311C37.7969 47.0311 37.964 46.9963 38.1507 46.9268C38.3375 46.8572 38.5292 46.7678 38.7258 46.6584L38.9175 46.9864C38.5439 47.2845 38.1802 47.5131 37.8264 47.6721C37.4823 47.8311 37.1825 47.9106 36.9269 47.9106Z" fill="white"></path>
  <path d="M46.2412 47.9106C45.5924 47.9106 45.0764 47.7416 44.693 47.4038C44.3195 47.0659 44.1327 46.5442 44.1327 45.8386V42.3803C44.1327 42.1815 44.0983 42.0474 44.0295 41.9778C43.9705 41.8983 43.8771 41.8387 43.7494 41.7989L43.2185 41.6201V41.3965C43.5528 41.3865 43.8476 41.3716 44.1032 41.3517C44.3686 41.3219 44.6193 41.2871 44.8552 41.2474C45.0911 41.1977 45.3467 41.148 45.6219 41.0983L45.7546 41.2027C45.6957 41.3219 45.6465 41.4809 45.6072 41.6797C45.5777 41.8784 45.563 42.0871 45.563 42.3058V45.4212C45.563 45.8783 45.676 46.2311 45.9021 46.4796C46.138 46.7181 46.4673 46.8373 46.89 46.8373C47.3028 46.8373 47.6272 46.6982 47.8631 46.4199C48.1089 46.1417 48.2317 45.7939 48.2317 45.3765L48.5266 46.8969H48.2612C47.986 47.0162 47.6813 47.1653 47.3471 47.3441C47.0227 47.5131 46.7327 47.6771 46.4771 47.8361C46.3887 47.8857 46.31 47.9106 46.2412 47.9106ZM48.6298 47.9106L48.4971 47.8361L48.3497 46.7628L48.2317 46.3305V42.3803C48.2317 42.1815 48.2023 42.0474 48.1433 41.9778C48.0843 41.8983 47.9909 41.8387 47.8631 41.7989L47.3176 41.6201V41.3965C47.6518 41.3865 47.9467 41.3716 48.2023 41.3517C48.4677 41.3219 48.7183 41.2871 48.9542 41.2474C49.1901 41.1977 49.4457 41.148 49.721 41.0983L49.8684 41.2027C49.7996 41.3219 49.7455 41.4809 49.7062 41.6797C49.6767 41.8784 49.662 42.0871 49.662 42.3058V46.4945C49.662 46.8125 49.7554 47.0361 49.9421 47.1653C50.1289 47.2845 50.4189 47.3392 50.8121 47.3292V47.687C50.4385 47.6969 50.0748 47.7267 49.721 47.7764C49.3769 47.8162 49.0132 47.8609 48.6298 47.9106Z" fill="white"></path>
  <path d="M57.2708 47.8957C56.9268 47.8957 56.6122 47.7963 56.3272 47.5976C56.0421 47.3988 55.816 47.1404 55.6489 46.8224C55.4818 46.5044 55.3982 46.1616 55.3982 45.7939C55.3982 45.6249 55.413 45.5057 55.4425 45.4361C55.4818 45.3566 55.5408 45.302 55.6194 45.2721L58.5683 44.1691C58.7649 44.0995 58.8976 44.02 58.9665 43.9306C59.0353 43.8312 59.0697 43.697 59.0697 43.5281V43.0809C59.0697 42.6436 58.9664 42.2859 58.76 42.0076C58.5536 41.7294 58.2341 41.5902 57.8016 41.5902C57.5166 41.5902 57.2856 41.6548 57.1086 41.784C56.9317 41.9033 56.8432 42.0523 56.8432 42.2312C56.8432 42.3008 56.858 42.3654 56.8874 42.425C56.9268 42.4846 56.971 42.5443 57.0202 42.6039C57.089 42.6933 57.143 42.7877 57.1823 42.8871C57.2315 42.9865 57.2561 43.0908 57.2561 43.2001C57.2561 43.4188 57.1774 43.5927 57.0202 43.7219C56.8727 43.8511 56.681 43.9157 56.4451 43.9157C56.1994 43.9157 56.0077 43.8461 55.8701 43.707C55.7324 43.5579 55.6636 43.3542 55.6636 43.0958C55.6636 42.738 55.7865 42.4151 56.0323 42.1269C56.278 41.8287 56.5926 41.5952 56.9759 41.4263C57.3593 41.2474 57.7525 41.158 58.1555 41.158C58.6175 41.158 59.0205 41.2424 59.3646 41.4114C59.7184 41.5704 59.9937 41.8039 60.1903 42.112C60.3967 42.4101 60.4999 42.7778 60.4999 43.215V46.405C60.4999 46.6038 60.5196 46.7727 60.5589 46.9119C60.608 47.051 60.7211 47.1205 60.898 47.1205C61.0749 47.1205 61.2912 47.0758 61.5468 46.9864V47.2994C61.36 47.4187 61.1143 47.5479 60.8095 47.687C60.5146 47.8162 60.2542 47.8808 60.0281 47.8808C59.8216 47.8808 59.6545 47.8361 59.5267 47.7466C59.399 47.6572 59.3056 47.5181 59.2466 47.3292C59.1876 47.1404 59.1581 46.9168 59.1581 46.6584V46.4498L59.453 46.733C59.2466 46.9119 59.0205 47.0907 58.7748 47.2696C58.529 47.4485 58.2784 47.5976 58.0228 47.7168C57.7672 47.8361 57.5166 47.8957 57.2708 47.8957ZM57.9343 47.0758C58.0916 47.0758 58.244 47.041 58.3914 46.9715C58.5487 46.9019 58.7109 46.8075 58.878 46.6883C59.0058 46.5889 59.0697 46.4299 59.0697 46.2113V44.5864C59.0697 44.5566 59.0598 44.5368 59.0402 44.5268C59.0205 44.5069 58.9959 44.5069 58.9665 44.5268L56.9907 45.2572C56.9317 45.2771 56.8874 45.3218 56.858 45.3914C56.8383 45.461 56.8285 45.5752 56.8285 45.7342C56.8285 45.9529 56.8825 46.1665 56.9907 46.3752C57.0988 46.574 57.2364 46.7429 57.4035 46.882C57.5805 47.0112 57.7574 47.0758 57.9343 47.0758Z" fill="white"></path>
  <path d="M65.8753 47.7913V47.5528L66.4061 47.374C66.5535 47.3243 66.6567 47.2597 66.7157 47.1802C66.7747 47.1007 66.8042 46.9814 66.8042 46.8224V42.6486C66.8042 42.4399 66.7698 42.3008 66.701 42.2312C66.642 42.1517 66.5486 42.0971 66.4208 42.0672L65.8753 41.9182V41.6946C66.1996 41.6449 66.4847 41.5952 66.7305 41.5455C66.986 41.4958 67.2269 41.4362 67.4529 41.3666C67.6889 41.2871 67.9346 41.1977 68.1902 41.0983L68.3229 41.2027C68.2639 41.3219 68.2148 41.4809 68.1754 41.6797C68.146 41.8784 68.1312 42.0871 68.1312 42.3058V42.4548L68.2344 42.738V46.8969C68.2344 47.0162 68.2688 47.1156 68.3376 47.1951C68.4064 47.2646 68.5146 47.3243 68.662 47.374L69.2813 47.5528V47.7913H65.8753ZM68.2344 43.7964L67.969 42.3952L69.7089 41.3368C69.8268 41.2673 69.9301 41.2225 70.0185 41.2027C70.107 41.1729 70.1955 41.158 70.2839 41.158C70.5002 41.158 70.6968 41.2474 70.8737 41.4263C71.0507 41.5952 71.1391 41.8188 71.1391 42.0971C71.1391 42.3157 71.0556 42.5144 70.8885 42.6933C70.7214 42.8722 70.5002 42.9616 70.225 42.9616C70.0578 42.9616 69.9153 42.9219 69.7974 42.8424C69.6794 42.7629 69.5762 42.6834 69.4877 42.6039C69.4287 42.5244 69.3648 42.4548 69.296 42.3952C69.2272 42.3256 69.1486 42.2908 69.0601 42.2908C68.9815 42.2908 68.8734 42.3306 68.7357 42.4101C68.608 42.4896 68.49 42.6387 68.3819 42.8573C68.2836 43.066 68.2344 43.379 68.2344 43.7964Z" fill="white"></path>
  <path d="M77.3432 47.8957C76.9991 47.8957 76.6846 47.7963 76.3995 47.5976C76.1145 47.3988 75.8884 47.1404 75.7213 46.8224C75.5542 46.5044 75.4706 46.1616 75.4706 45.7939C75.4706 45.6249 75.4854 45.5057 75.5148 45.4361C75.5542 45.3566 75.6131 45.302 75.6918 45.2721L78.6407 44.1691C78.8373 44.0995 78.97 44.02 79.0388 43.9306C79.1076 43.8312 79.142 43.697 79.142 43.5281V43.0809C79.142 42.6436 79.0388 42.2859 78.8324 42.0076C78.626 41.7294 78.3065 41.5902 77.874 41.5902C77.5889 41.5902 77.3579 41.6548 77.181 41.784C77.0041 41.9033 76.9156 42.0523 76.9156 42.2312C76.9156 42.3008 76.9303 42.3654 76.9598 42.425C76.9991 42.4846 77.0434 42.5443 77.0925 42.6039C77.1613 42.6933 77.2154 42.7877 77.2547 42.8871C77.3039 42.9865 77.3284 43.0908 77.3284 43.2001C77.3284 43.4188 77.2498 43.5927 77.0925 43.7219C76.9451 43.8511 76.7534 43.9157 76.5175 43.9157C76.2717 43.9157 76.0801 43.8461 75.9424 43.707C75.8048 43.5579 75.736 43.3542 75.736 43.0958C75.736 42.738 75.8589 42.4151 76.1046 42.1269C76.3504 41.8287 76.6649 41.5952 77.0483 41.4263C77.4316 41.2474 77.8248 41.158 78.2279 41.158C78.6899 41.158 79.0929 41.2424 79.4369 41.4114C79.7908 41.5704 80.066 41.8039 80.2626 42.112C80.4691 42.4101 80.5723 42.7778 80.5723 43.215V46.405C80.5723 46.6038 80.5919 46.7727 80.6312 46.9119C80.6804 47.051 80.7934 47.1205 80.9704 47.1205C81.1473 47.1205 81.3636 47.0758 81.6191 46.9864V47.2994C81.4324 47.4187 81.1866 47.5479 80.8819 47.687C80.587 47.8162 80.3265 47.8808 80.1004 47.8808C79.894 47.8808 79.7269 47.8361 79.5991 47.7466C79.4713 47.6572 79.378 47.5181 79.319 47.3292C79.26 47.1404 79.2305 46.9168 79.2305 46.6584V46.4498L79.5254 46.733C79.319 46.9119 79.0929 47.0907 78.8471 47.2696C78.6014 47.4485 78.3507 47.5976 78.0952 47.7168C77.8396 47.8361 77.5889 47.8957 77.3432 47.8957ZM78.0067 47.0758C78.164 47.0758 78.3163 47.041 78.4638 46.9715C78.6211 46.9019 78.7832 46.8075 78.9504 46.6883C79.0781 46.5889 79.142 46.4299 79.142 46.2113V44.5864C79.142 44.5566 79.1322 44.5368 79.1125 44.5268C79.0929 44.5069 79.0683 44.5069 79.0388 44.5268L77.063 45.2572C77.0041 45.2771 76.9598 45.3218 76.9303 45.3914C76.9107 45.461 76.9008 45.5752 76.9008 45.7342C76.9008 45.9529 76.9549 46.1665 77.063 46.3752C77.1712 46.574 77.3088 46.7429 77.4759 46.882C77.6528 47.0112 77.8298 47.0758 78.0067 47.0758Z" fill="white"></path>
  <path d="M90.2089 47.7913V47.5528L90.7397 47.374C90.8773 47.3342 90.9756 47.2696 91.0346 47.1802C91.1034 47.0808 91.1378 46.9615 91.1378 46.8224V43.6175C91.1378 43.1703 91.0149 42.8275 90.7691 42.589C90.5332 42.3405 90.1941 42.2163 89.7518 42.2163C89.2996 42.2163 88.9457 42.3604 88.6901 42.6486C88.4346 42.9368 88.3068 43.2896 88.3068 43.707L88.0119 42.1865H88.2773C88.5525 42.0573 88.8474 41.9082 89.162 41.7393C89.4765 41.5704 89.7714 41.4064 90.0467 41.2474C90.1548 41.1878 90.2629 41.158 90.371 41.158C91.069 41.158 91.6096 41.3368 91.993 41.6946C92.3763 42.0523 92.568 42.5691 92.568 43.2449V46.8969C92.568 47.0361 92.6024 47.1454 92.6712 47.2249C92.7499 47.2945 92.8432 47.3441 92.9514 47.374L93.4822 47.5528V47.7913H90.2089ZM85.9476 47.7913V47.5528L86.4784 47.374C86.6161 47.3342 86.7144 47.2696 86.7733 47.1802C86.8421 47.0808 86.8766 46.9615 86.8766 46.8224V42.6486C86.8766 42.4399 86.8421 42.3008 86.7733 42.2312C86.7144 42.1517 86.621 42.0971 86.4932 42.0672L85.9476 41.9182V41.6946C86.272 41.6449 86.5571 41.5952 86.8028 41.5455C87.0584 41.4958 87.2992 41.4362 87.5253 41.3666C87.7612 41.2871 88.007 41.1977 88.2626 41.0983L88.3953 41.2027C88.3363 41.3219 88.2871 41.4809 88.2478 41.6797C88.2183 41.8784 88.2036 42.0871 88.2036 42.3058V42.4548L88.3068 42.738V46.8969C88.3068 47.0361 88.3412 47.1454 88.41 47.2249C88.4886 47.2945 88.582 47.3441 88.6901 47.374L89.221 47.5528V47.7913H85.9476Z" fill="white"></path>
  <path d="M100.009 47.9106C99.0953 47.9106 98.6382 47.3292 98.6382 46.1665V41.7542H97.6651V41.3965C98.304 41.2871 98.7807 41.0586 99.0953 40.7108C99.4099 40.3629 99.6114 39.8661 99.6998 39.2201H100.068V41.2921H101.882L101.735 41.7542H100.068V46.0473C100.068 46.4249 100.127 46.6833 100.245 46.8224C100.363 46.9615 100.526 47.0311 100.732 47.0311C100.879 47.0311 101.047 46.9963 101.233 46.9268C101.42 46.8572 101.612 46.7678 101.808 46.6584L102 46.9864C101.626 47.2845 101.263 47.5131 100.909 47.6721C100.565 47.8311 100.265 47.9106 100.009 47.9106Z" fill="white"></path>
</svg>
